<?xml version="1.0" encoding="utf-8"?>
<!-- Generator: Adobe Illustrator 25.2.1, SVG Export Plug-In . SVG Version: 6.00 Build 0)  -->
<svg version="1.1" id="Capa_1" xmlns="http://www.w3.org/2000/svg" xmlns:xlink="http://www.w3.org/1999/xlink" x="0px" y="0px"
	 viewBox="0 0 742 484" style="enable-background:new 0 0 742 484;" xml:space="preserve">
<style type="text/css">
	.st0{fill:#75C699;}
	.st1{fill:none;}
	.st2{enable-background:new    ;}
	.st3{fill:#184F4B;}
	.st4{opacity:0.5;fill:#184F4B;enable-background:new    ;}
	.st5{fill:#1B504B;}
	.st6{fill:#73C3B3;}
	.st7{fill:none;stroke:#1B504B;stroke-width:4;stroke-linecap:round;stroke-linejoin:round;}
	.st8{fill:#E3B240;}
	.st9{fill:#8A5244;}
	.st10{fill:#B96C5A;}
	.st11{fill:#123B38;}
	.st12{fill:#1F8D7F;}
	.st13{fill:#8C5344;}
	.st14{fill:#70C2B4;}
</style>
<g id="Capa_0__x2B__Layer_3__x2B__Layer_13__x2B__Elipse_1_copia__x2B__Forma_15__x2B__Forma_15_copia__x2B__beneficios_de_la__proteína_de_insecto:__xBF_Por_qué_Circular_Pet_x3F____x2B__Layer_5__x2B__Rectangle_1__x2B__ducha__x2B__Layer_21__x2B__Layer_18__x2B__caca__x2B__juguete__x2B__comida_xA0_Imagen_00000075130668628454935530000001341663195064224159_">
</g>
<path class="st0" d="M711.3,86.2l-0.4,241.2c0,28.5-25.4,51.5-56.6,51.5l-541-0.7c-31.2-0.1-56.4-23.1-56.4-51.5V133.2
	c2.8,0.5,5.8,0.7,8.7,0.7c26.8,0,48.5-19.8,48.5-44.2c0-16.9-10.3-31.5-25.5-39c-3.1-1.9-6.4-3.5-10-4.7
	c9.4-6.6,21.1-10.5,33.9-10.5h543.1C686.4,35.5,711.3,58.2,711.3,86.2z"/>
<rect x="118.8" y="62.5" class="st1" width="567.6" height="54.8"/>
<g class="st2">
	<path class="st3" d="M137.1,62.5c1.5,0,2.8,0.2,3.9,0.7c1.1,0.4,2,1.1,2.7,1.8c0.7,0.8,1.3,1.7,1.6,2.7c0.3,1,0.5,2.1,0.5,3.3
		c0,0.8-0.1,1.6-0.3,2.4c-0.2,0.8-0.5,1.5-0.9,2.2c-0.4,0.7-0.9,1.3-1.4,1.8c-0.6,0.6-1.3,1-2,1.4l5.1,7.1h-7.2l-4.4-6.3h-3.1v6.3
		h-6V62.5H137.1z M131.7,68v6.2h5.1c0.6,0,1.1-0.1,1.5-0.3c0.4-0.2,0.8-0.4,1-0.7c0.3-0.3,0.4-0.6,0.6-1s0.2-0.8,0.2-1.2
		c0-0.9-0.3-1.7-0.8-2.2c-0.5-0.6-1.4-0.9-2.6-0.9H131.7z"/>
	<path class="st3" d="M155.6,62.5h18v5.8h-12v3.4h9.8v5.4h-9.8v3h12v5.8h-18V62.5z"/>
	<path class="st3" d="M205.8,79.7c-0.5,1-1.2,1.9-1.9,2.7c-0.8,0.8-1.6,1.5-2.6,2.1s-2,1-3.1,1.4s-2.3,0.5-3.5,0.5
		c-1.7,0-3.3-0.3-4.8-1c-1.5-0.6-2.8-1.5-4-2.6c-1.1-1.1-2-2.4-2.7-3.9c-0.7-1.5-1-3-1-4.7c0-1.7,0.3-3.3,1-4.7
		c0.7-1.5,1.6-2.8,2.7-3.9c1.1-1.1,2.4-2,4-2.6c1.5-0.6,3.1-1,4.8-1c1.2,0,2.4,0.2,3.5,0.5c1.1,0.3,2.1,0.8,3.1,1.4s1.8,1.3,2.6,2.1
		s1.4,1.7,1.9,2.7l-5.5,2.5c-0.5-1-1.3-1.8-2.3-2.4c-1-0.6-2.1-0.9-3.3-0.9c-0.9,0-1.7,0.2-2.5,0.5c-0.8,0.3-1.4,0.8-2,1.4
		s-1,1.2-1.4,2c-0.3,0.8-0.5,1.6-0.5,2.5c0,0.9,0.2,1.7,0.5,2.5s0.8,1.5,1.4,2c0.6,0.6,1.3,1,2,1.3s1.6,0.5,2.5,0.5
		c1.3,0,2.4-0.3,3.4-0.9c1-0.6,1.7-1.4,2.2-2.4L205.8,79.7z"/>
	<path class="st3" d="M213.6,74.2c0-1.7,0.3-3.3,1-4.7c0.7-1.5,1.6-2.8,2.7-3.9c1.1-1.1,2.4-2,4-2.6c1.5-0.6,3.1-1,4.8-1
		c1.7,0,3.3,0.3,4.8,1c1.5,0.6,2.8,1.5,4,2.6c1.1,1.1,2,2.4,2.7,3.9c0.6,1.5,1,3,1,4.7c0,1.7-0.3,3.3-1,4.7
		c-0.7,1.5-1.5,2.8-2.7,3.9c-1.1,1.1-2.4,2-4,2.6s-3.1,1-4.8,1c-1.7,0-3.3-0.3-4.8-1c-1.5-0.6-2.8-1.5-4-2.6c-1.1-1.1-2-2.4-2.7-3.9
		C214,77.5,213.6,75.9,213.6,74.2z M219.7,74.2c0,0.9,0.2,1.7,0.5,2.5s0.8,1.5,1.4,2c0.6,0.6,1.3,1,2,1.3s1.6,0.5,2.5,0.5
		c0.9,0,1.7-0.2,2.5-0.5c0.8-0.3,1.4-0.8,2-1.3c0.6-0.6,1-1.2,1.4-2s0.5-1.6,0.5-2.5c0-0.9-0.2-1.7-0.5-2.5c-0.3-0.8-0.8-1.5-1.4-2
		s-1.2-1-2-1.4c-0.8-0.3-1.6-0.5-2.5-0.5c-0.9,0-1.7,0.2-2.5,0.5c-0.8,0.3-1.4,0.8-2,1.4s-1,1.2-1.4,2
		C219.9,72.5,219.7,73.3,219.7,74.2z"/>
	<path class="st3" d="M247.9,62.5h6v17.6h11.2v5.8h-17.2V62.5z"/>
	<path class="st3" d="M274.2,62.5h18v5.8h-12v3.4h9.8v5.4h-9.8v3h12v5.8h-18V62.5z"/>
	<path class="st3" d="M324.3,79.7c-0.5,1-1.2,1.9-1.9,2.7c-0.8,0.8-1.6,1.5-2.6,2.1s-2,1-3.1,1.4s-2.3,0.5-3.5,0.5
		c-1.7,0-3.3-0.3-4.8-1c-1.5-0.6-2.8-1.5-4-2.6c-1.1-1.1-2-2.4-2.7-3.9c-0.7-1.5-1-3-1-4.7c0-1.7,0.3-3.3,1-4.7
		c0.7-1.5,1.6-2.8,2.7-3.9c1.1-1.1,2.4-2,4-2.6c1.5-0.6,3.1-1,4.8-1c1.2,0,2.4,0.2,3.5,0.5c1.1,0.3,2.1,0.8,3.1,1.4s1.8,1.3,2.6,2.1
		s1.4,1.7,1.9,2.7l-5.5,2.5c-0.5-1-1.3-1.8-2.3-2.4c-1-0.6-2.1-0.9-3.3-0.9c-0.9,0-1.7,0.2-2.5,0.5c-0.8,0.3-1.4,0.8-2,1.4
		s-1,1.2-1.4,2c-0.3,0.8-0.5,1.6-0.5,2.5c0,0.9,0.2,1.7,0.5,2.5s0.8,1.5,1.4,2c0.6,0.6,1.3,1,2,1.3s1.6,0.5,2.5,0.5
		c1.3,0,2.4-0.3,3.4-0.9c1-0.6,1.7-1.4,2.2-2.4L324.3,79.7z"/>
	<path class="st3" d="M355.8,79.7c-0.5,1-1.2,1.9-1.9,2.7c-0.8,0.8-1.6,1.5-2.6,2.1s-2,1-3.1,1.4s-2.3,0.5-3.5,0.5
		c-1.7,0-3.3-0.3-4.8-1c-1.5-0.6-2.8-1.5-4-2.6c-1.1-1.1-2-2.4-2.7-3.9c-0.7-1.5-1-3-1-4.7c0-1.7,0.3-3.3,1-4.7
		c0.7-1.5,1.6-2.8,2.7-3.9c1.1-1.1,2.4-2,4-2.6c1.5-0.6,3.1-1,4.8-1c1.2,0,2.4,0.2,3.5,0.5c1.1,0.3,2.1,0.8,3.1,1.4s1.8,1.3,2.6,2.1
		s1.4,1.7,1.9,2.7l-5.5,2.5c-0.5-1-1.3-1.8-2.3-2.4c-1-0.6-2.1-0.9-3.3-0.9c-0.9,0-1.7,0.2-2.5,0.5c-0.8,0.3-1.4,0.8-2,1.4
		s-1,1.2-1.4,2c-0.3,0.8-0.5,1.6-0.5,2.5c0,0.9,0.2,1.7,0.5,2.5s0.8,1.5,1.4,2c0.6,0.6,1.3,1,2,1.3s1.6,0.5,2.5,0.5
		c1.3,0,2.4-0.3,3.4-0.9c1-0.6,1.7-1.4,2.2-2.4L355.8,79.7z"/>
	<path class="st3" d="M370.8,62.5v23.4h-6V62.5H370.8z"/>
	<path class="st3" d="M380.1,74.2c0-1.7,0.3-3.3,1-4.7c0.7-1.5,1.6-2.8,2.7-3.9c1.1-1.1,2.4-2,4-2.6c1.5-0.6,3.1-1,4.8-1
		c1.7,0,3.3,0.3,4.8,1c1.5,0.6,2.8,1.5,4,2.6c1.1,1.1,2,2.4,2.7,3.9c0.6,1.5,1,3,1,4.7c0,1.7-0.3,3.3-1,4.7
		c-0.7,1.5-1.5,2.8-2.7,3.9c-1.1,1.1-2.4,2-4,2.6c-1.5,0.6-3.1,1-4.8,1c-1.7,0-3.3-0.3-4.8-1c-1.5-0.6-2.8-1.5-4-2.6
		c-1.1-1.1-2-2.4-2.7-3.9C380.5,77.5,380.1,75.9,380.1,74.2z M386.2,74.2c0,0.9,0.2,1.7,0.5,2.5s0.8,1.5,1.4,2c0.6,0.6,1.3,1,2,1.3
		c0.8,0.3,1.6,0.5,2.5,0.5c0.9,0,1.7-0.2,2.5-0.5c0.8-0.3,1.4-0.8,2-1.3c0.6-0.6,1-1.2,1.4-2s0.5-1.6,0.5-2.5c0-0.9-0.2-1.7-0.5-2.5
		c-0.3-0.8-0.8-1.5-1.4-2c-0.6-0.6-1.2-1-2-1.4c-0.8-0.3-1.6-0.5-2.5-0.5c-0.9,0-1.7,0.2-2.5,0.5c-0.8,0.3-1.4,0.8-2,1.4
		s-1,1.2-1.4,2C386.4,72.5,386.2,73.3,386.2,74.2z M387.3,57.9l7.8-5.6l2.9,5l-8.7,4L387.3,57.9z"/>
	<path class="st3" d="M414.4,85.9V62.5h5.1l10.4,13.1V62.5h6v23.4h-5.1l-10.4-13v13H414.4z"/>
	<path class="st3" d="M461.7,62.5h10.9c1.8,0,3.4,0.3,4.8,0.9c1.4,0.6,2.5,1.5,3.5,2.5c0.9,1.1,1.6,2.3,2.1,3.7
		c0.5,1.4,0.7,2.9,0.7,4.5c0,1.6-0.2,3.1-0.7,4.5c-0.5,1.4-1.2,2.7-2.1,3.7c-0.9,1.1-2.1,1.9-3.5,2.5c-1.4,0.6-3,0.9-4.8,0.9h-10.9
		V62.5z M467.7,68.3v11.8h4.4c0.9,0,1.7-0.1,2.4-0.4s1.2-0.7,1.7-1.2c0.5-0.5,0.8-1.1,1-1.9c0.2-0.7,0.3-1.5,0.3-2.4
		c0-1.8-0.5-3.2-1.4-4.3s-2.3-1.6-4.1-1.6H467.7z"/>
	<path class="st3" d="M493.2,62.5h18v5.8h-12v3.4h9.8v5.4h-9.8v3h12v5.8h-18V62.5z"/>
	<path class="st3" d="M557.8,62.5v23.4h-6v-8.7h-9.5v8.7h-6V62.5h6v9.1h9.5v-9.1H557.8z"/>
	<path class="st3" d="M568.3,62.5h18v5.8h-12v3.4h9.8v5.4h-9.8v3h12v5.8h-18V62.5z"/>
	<path class="st3" d="M618.5,79.7c-0.5,1-1.2,1.9-1.9,2.7c-0.8,0.8-1.6,1.5-2.6,2.1s-2,1-3.1,1.4s-2.3,0.5-3.5,0.5
		c-1.7,0-3.3-0.3-4.8-1c-1.5-0.6-2.8-1.5-4-2.6c-1.1-1.1-2-2.4-2.7-3.9c-0.7-1.5-1-3-1-4.7c0-1.7,0.3-3.3,1-4.7s1.6-2.8,2.7-3.9
		c1.1-1.1,2.4-2,4-2.6c1.5-0.6,3.1-1,4.8-1c1.2,0,2.4,0.2,3.5,0.5c1.1,0.3,2.1,0.8,3.1,1.4s1.8,1.3,2.6,2.1s1.4,1.7,1.9,2.7
		l-5.5,2.5c-0.5-1-1.3-1.8-2.3-2.4c-1-0.6-2.1-0.9-3.3-0.9c-0.9,0-1.7,0.2-2.5,0.5c-0.8,0.3-1.4,0.8-2,1.4c-0.6,0.6-1,1.2-1.4,2
		c-0.3,0.8-0.5,1.6-0.5,2.5c0,0.9,0.2,1.7,0.5,2.5s0.8,1.5,1.4,2c0.6,0.6,1.3,1,2,1.3s1.6,0.5,2.5,0.5c1.3,0,2.4-0.3,3.4-0.9
		s1.7-1.4,2.2-2.4L618.5,79.7z"/>
	<path class="st3" d="M627.5,62.5h18v5.8h-12v3.4h9.8v5.4h-9.8v3h12v5.8h-18V62.5z"/>
	<path class="st3" d="M660.2,78.9v0.1c0,0.2,0.1,0.5,0.2,0.7s0.4,0.5,0.7,0.7s0.7,0.4,1.2,0.5c0.5,0.1,1.1,0.2,1.8,0.2
		c1.1,0,1.9-0.2,2.3-0.5c0.4-0.3,0.6-0.6,0.6-1c0-0.5-0.3-0.9-0.9-1.3c-0.6-0.4-1.6-0.8-3.1-1.3c-0.9-0.3-1.9-0.7-2.9-1.1
		c-1-0.4-1.9-0.9-2.8-1.5c-0.8-0.6-1.5-1.3-2.1-2.2c-0.6-0.9-0.8-1.9-0.8-3.1c0-1.1,0.2-2.1,0.7-3c0.5-0.9,1.1-1.6,1.9-2.3
		c0.8-0.6,1.8-1.1,2.9-1.5s2.3-0.5,3.7-0.5c1.4,0,2.6,0.2,3.8,0.5c1.2,0.4,2.2,0.9,3,1.5c0.8,0.7,1.5,1.5,2,2.4
		c0.5,0.9,0.7,2,0.7,3.1V70h-5.8v-0.2c0-0.3-0.1-0.6-0.2-0.9c-0.2-0.3-0.4-0.6-0.7-0.8c-0.3-0.2-0.7-0.4-1.1-0.6
		c-0.4-0.2-1-0.2-1.6-0.2c-1,0-1.8,0.2-2.2,0.5c-0.4,0.3-0.7,0.7-0.7,1.1c0,0.5,0.3,0.9,0.9,1.2c0.6,0.3,1.6,0.7,3,1.2
		c0.8,0.3,1.7,0.6,2.7,1c1,0.4,2,0.9,2.9,1.6c0.9,0.6,1.6,1.4,2.2,2.3s0.9,2,0.9,3.3c0,1.1-0.2,2.1-0.7,3s-1.1,1.6-1.9,2.2
		c-0.8,0.6-1.8,1-2.9,1.3s-2.4,0.5-3.7,0.5c-1.4,0-2.7-0.2-3.9-0.5c-1.2-0.3-2.3-0.8-3.1-1.4c-0.9-0.6-1.6-1.4-2.1-2.3
		c-0.5-0.9-0.8-1.9-0.8-3.1v-0.3H660.2z"/>
</g>
<rect x="123" y="105.8" class="st1" width="529.7" height="40.4"/>
<g class="st2">
	<path class="st3" d="M134.1,114.5c0,2.8-1.3,5.2-4.8,5.2s-4.8-2.4-4.8-5.2v-7.9h1.5v7.7c0,2.1,0.8,4,3.3,4s3.3-1.9,3.3-4v-7.7h1.5
		V114.5z"/>
	<path class="st3" d="M141.6,112.1h-2.5v4.2c0,1.1,0,1.9,1.3,1.9c0.4,0,0.9-0.1,1.2-0.3l0.1,1.3c-0.5,0.2-1.1,0.3-1.6,0.3
		c-2,0-2.3-1.1-2.3-2.8v-4.6h-1.8v-1.2h1.8v-2.4h1.4v2.4h2.5V112.1z"/>
	<path class="st3" d="M144.2,106.6c0.6,0,1,0.5,1,1c0,0.6-0.4,1-1,1s-1-0.4-1-1C143.1,107.1,143.6,106.6,144.2,106.6z M143.5,110.9
		h1.4v8.4h-1.4V110.9z"/>
	<path class="st3" d="M147.8,105.7h1.4v13.6h-1.4V105.7z"/>
	<path class="st3" d="M152.8,106.6c0.6,0,1,0.5,1,1c0,0.6-0.4,1-1,1s-1-0.4-1-1C151.8,107.1,152.2,106.6,152.8,106.6z M152.1,110.9
		h1.4v8.4h-1.4V110.9z"/>
	<path class="st3" d="M155.5,118.3l5-6.1h-4.7v-1.2h6.6v1.1l-5,6.2h5.1v1.2h-6.9V118.3z"/>
	<path class="st3" d="M164.2,112c0.9-0.9,2.1-1.3,3.3-1.3c2.5,0,3.5,1.2,3.5,3.6v3.6c0,0.5,0.1,1,0.1,1.5h-1.4
		c-0.1-0.4-0.1-0.9-0.1-1.3h0c-0.6,0.9-1.5,1.5-2.8,1.5c-1.7,0-3.1-0.9-3.1-2.5c0-2.8,3.2-3,5.3-3h0.5v-0.3c0-1.2-0.8-1.9-2.1-1.9
		c-0.9,0-1.8,0.3-2.5,0.9L164.2,112z M168.2,115.3c-1.8,0-2.9,0.5-2.9,1.6c0,1.1,0.8,1.5,1.9,1.5c1.6,0,2.4-1.2,2.5-2.5v-0.5H168.2z
		"/>
	<path class="st3" d="M178.6,105.7h1.4v6.4h0c0.8-0.9,1.8-1.4,3-1.4c2.6,0,4.4,1.9,4.4,4.4c0,2.5-1.9,4.4-4.2,4.4
		c-1.5,0-2.7-0.8-3.2-1.7h0v1.5h-1.4V105.7z M182.9,118.3c1.8,0,3-1.4,3-3.1c0-1.8-1.2-3.1-3-3.1c-1.8,0-3,1.4-3,3.1
		C180,116.9,181.1,118.3,182.9,118.3z"/>
	<path class="st3" d="M193.6,110.7c2.6,0,4.5,1.8,4.5,4.4s-1.9,4.4-4.5,4.4s-4.5-1.8-4.5-4.4S191,110.7,193.6,110.7z M193.6,118.3
		c1.8,0,3-1.4,3-3.1c0-1.8-1.2-3.1-3-3.1s-3,1.4-3,3.1C190.7,116.9,191.8,118.3,193.6,118.3z"/>
	<path class="st3" d="M200.4,105.7h1.4v13.6h-1.4V105.7z"/>
	<path class="st3" d="M204.8,117.1c0.6,0.7,1.2,1.1,2.2,1.1c0.9,0,1.9-0.4,1.9-1.3c0-0.9-0.9-1.1-1.8-1.3c-1.6-0.4-3-0.7-3-2.4
		c0-1.6,1.6-2.5,3.2-2.5c1.2,0,2.3,0.5,2.9,1.5l-1.2,0.8c-0.4-0.6-1-1-1.8-1c-0.8,0-1.7,0.4-1.7,1.2c0,0.7,1,1,2.1,1.2
		c1.5,0.3,2.8,0.8,2.8,2.5c0,1.9-1.7,2.6-3.4,2.6c-1.4,0-2.4-0.4-3.3-1.6L204.8,117.1z"/>
	<path class="st3" d="M212.2,112c0.9-0.9,2.1-1.3,3.3-1.3c2.5,0,3.5,1.2,3.5,3.6v3.6c0,0.5,0.1,1,0.1,1.5h-1.4
		c-0.1-0.4-0.1-0.9-0.1-1.3h0c-0.6,0.9-1.5,1.5-2.8,1.5c-1.7,0-3.1-0.9-3.1-2.5c0-2.8,3.2-3,5.3-3h0.5v-0.3c0-1.2-0.8-1.9-2.1-1.9
		c-0.9,0-1.8,0.3-2.5,0.9L212.2,112z M216.3,115.3c-1.8,0-2.9,0.5-2.9,1.6c0,1.1,0.8,1.5,1.9,1.5c1.6,0,2.4-1.2,2.5-2.5v-0.5H216.3z
		"/>
	<path class="st3" d="M221.8,117.1c0.6,0.7,1.2,1.1,2.2,1.1c0.9,0,1.9-0.4,1.9-1.3c0-0.9-0.9-1.1-1.8-1.3c-1.6-0.4-3-0.7-3-2.4
		c0-1.6,1.6-2.5,3.2-2.5c1.2,0,2.3,0.5,2.9,1.5l-1.2,0.8c-0.4-0.6-1-1-1.8-1c-0.8,0-1.7,0.4-1.7,1.2c0,0.7,1,1,2.1,1.2
		c1.5,0.3,2.8,0.8,2.8,2.5c0,1.9-1.7,2.6-3.4,2.6c-1.4,0-2.4-0.4-3.3-1.6L221.8,117.1z"/>
	<path class="st3" d="M242.7,123.5h-1.4v-5.3h0c-0.8,0.9-1.8,1.4-3,1.4c-2.6,0-4.4-1.9-4.4-4.4c0-2.5,1.9-4.4,4.2-4.4
		c1.5,0,2.7,0.8,3.2,1.7h0v-1.5h1.4V123.5z M238.3,112c-1.8,0-3,1.4-3,3.1c0,1.8,1.2,3.1,3,3.1s3-1.4,3-3.1
		C241.3,113.4,240.2,112,238.3,112z"/>
	<path class="st3" d="M252.7,117.4c0,0.8,0.1,1.4,0.1,2h-1.3c0-0.5,0-0.9,0-1.4h0c-0.4,0.8-1.4,1.6-2.8,1.6c-2.2,0-3.2-1.4-3.2-3.4
		v-5.2h1.4v5.1c0,1.4,0.6,2.3,1.9,2.3c1.8,0,2.6-1.3,2.6-3.2v-4.1h1.4V117.4z"/>
	<path class="st3" d="M262.8,117.8c-1,1.3-2.2,1.7-3.7,1.7c-2.6,0-4.3-2-4.3-4.4c0-2.6,1.8-4.4,4.3-4.4c2.4,0,4,1.6,4,4.4v0.5h-6.8
		c0.1,1.5,1.2,2.7,2.8,2.7c1.2,0,2-0.4,2.7-1.3L262.8,117.8z M261.6,114.4c-0.1-1.4-1-2.4-2.5-2.4c-1.5,0-2.6,1-2.8,2.4H261.6z"/>
	<path class="st3" d="M270.5,117.1c0.6,0.7,1.2,1.1,2.2,1.1c0.9,0,1.9-0.4,1.9-1.3c0-0.9-0.9-1.1-1.8-1.3c-1.6-0.4-3-0.7-3-2.4
		c0-1.6,1.6-2.5,3.2-2.5c1.2,0,2.3,0.5,2.9,1.5l-1.2,0.8c-0.4-0.6-1-1-1.8-1c-0.8,0-1.7,0.4-1.7,1.2c0,0.7,1,1,2.1,1.2
		c1.5,0.3,2.8,0.8,2.8,2.5c0,1.9-1.7,2.6-3.4,2.6c-1.4,0-2.4-0.4-3.3-1.6L270.5,117.1z"/>
	<path class="st3" d="M285.5,117.8c-1,1.3-2.2,1.7-3.7,1.7c-2.6,0-4.3-2-4.3-4.4c0-2.6,1.8-4.4,4.3-4.4c2.4,0,4,1.6,4,4.4v0.5H279
		c0.1,1.5,1.2,2.7,2.8,2.7c1.2,0,2-0.4,2.7-1.3L285.5,117.8z M284.3,114.4c-0.1-1.4-1-2.4-2.5-2.4c-1.5,0-2.6,1-2.8,2.4H284.3z"/>
	<path class="st3" d="M300,117.9L300,117.9c-0.6,1-1.8,1.7-3.3,1.7c-2.4,0-4.2-1.9-4.2-4.4c0-2.6,1.8-4.4,4.4-4.4
		c1.2,0,2.3,0.5,3,1.4h0v-6.4h1.4v13.6H300V117.9z M297,112c-1.8,0-3,1.4-3,3.1c0,1.8,1.2,3.1,3,3.1c1.8,0,3-1.4,3-3.1
		C300,113.4,298.8,112,297,112z"/>
	<path class="st3" d="M311.5,117.8c-1,1.3-2.2,1.7-3.7,1.7c-2.6,0-4.3-2-4.3-4.4c0-2.6,1.8-4.4,4.3-4.4c2.4,0,4,1.6,4,4.4v0.5H305
		c0.1,1.5,1.2,2.7,2.8,2.7c1.2,0,2-0.4,2.7-1.3L311.5,117.8z M310.3,114.4c-0.1-1.4-1-2.4-2.5-2.4c-1.5,0-2.6,1-2.8,2.4H310.3z"/>
	<path class="st3" d="M314,112.9c0-0.8-0.1-1.4-0.1-2h1.3c0,0.5,0,0.9,0,1.4h0c0.4-0.8,1.4-1.6,2.8-1.6c1.8,0,2.4,1,2.7,1.6
		c0.6-1,1.4-1.6,2.7-1.6c2.4,0,3.2,1.4,3.2,3.5v5.1h-1.4v-5c0-1.2-0.4-2.3-2.1-2.3c-1.2,0-2.2,1-2.2,2.5v4.9h-1.4v-4.8
		c0-1.9-0.5-2.6-1.6-2.6c-1.8,0-2.6,1.3-2.6,3.2v4.1H314V112.9z"/>
	<path class="st3" d="M333.4,110.7c2.6,0,4.5,1.8,4.5,4.4s-1.9,4.4-4.5,4.4s-4.5-1.8-4.5-4.4S330.8,110.7,333.4,110.7z M333.4,118.3
		c1.8,0,3-1.4,3-3.1c0-1.8-1.2-3.1-3-3.1c-1.8,0-3,1.4-3,3.1C330.4,116.9,331.6,118.3,333.4,118.3z"/>
	<path class="st3" d="M340,112.9c0-0.8-0.1-1.4-0.1-2h1.3c0,0.5,0,0.9,0,1.4h0c0.4-0.8,1.4-1.6,2.8-1.6c0.2,0,0.4,0,0.6,0.1
		l-0.1,1.4c-0.2-0.1-0.5-0.1-0.8-0.1c-1.7,0-2.5,1.2-2.5,3.1v4.1H340V112.9z"/>
	<path class="st3" d="M353.6,117.8c-1,1.3-2.2,1.7-3.7,1.7c-2.6,0-4.3-2-4.3-4.4c0-2.6,1.8-4.4,4.3-4.4c2.4,0,4,1.6,4,4.4v0.5h-6.8
		c0.1,1.5,1.2,2.7,2.8,2.7c1.2,0,2-0.4,2.7-1.3L353.6,117.8z M352.4,114.4c-0.1-1.4-1-2.4-2.5-2.4c-1.5,0-2.6,1-2.8,2.4H352.4z"/>
	<path class="st3" d="M356.1,112.9c0-0.8-0.1-1.4-0.1-2h1.3c0,0.5,0,0.9,0,1.4h0c0.4-0.8,1.4-1.6,2.8-1.6c2.2,0,3.2,1.4,3.2,3.4v5.2
		H362v-5.1c0-1.4-0.6-2.3-1.9-2.3c-1.8,0-2.6,1.3-2.6,3.2v4.1h-1.4V112.9z"/>
	<path class="st3" d="M371.1,112.9c0-0.8-0.1-1.4-0.1-2h1.3c0,0.5,0,0.9,0,1.4h0c0.4-0.8,1.4-1.6,2.8-1.6c1.8,0,2.4,1,2.7,1.6
		c0.6-1,1.4-1.6,2.7-1.6c2.4,0,3.2,1.4,3.2,3.5v5.1h-1.4v-5c0-1.2-0.4-2.3-2.1-2.3c-1.2,0-2.2,1-2.2,2.5v4.9h-1.4v-4.8
		c0-1.9-0.5-2.6-1.6-2.6c-1.8,0-2.6,1.3-2.6,3.2v4.1h-1.4V112.9z"/>
	<path class="st3" d="M393.9,117.8c-1,1.3-2.2,1.7-3.7,1.7c-2.6,0-4.3-2-4.3-4.4c0-2.6,1.8-4.4,4.3-4.4c2.4,0,4,1.6,4,4.4v0.5h-6.8
		c0.1,1.5,1.2,2.7,2.8,2.7c1.2,0,2-0.4,2.7-1.3L393.9,117.8z M392.7,114.4c-0.1-1.4-1-2.4-2.5-2.4c-1.5,0-2.6,1-2.8,2.4H392.7z"/>
	<path class="st3" d="M396.4,112.9c0-0.8-0.1-1.4-0.1-2h1.3c0,0.5,0,0.9,0,1.4h0c0.4-0.8,1.4-1.6,2.8-1.6c2.2,0,3.2,1.4,3.2,3.4v5.2
		h-1.4v-5.1c0-1.4-0.6-2.3-1.9-2.3c-1.8,0-2.6,1.3-2.6,3.2v4.1h-1.4V112.9z"/>
	<path class="st3" d="M410.4,110.7c2.6,0,4.5,1.8,4.5,4.4s-1.9,4.4-4.5,4.4s-4.5-1.8-4.5-4.4S407.9,110.7,410.4,110.7z M410.4,118.3
		c1.8,0,3-1.4,3-3.1c0-1.8-1.2-3.1-3-3.1s-3,1.4-3,3.1C407.5,116.9,408.6,118.3,410.4,118.3z"/>
	<path class="st3" d="M417.3,117.1c0.6,0.7,1.2,1.1,2.2,1.1c0.9,0,1.9-0.4,1.9-1.3c0-0.9-0.9-1.1-1.8-1.3c-1.6-0.4-3-0.7-3-2.4
		c0-1.6,1.6-2.5,3.2-2.5c1.2,0,2.3,0.5,2.9,1.5l-1.2,0.8c-0.4-0.6-1-1-1.8-1c-0.8,0-1.7,0.4-1.7,1.2c0,0.7,1,1,2.1,1.2
		c1.5,0.3,2.8,0.8,2.8,2.5c0,1.9-1.7,2.6-3.4,2.6c-1.4,0-2.4-0.4-3.3-1.6L417.3,117.1z"/>
	<path class="st3" d="M434.4,112.1h-2.5v4.2c0,1.1,0,1.9,1.3,1.9c0.4,0,0.9-0.1,1.2-0.3l0.1,1.3c-0.5,0.2-1.1,0.3-1.6,0.3
		c-2,0-2.3-1.1-2.3-2.8v-4.6h-1.8v-1.2h1.8v-2.4h1.4v2.4h2.5V112.1z"/>
	<path class="st3" d="M437,106.6c0.6,0,1,0.5,1,1c0,0.6-0.4,1-1,1c-0.6,0-1-0.4-1-1C435.9,107.1,436.4,106.6,437,106.6z
		 M436.3,110.9h1.4v8.4h-1.4V110.9z"/>
	<path class="st3" d="M448,117.8c-1,1.3-2.2,1.7-3.7,1.7c-2.6,0-4.3-2-4.3-4.4c0-2.6,1.8-4.4,4.3-4.4c2.4,0,4,1.6,4,4.4v0.5h-6.8
		c0.1,1.5,1.2,2.7,2.8,2.7c1.2,0,2-0.4,2.7-1.3L448,117.8z M446.8,114.4c-0.1-1.4-1-2.4-2.5-2.4s-2.6,1-2.8,2.4H446.8z"/>
	<path class="st3" d="M450.5,112.9c0-0.8-0.1-1.4-0.1-2h1.3c0,0.5,0,0.9,0,1.4h0c0.4-0.8,1.4-1.6,2.8-1.6c1.8,0,2.4,1,2.7,1.6
		c0.6-1,1.4-1.6,2.7-1.6c2.4,0,3.2,1.4,3.2,3.5v5.1h-1.4v-5c0-1.2-0.4-2.3-2.1-2.3c-1.2,0-2.2,1-2.2,2.5v4.9h-1.4v-4.8
		c0-1.9-0.5-2.6-1.6-2.6c-1.8,0-2.6,1.3-2.6,3.2v4.1h-1.4V112.9z"/>
	<path class="st3" d="M465.7,110.9h1.4v1.2h0c0.8-0.9,1.8-1.4,3-1.4c2.6,0,4.4,1.9,4.4,4.4c0,2.5-1.9,4.4-4.2,4.4
		c-1.5,0-2.7-0.8-3.2-1.7h0v5.6h-1.4V110.9z M470.1,118.3c1.8,0,3-1.4,3-3.1c0-1.8-1.2-3.1-3-3.1s-3,1.4-3,3.1
		C467.1,116.9,468.3,118.3,470.1,118.3z"/>
	<path class="st3" d="M480.8,110.7c2.6,0,4.5,1.8,4.5,4.4s-1.9,4.4-4.5,4.4s-4.5-1.8-4.5-4.4S478.2,110.7,480.8,110.7z M480.8,118.3
		c1.8,0,3-1.4,3-3.1c0-1.8-1.2-3.1-3-3.1s-3,1.4-3,3.1C477.8,116.9,479,118.3,480.8,118.3z"/>
	<path class="st3" d="M492.4,112c0.9-0.9,2.1-1.3,3.3-1.3c2.5,0,3.5,1.2,3.5,3.6v3.6c0,0.5,0.1,1,0.1,1.5H498
		c-0.1-0.4-0.1-0.9-0.1-1.3h0c-0.6,0.9-1.5,1.5-2.8,1.5c-1.7,0-3.1-0.9-3.1-2.5c0-2.8,3.2-3,5.3-3h0.5v-0.3c0-1.2-0.8-1.9-2.1-1.9
		c-0.9,0-1.8,0.3-2.5,0.9L492.4,112z M496.5,115.3c-1.8,0-2.9,0.5-2.9,1.6c0,1.1,0.8,1.5,1.9,1.5c1.6,0,2.4-1.2,2.5-2.5v-0.5H496.5z
		"/>
	<path class="st3" d="M502,105.7h1.4v13.6H502V105.7z"/>
	<path class="st3" d="M518.2,117.9L518.2,117.9c-0.6,1-1.8,1.7-3.3,1.7c-2.4,0-4.2-1.9-4.2-4.4c0-2.6,1.8-4.4,4.4-4.4
		c1.2,0,2.3,0.5,3,1.4h0v-6.4h1.4v13.6h-1.4V117.9z M515.2,112c-1.8,0-3,1.4-3,3.1c0,1.8,1.2,3.1,3,3.1s3-1.4,3-3.1
		C518.2,113.4,517,112,515.2,112z"/>
	<path class="st3" d="M529.7,117.8c-1,1.3-2.2,1.7-3.7,1.7c-2.6,0-4.3-2-4.3-4.4c0-2.6,1.8-4.4,4.3-4.4c2.4,0,4,1.6,4,4.4v0.5h-6.8
		c0.1,1.5,1.2,2.7,2.8,2.7c1.2,0,2-0.4,2.7-1.3L529.7,117.8z M528.5,114.4c-0.1-1.4-1-2.4-2.5-2.4c-1.5,0-2.6,1-2.8,2.4H528.5z"/>
	<path class="st3" d="M540.6,119c0,3-1.6,4.7-4.6,4.7c-1.6,0-3-0.4-4.1-1.6l1-1.2c0.9,1,1.8,1.5,3.1,1.5c2.5,0,3.2-1.6,3.2-3.4v-1.1
		h0c-0.7,1.1-1.9,1.6-3,1.6c-2.6,0-4.5-1.8-4.5-4.3c0-2.8,1.8-4.4,4.5-4.4c1.1,0,2.4,0.5,3,1.7h0v-1.4h1.4V119z M536.2,118.2
		c1.9,0,3-1.4,3-3.1c0-1.8-1.2-3.1-3-3.1c-1.8,0-3,1.4-3,3.1C533.2,116.9,534.5,118.2,536.2,118.2z"/>
	<path class="st3" d="M543.2,112.9c0-0.8-0.1-1.4-0.1-2h1.3c0,0.5,0,0.9,0,1.4h0c0.4-0.8,1.4-1.6,2.8-1.6c0.2,0,0.4,0,0.6,0.1
		l-0.1,1.4c-0.2-0.1-0.5-0.1-0.8-0.1c-1.7,0-2.5,1.2-2.5,3.1v4.1h-1.4V112.9z"/>
	<path class="st3" d="M549.4,112c0.9-0.9,2.1-1.3,3.3-1.3c2.5,0,3.5,1.2,3.5,3.6v3.6c0,0.5,0.1,1,0.1,1.5H555
		c-0.1-0.4-0.1-0.9-0.1-1.3h0c-0.6,0.9-1.5,1.5-2.8,1.5c-1.7,0-3.1-0.9-3.1-2.5c0-2.8,3.2-3,5.3-3h0.5v-0.3c0-1.2-0.8-1.9-2.1-1.9
		c-0.9,0-1.8,0.3-2.5,0.9L549.4,112z M553.5,115.3c-1.8,0-2.9,0.5-2.9,1.6c0,1.1,0.8,1.5,1.9,1.5c1.6,0,2.4-1.2,2.5-2.5v-0.5H553.5z
		"/>
	<path class="st3" d="M565.8,117.9L565.8,117.9c-0.6,1-1.8,1.7-3.3,1.7c-2.4,0-4.2-1.9-4.2-4.4c0-2.6,1.8-4.4,4.4-4.4
		c1.2,0,2.3,0.5,3,1.4h0v-6.4h1.4v13.6h-1.4V117.9z M562.9,112c-1.8,0-3,1.4-3,3.1c0,1.8,1.2,3.1,3,3.1s3-1.4,3-3.1
		C565.8,113.4,564.7,112,562.9,112z"/>
	<path class="st3" d="M569.7,112c0.9-0.9,2.1-1.3,3.3-1.3c2.5,0,3.5,1.2,3.5,3.6v3.6c0,0.5,0.1,1,0.1,1.5h-1.4
		c-0.1-0.4-0.1-0.9-0.1-1.3h0c-0.6,0.9-1.5,1.5-2.8,1.5c-1.7,0-3.1-0.9-3.1-2.5c0-2.8,3.2-3,5.3-3h0.5v-0.3c0-1.2-0.8-1.9-2.1-1.9
		c-0.9,0-1.8,0.3-2.5,0.9L569.7,112z M573.8,115.3c-1.8,0-2.9,0.5-2.9,1.6c0,1.1,0.8,1.5,1.9,1.5c1.6,0,2.4-1.2,2.5-2.5v-0.5H573.8z
		"/>
	<path class="st3" d="M579.2,112.9c0-0.8-0.1-1.4-0.1-2h1.3c0,0.5,0,0.9,0,1.4h0c0.4-0.8,1.4-1.6,2.8-1.6c0.2,0,0.4,0,0.6,0.1
		l-0.1,1.4c-0.2-0.1-0.5-0.1-0.8-0.1c-1.7,0-2.5,1.2-2.5,3.1v4.1h-1.4V112.9z"/>
	<path class="st3" d="M585.7,117.1c0.6,0.7,1.2,1.1,2.2,1.1c0.9,0,1.9-0.4,1.9-1.3c0-0.9-0.9-1.1-1.8-1.3c-1.6-0.4-3-0.7-3-2.4
		c0-1.6,1.6-2.5,3.2-2.5c1.2,0,2.3,0.5,2.9,1.5l-1.2,0.8c-0.4-0.6-1-1-1.8-1c-0.8,0-1.7,0.4-1.7,1.2c0,0.7,1,1,2.1,1.2
		c1.5,0.3,2.8,0.8,2.8,2.5c0,1.9-1.7,2.6-3.4,2.6c-1.4,0-2.4-0.4-3.3-1.6L585.7,117.1z"/>
	<path class="st3" d="M600.7,117.8c-1,1.3-2.2,1.7-3.7,1.7c-2.6,0-4.3-2-4.3-4.4c0-2.6,1.8-4.4,4.3-4.4c2.4,0,4,1.6,4,4.4v0.5h-6.8
		c0.1,1.5,1.2,2.7,2.8,2.7c1.2,0,2-0.4,2.7-1.3L600.7,117.8z M599.5,114.4c-0.1-1.4-1-2.4-2.5-2.4c-1.5,0-2.6,1-2.8,2.4H599.5z"/>
	<path class="st3" d="M605.4,111.8c0,0.6-0.5,1.1-1.1,1.1c-0.6,0-1.1-0.5-1.1-1.1c0-0.6,0.5-1.1,1.1-1.1
		C605,110.7,605.4,111.2,605.4,111.8z M605.4,118.4c0,0.6-0.5,1.1-1.1,1.1c-0.6,0-1.1-0.5-1.1-1.1c0-0.6,0.5-1.1,1.1-1.1
		C605,117.3,605.4,117.8,605.4,118.4z"/>
</g>
<path class="st4" d="M519.7,301.8H240.5c-35.8,0-64.8-29-64.8-64.8v-30.6c0-35.8,29-64.8,64.8-64.8h279.2c35.8,0,64.8,29,64.8,64.8
	V237C584.5,272.8,555.5,301.8,519.7,301.8z"/>
<path class="st5" d="M218.5,163.4v77.4c0,3.5,2.9,6.4,6.4,6.4h52.8c3.5,0,6.4-2.9,6.4-6.4v-77.1c0-3.6-2.9-6.5-6.5-6.4l0,0
	c-3.5,0-6.4,2.9-6.4,6.5v8.5c0,4.6-4.6,7.7-8.8,6l-3.3-1.3c-0.7-0.3-1.5-0.5-2.3-0.5l-10.8-0.1c-1,0-1.9,0.2-2.8,0.6l-0.9,0.4
	c-4.3,2-9.2-1.1-9.2-5.8v-8.3c0-3.5-2.9-6.4-6.4-6.4c-0.6,0-1.2,0-1.8,0C221.4,157,218.5,159.9,218.5,163.4z"/>
<g>
	<path class="st6" d="M349.7,162.1v77.4c0,3.5,2.9,6.4,6.4,6.4h52.8c3.5,0,6.4-2.9,6.4-6.4v-77.1c0-3.6-2.9-6.5-6.5-6.4l0,0
		c-3.5,0-6.4,2.9-6.4,6.5v8.5c0,4.6-4.6,7.7-8.8,6l-3.3-1.3c-0.7-0.3-1.5-0.5-2.3-0.5l-10.8-0.1c-1,0-1.9,0.2-2.8,0.6l-0.9,0.4
		c-4.3,2-9.2-1.1-9.2-5.8V162c0-3.5-2.9-6.4-6.4-6.4c-0.6,0-1.2,0-1.8,0C352.6,155.6,349.7,158.5,349.7,162.1z"/>
	<g>
		<g>
			<path class="st7" d="M365.2,210c0.4-7.2,5.2-13.3,11.7-15.7"/>
			<g>
				<polygon class="st5" points="376.1,200.9 385.5,193.5 374.3,189.1 				"/>
			</g>
		</g>
	</g>
	<g>
		<g>
			<path class="st7" d="M392.7,226.2c-2.8,1.8-6.1,2.8-9.6,2.8c-5.8,0-10.9-2.8-14.2-7"/>
			<g>
				<polygon class="st5" points="375.3,220.8 365.4,214 364.5,225.9 				"/>
			</g>
		</g>
	</g>
	<g>
		<g>
			<path class="st7" d="M389.5,194.5c6.6,2.6,11.4,9.1,11.4,16.6c0,1.8-0.3,3.6-0.8,5.2"/>
			<g>
				<polygon class="st5" points="395.4,211.8 395.6,223.8 405.9,217.6 				"/>
			</g>
		</g>
	</g>
</g>
<path class="st8" d="M519.6,301.4L519.6,301.4c-35.8,0-64.8-29-64.8-64.8v-30.7c0-35.8,29-64.8,64.8-64.8l0,0
	c35.8,0,64.8,29,64.8,64.8v30.7C584.5,272.4,555.5,301.4,519.6,301.4z"/>
<g>
	<g>
		<path class="st9" d="M556.9,168.5l-8.6,70.5c-0.4,3.3-3.4,5.7-6.8,5.3l-47.8-5.8c-3.3-0.4-5.7-3.4-5.3-6.8l8.6-70.5
			c0.4-3.1,3-5.4,6.1-5.3l1.6,1.5l2.3-1.1h0.2l1.9,1.5l2.1-1l1.8,1.4l2.3-0.9l1.9,1.4l2.3-0.9l2.1,1.5l2.1-1l1.8,1.6l2.1-1.1h0.1
			l1.7,1.5l1.8-1l1.6,1.4l2.1-1h0.1l1.7,1.4l2.2-0.9h0.1l1.8,1.5l2.1-1.1l2,1.6l2.2-1.1h0.1l1.8,1.7l1.8-1.3l0.8,0.1
			C554.9,162.1,557.3,165.2,556.9,168.5z"/>
		<path class="st10" d="M552.6,170.8l-8.6,70.5c-0.4,3.3-3.4,5.7-6.8,5.3l-47.8-5.8c-3.3-0.4-5.7-3.4-5.3-6.8l8.6-70.5
			c0.4-3.3,3.4-5.7,6.8-5.3l47.8,5.8C550.6,164.4,553,167.4,552.6,170.8z"/>
	</g>
	<path class="st9" d="M544.5,236.5l-0.6,4.8c-0.4,3.3-3.4,5.7-6.8,5.3l-47.8-5.8c-3.3-0.4-5.7-3.4-5.3-6.8l0.6-4.8L544.5,236.5z"/>
</g>
<rect x="212.1" y="254.3" class="st1" width="79.1" height="42.4"/>
<g class="st2">
	<path class="st11" d="M225.8,255.1h3.4c2.1,0,4,0.7,4,3.1c0,2.5-2.1,3.1-3.7,3.1h-2.3v5.1h-1.3V255.1z M227.1,260.1h2.3
		c1.3,0,2.3-0.6,2.3-1.9s-0.9-1.9-2.3-1.9h-2.3V260.1z"/>
	<path class="st11" d="M235.2,254.3h1.2v12.1h-1.2V254.3z"/>
	<path class="st11" d="M238.8,259.9c0.8-0.8,1.9-1.2,3-1.2c2.2,0,3.1,1.1,3.1,3.2v3.2c0,0.4,0,0.9,0.1,1.3h-1.2
		c-0.1-0.3-0.1-0.8-0.1-1.1h0c-0.5,0.8-1.3,1.3-2.5,1.3c-1.5,0-2.8-0.8-2.8-2.2c0-2.5,2.9-2.6,4.7-2.6h0.5v-0.2
		c0-1.1-0.7-1.6-1.9-1.6c-0.8,0-1.6,0.3-2.2,0.8L238.8,259.9z M242.4,262.8c-1.6,0-2.6,0.4-2.6,1.4c0,0.9,0.7,1.3,1.6,1.3
		c1.4,0,2.2-1,2.2-2.3v-0.5H242.4z M242.4,254.8h1.8l-2.3,2.3h-1.1L242.4,254.8z"/>
	<path class="st11" d="M247.4,264.5c0.5,0.6,1,1,1.9,1c0.8,0,1.6-0.3,1.6-1.2c0-0.8-0.8-1-1.6-1.2c-1.4-0.3-2.6-0.6-2.6-2.2
		c0-1.5,1.4-2.2,2.8-2.2c1.1,0,2,0.4,2.5,1.4l-1,0.7c-0.3-0.5-0.8-0.9-1.6-0.9c-0.7,0-1.5,0.3-1.5,1c0,0.6,0.9,0.9,1.9,1.1
		c1.3,0.3,2.4,0.7,2.4,2.2c0,1.7-1.5,2.4-3,2.4c-1.3,0-2.2-0.3-2.9-1.4L247.4,264.5z"/>
	<path class="st11" d="M258.1,260h-2.2v3.7c0,1,0,1.7,1.1,1.7c0.4,0,0.8-0.1,1.1-0.3l0,1.1c-0.4,0.2-1,0.3-1.5,0.3
		c-1.8,0-2.1-1-2.1-2.5V260H253v-1.1h1.6v-2.1h1.2v2.1h2.2V260z"/>
	<path class="st11" d="M260.4,255.1c0.5,0,0.9,0.4,0.9,0.9c0,0.5-0.4,0.9-0.9,0.9s-0.9-0.4-0.9-0.9
		C259.5,255.5,259.9,255.1,260.4,255.1z M259.8,258.9h1.2v7.5h-1.2V258.9z"/>
	<path class="st11" d="M268.8,260.8c-0.5-0.6-1.1-0.9-1.9-0.9c-1.7,0-2.5,1.2-2.5,2.8c0,1.5,1,2.8,2.5,2.8c0.8,0,1.4-0.3,1.9-0.9
		l0.9,0.9c-0.7,0.8-1.7,1.2-2.8,1.2c-2.3,0-3.9-1.6-3.9-3.9c0-2.3,1.6-3.9,3.9-3.9c1.1,0,2.1,0.4,2.9,1.2L268.8,260.8z"/>
	<path class="st11" d="M271.1,259.9c0.8-0.8,1.9-1.2,3-1.2c2.2,0,3.1,1.1,3.1,3.2v3.2c0,0.4,0,0.9,0.1,1.3h-1.2
		c-0.1-0.3-0.1-0.8-0.1-1.1h0c-0.5,0.8-1.3,1.3-2.5,1.3c-1.5,0-2.8-0.8-2.8-2.2c0-2.5,2.9-2.6,4.7-2.6h0.5v-0.2
		c0-1.1-0.7-1.6-1.9-1.6c-0.8,0-1.6,0.3-2.2,0.8L271.1,259.9z M274.7,262.8c-1.6,0-2.6,0.4-2.6,1.4c0,0.9,0.7,1.3,1.6,1.3
		c1.4,0,2.2-1,2.2-2.3v-0.5H274.7z"/>
</g>
<g class="st2">
	<path class="st11" d="M225,283.4h-1.3v-9.6h0l-2,1.7l-0.8-1l3-2.5h1.2V283.4z"/>
	<path class="st11" d="M235.7,273.3H231l0,3.1c0.4-0.2,1-0.3,1.5-0.3c2.2,0,3.6,1.6,3.6,3.7c0,2.3-1.7,3.8-3.9,3.8
		c-1.7,0-2.7-0.8-3.3-2.1l1.3-0.5c0.4,0.8,1.2,1.4,2.1,1.4c1.4,0,2.4-1,2.4-2.6c0-1.7-1.2-2.6-2.8-2.6c-0.8,0-1.6,0.3-2.3,0.7
		l0.1-5.9h5.9V273.3z"/>
	<path class="st11" d="M241.4,271.9c3.1,0,3.8,3.3,3.8,5.9c0,2.6-0.7,5.9-3.8,5.9c-3.1,0-3.8-3.3-3.8-5.9
		C237.6,275.2,238.3,271.9,241.4,271.9z M241.4,282.5c2.2,0,2.5-3,2.5-4.7s-0.3-4.7-2.5-4.7c-2.2,0-2.5,3-2.5,4.7
		S239.2,282.5,241.4,282.5z"/>
	<path class="st11" d="M251.4,276.9c0.8-0.8,1.9-1.2,3-1.2c2.2,0,3.1,1.1,3.1,3.2v3.2c0,0.4,0,0.9,0.1,1.3h-1.2
		c-0.1-0.3-0.1-0.8-0.1-1.1h0c-0.5,0.8-1.3,1.3-2.5,1.3c-1.5,0-2.8-0.8-2.8-2.2c0-2.5,2.9-2.6,4.7-2.6h0.5v-0.2
		c0-1.1-0.7-1.6-1.9-1.6c-0.8,0-1.6,0.3-2.2,0.8L251.4,276.9z M255,279.8c-1.6,0-2.6,0.4-2.6,1.4c0,0.9,0.7,1.3,1.6,1.3
		c1.4,0,2.2-1,2.2-2.3v-0.5H255z"/>
	<path class="st11" d="M259.8,277.7c0-0.7-0.1-1.3-0.1-1.8h1.2c0,0.4,0,0.8,0,1.2h0c0.3-0.7,1.3-1.4,2.5-1.4c2,0,2.8,1.2,2.8,3.1
		v4.6h-1.2v-4.5c0-1.2-0.5-2-1.7-2c-1.6,0-2.3,1.2-2.3,2.9v3.6h-1.2V277.7z M260.4,274c0.1-0.8,0.7-1.7,1.6-1.7
		c0.5,0,0.9,0.2,1.3,0.4c0.3,0.1,0.5,0.3,0.9,0.3c0.4,0,0.7-0.3,0.8-0.7h0.8c-0.1,0.8-0.5,1.7-1.5,1.7c-0.4,0-0.9-0.2-1.3-0.3
		c-0.3-0.1-0.7-0.3-1.1-0.3c-0.4,0-0.6,0.4-0.7,0.7H260.4z"/>
	<path class="st11" d="M272.3,275.8c2.3,0,4,1.6,4,3.9c0,2.3-1.7,3.9-4,3.9c-2.3,0-4-1.6-4-3.9C268.3,277.4,270,275.8,272.3,275.8z
		 M272.3,282.5c1.6,0,2.7-1.2,2.7-2.8c0-1.6-1-2.8-2.7-2.8s-2.7,1.2-2.7,2.8C269.6,281.3,270.7,282.5,272.3,282.5z"/>
	<path class="st11" d="M278.4,281.5c0.5,0.6,1,1,1.9,1c0.8,0,1.6-0.3,1.6-1.2c0-0.8-0.8-1-1.6-1.2c-1.4-0.3-2.6-0.6-2.6-2.2
		c0-1.5,1.4-2.2,2.8-2.2c1.1,0,2,0.4,2.5,1.4l-1,0.7c-0.3-0.5-0.8-0.9-1.6-0.9c-0.7,0-1.5,0.3-1.5,1c0,0.6,0.9,0.9,1.9,1.1
		c1.3,0.3,2.4,0.7,2.4,2.2c0,1.7-1.5,2.4-3,2.4c-1.3,0-2.2-0.3-2.9-1.4L278.4,281.5z"/>
</g>
<rect x="326.4" y="254.3" class="st1" width="115.1" height="42.4"/>
<g class="st2">
	<path class="st11" d="M332,255.1h3.5c1.9,0,3.8,0.7,3.8,2.8c0,1.3-0.8,2.2-2,2.6v0c1.5,0.1,2.6,1.3,2.6,2.8c0,2.5-2.3,3.2-4.4,3.2
		H332V255.1z M333.4,259.9h1.9c1.3,0,2.6-0.3,2.6-1.8c0-1.4-1.2-1.7-2.4-1.7h-2V259.9z M333.4,265.2h2.3c1.3,0,2.7-0.5,2.7-2
		c0-1.6-1.3-2.1-2.7-2.1h-2.3V265.2z"/>
	<path class="st11" d="M342.6,255.1c0.5,0,0.9,0.4,0.9,0.9c0,0.5-0.4,0.9-0.9,0.9s-0.9-0.4-0.9-0.9
		C341.7,255.5,342.1,255.1,342.6,255.1z M342,258.9h1.2v7.5H342V258.9z"/>
	<path class="st11" d="M349.3,258.8c2.3,0,4,1.6,4,3.9c0,2.3-1.7,3.9-4,3.9c-2.3,0-4-1.6-4-3.9C345.3,260.4,347,258.8,349.3,258.8z
		 M349.3,265.5c1.6,0,2.7-1.2,2.7-2.8c0-1.6-1-2.8-2.7-2.8s-2.7,1.2-2.7,2.8C346.7,264.3,347.7,265.5,349.3,265.5z"/>
	<path class="st11" d="M361.5,265.1L361.5,265.1c-0.5,0.8-1.6,1.5-2.9,1.5c-2.1,0-3.7-1.7-3.7-3.9c0-2.3,1.6-3.9,3.9-3.9
		c1.1,0,2,0.5,2.7,1.3h0v-5.7h1.2v12.1h-1.2V265.1z M358.8,259.9c-1.6,0-2.7,1.2-2.7,2.8c0,1.6,1,2.8,2.7,2.8s2.7-1.2,2.7-2.8
		C361.5,261.1,360.4,259.9,358.8,259.9z"/>
	<path class="st11" d="M371.7,265.1c-0.9,1.1-1.9,1.6-3.3,1.6c-2.4,0-3.8-1.8-3.8-3.9c0-2.3,1.6-3.9,3.8-3.9c2.1,0,3.6,1.4,3.6,3.9
		v0.4h-6.1c0.1,1.3,1.1,2.4,2.4,2.4c1.1,0,1.8-0.4,2.4-1.1L371.7,265.1z M370.6,262c0-1.3-0.9-2.1-2.3-2.1s-2.3,0.8-2.4,2.1H370.6z"
		/>
	<path class="st11" d="M381.4,266.1c0,2.7-1.5,4.2-4.1,4.2c-1.5,0-2.6-0.4-3.7-1.4l0.9-1c0.8,0.8,1.6,1.3,2.8,1.3
		c2.2,0,2.8-1.4,2.8-3v-1h0c-0.6,1-1.6,1.4-2.6,1.4c-2.4,0-4-1.6-4-3.8c0-2.4,1.6-3.9,4-3.9c1,0,2.1,0.5,2.6,1.5h0v-1.3h1.2V266.1z
		 M377.5,265.4c1.7,0,2.7-1.3,2.7-2.7c0-1.6-1.1-2.8-2.7-2.8c-1.6,0-2.6,1.2-2.6,2.8C374.8,264.2,376,265.4,377.5,265.4z"/>
	<path class="st11" d="M383.7,260.7c0-0.7-0.1-1.3-0.1-1.8h1.2c0,0.4,0,0.8,0,1.2h0c0.3-0.7,1.3-1.4,2.5-1.4c0.2,0,0.3,0,0.5,0.1
		l-0.1,1.3c-0.2-0.1-0.4-0.1-0.7-0.1c-1.5,0-2.2,1.1-2.2,2.8v3.6h-1.2V260.7z"/>
	<path class="st11" d="M389.2,259.9c0.8-0.8,1.9-1.2,3-1.2c2.2,0,3.1,1.1,3.1,3.2v3.2c0,0.4,0,0.9,0.1,1.3h-1.2
		c-0.1-0.3-0.1-0.8-0.1-1.1h0c-0.5,0.8-1.3,1.3-2.5,1.3c-1.5,0-2.8-0.8-2.8-2.2c0-2.5,2.9-2.6,4.7-2.6h0.5v-0.2
		c0-1.1-0.7-1.6-1.9-1.6c-0.8,0-1.6,0.3-2.2,0.8L389.2,259.9z M392.8,262.8c-1.6,0-2.6,0.4-2.6,1.4c0,0.9,0.7,1.3,1.6,1.3
		c1.4,0,2.2-1,2.2-2.3v-0.5H392.8z"/>
	<path class="st11" d="M403.9,265.1L403.9,265.1c-0.5,0.8-1.6,1.5-2.9,1.5c-2.1,0-3.7-1.7-3.7-3.9c0-2.3,1.6-3.9,3.9-3.9
		c1.1,0,2,0.5,2.7,1.3h0v-5.7h1.2v12.1h-1.2V265.1z M401.2,259.9c-1.6,0-2.7,1.2-2.7,2.8c0,1.6,1,2.8,2.7,2.8c1.6,0,2.7-1.2,2.7-2.8
		C403.9,261.1,402.8,259.9,401.2,259.9z"/>
	<path class="st11" d="M407.3,259.9c0.8-0.8,1.9-1.2,3-1.2c2.2,0,3.1,1.1,3.1,3.2v3.2c0,0.4,0,0.9,0.1,1.3h-1.2
		c-0.1-0.3-0.1-0.8-0.1-1.1h0c-0.5,0.8-1.3,1.3-2.5,1.3c-1.5,0-2.8-0.8-2.8-2.2c0-2.5,2.9-2.6,4.7-2.6h0.5v-0.2
		c0-1.1-0.7-1.6-1.9-1.6c-0.8,0-1.6,0.3-2.2,0.8L407.3,259.9z M410.9,262.8c-1.6,0-2.6,0.4-2.6,1.4c0,0.9,0.7,1.3,1.6,1.3
		c1.4,0,2.2-1,2.2-2.3v-0.5H410.9z"/>
	<path class="st11" d="M415.6,254.3h1.2v5.7h0c0.7-0.8,1.6-1.3,2.7-1.3c2.4,0,3.9,1.7,3.9,3.9c0,2.2-1.6,3.9-3.7,3.9
		c-1.3,0-2.4-0.7-2.9-1.5h0v1.3h-1.2V254.3z M419.5,265.5c1.6,0,2.7-1.2,2.7-2.8c0-1.6-1-2.8-2.7-2.8c-1.6,0-2.7,1.2-2.7,2.8
		C416.9,264.3,417.9,265.5,419.5,265.5z"/>
	<path class="st11" d="M425.6,254.3h1.2v12.1h-1.2V254.3z"/>
	<path class="st11" d="M436,265.1c-0.9,1.1-1.9,1.6-3.3,1.6c-2.4,0-3.8-1.8-3.8-3.9c0-2.3,1.6-3.9,3.8-3.9c2.1,0,3.6,1.4,3.6,3.9
		v0.4h-6.1c0.1,1.3,1.1,2.4,2.4,2.4c1.1,0,1.8-0.4,2.4-1.1L436,265.1z M434.9,262c0-1.3-0.9-2.1-2.3-2.1c-1.4,0-2.3,0.8-2.4,2.1
		H434.9z"/>
</g>
<g class="st2">
	<path class="st11" d="M354.2,281.9l4.3-4.2c1.1-1,1.6-1.6,1.6-2.8c0-1.2-0.9-1.9-2.1-1.9s-1.9,0.7-2.1,1.8l-1.5-0.1
		c0.3-1.9,1.7-2.8,3.6-2.8c1.9,0,3.5,1.1,3.5,3.1c0,1.8-1.1,2.8-2.2,3.9l-3.5,3.3v0h5.8v1.2h-7.3V281.9z"/>
	<path class="st11" d="M363,279h3.9v1.2H363V279z"/>
	<path class="st11" d="M370.9,276.9h0.4c1.1,0,2.6-0.3,2.6-2c0-1.2-0.8-1.9-1.9-1.9c-0.9,0-1.7,0.4-2.1,1.3l-1.3-0.5
		c0.5-1.3,1.8-1.9,3.3-1.9c1.8,0,3.4,1,3.4,3c0,1.2-0.8,2.2-1.9,2.6v0c1.4,0.2,2.3,1.4,2.3,2.8c0,2.2-1.7,3.3-3.7,3.3
		c-1.7,0-3.1-0.7-3.6-2.4l1.4-0.4c0.4,1.2,1,1.7,2.3,1.7c1.3,0,2.3-0.9,2.3-2.2c0-1.7-1.5-2.2-2.9-2.2h-0.4V276.9z"/>
	<path class="st11" d="M382.1,276.9c0.8-0.8,1.9-1.2,3-1.2c2.2,0,3.1,1.1,3.1,3.2v3.2c0,0.4,0,0.9,0.1,1.3h-1.2
		c-0.1-0.3-0.1-0.8-0.1-1.1h0c-0.5,0.8-1.3,1.3-2.5,1.3c-1.5,0-2.8-0.8-2.8-2.2c0-2.5,2.9-2.6,4.7-2.6h0.5v-0.2
		c0-1.1-0.7-1.6-1.9-1.6c-0.8,0-1.6,0.3-2.2,0.8L382.1,276.9z M385.7,279.8c-1.6,0-2.6,0.4-2.6,1.4c0,0.9,0.7,1.3,1.6,1.3
		c1.4,0,2.2-1,2.2-2.3v-0.5H385.7z"/>
	<path class="st11" d="M390.5,277.7c0-0.7-0.1-1.3-0.1-1.8h1.2c0,0.4,0,0.8,0,1.2h0c0.3-0.7,1.3-1.4,2.5-1.4c2,0,2.8,1.2,2.8,3.1
		v4.6h-1.2v-4.5c0-1.2-0.5-2-1.7-2c-1.6,0-2.3,1.2-2.3,2.9v3.6h-1.2V277.7z M391.1,274c0.1-0.8,0.7-1.7,1.6-1.7
		c0.5,0,0.9,0.2,1.3,0.4c0.3,0.1,0.5,0.3,0.9,0.3c0.4,0,0.7-0.3,0.8-0.7h0.8c-0.1,0.8-0.5,1.7-1.5,1.7c-0.4,0-0.9-0.2-1.3-0.3
		c-0.3-0.1-0.7-0.3-1.1-0.3c-0.4,0-0.6,0.4-0.7,0.7H391.1z"/>
	<path class="st11" d="M403,275.8c2.3,0,4,1.6,4,3.9c0,2.3-1.7,3.9-4,3.9s-4-1.6-4-3.9C399,277.4,400.7,275.8,403,275.8z M403,282.5
		c1.6,0,2.7-1.2,2.7-2.8c0-1.6-1-2.8-2.7-2.8c-1.6,0-2.7,1.2-2.7,2.8C400.3,281.3,401.3,282.5,403,282.5z"/>
	<path class="st11" d="M409.1,281.5c0.5,0.6,1,1,1.9,1c0.8,0,1.6-0.3,1.6-1.2c0-0.8-0.8-1-1.6-1.2c-1.4-0.3-2.6-0.6-2.6-2.2
		c0-1.5,1.4-2.2,2.8-2.2c1.1,0,2,0.4,2.5,1.4l-1,0.7c-0.3-0.5-0.8-0.9-1.6-0.9c-0.7,0-1.5,0.3-1.5,1c0,0.6,0.9,0.9,1.9,1.1
		c1.3,0.3,2.4,0.7,2.4,2.2c0,1.7-1.5,2.4-3,2.4c-1.3,0-2.2-0.3-2.9-1.4L409.1,281.5z"/>
</g>
<rect x="459.7" y="254.3" class="st1" width="115.1" height="42.4"/>
<g class="st2">
	<path class="st11" d="M498.5,255.1h3.4c2.1,0,4,0.7,4,3.1c0,2.5-2.1,3.1-3.7,3.1h-2.3v5.1h-1.3V255.1z M499.9,260.1h2.3
		c1.3,0,2.3-0.6,2.3-1.9s-0.9-1.9-2.3-1.9h-2.3V260.1z"/>
	<path class="st11" d="M507.7,259.9c0.8-0.8,1.9-1.2,3-1.2c2.2,0,3.1,1.1,3.1,3.2v3.2c0,0.4,0,0.9,0.1,1.3h-1.2
		c-0.1-0.3-0.1-0.8-0.1-1.1h0c-0.5,0.8-1.3,1.3-2.5,1.3c-1.5,0-2.8-0.8-2.8-2.2c0-2.5,2.9-2.6,4.7-2.6h0.5v-0.2
		c0-1.1-0.7-1.6-1.9-1.6c-0.8,0-1.6,0.3-2.2,0.8L507.7,259.9z M511.3,262.8c-1.6,0-2.6,0.4-2.6,1.4c0,0.9,0.7,1.3,1.6,1.3
		c1.4,0,2.2-1,2.2-2.3v-0.5H511.3z"/>
	<path class="st11" d="M516,258.9h1.2v1.1h0c0.7-0.8,1.6-1.3,2.7-1.3c2.4,0,3.9,1.7,3.9,3.9c0,2.2-1.6,3.9-3.7,3.9
		c-1.3,0-2.4-0.7-2.9-1.5h0v5H516V258.9z M519.9,265.5c1.6,0,2.7-1.2,2.7-2.8c0-1.6-1-2.8-2.7-2.8c-1.6,0-2.7,1.2-2.7,2.8
		C517.3,264.3,518.3,265.5,519.9,265.5z"/>
	<path class="st11" d="M532.6,265.1c-0.9,1.1-1.9,1.6-3.3,1.6c-2.4,0-3.8-1.8-3.8-3.9c0-2.3,1.6-3.9,3.8-3.9c2.1,0,3.6,1.4,3.6,3.9
		v0.4h-6.1c0.1,1.3,1.1,2.4,2.4,2.4c1.1,0,1.8-0.4,2.4-1.1L532.6,265.1z M531.5,262c0-1.3-0.9-2.1-2.3-2.1c-1.4,0-2.3,0.8-2.4,2.1
		H531.5z"/>
	<path class="st11" d="M534.9,254.3h1.2v12.1h-1.2V254.3z"/>
</g>
<g class="st2">
	<path class="st11" d="M503,283.4h-1.3v-9.6h0l-2,1.7l-0.8-1l3-2.5h1.2V283.4z"/>
	<path class="st11" d="M511.6,276.9c0.8-0.8,1.9-1.2,3-1.2c2.2,0,3.1,1.1,3.1,3.2v3.2c0,0.4,0,0.9,0.1,1.3h-1.2
		c-0.1-0.3-0.1-0.8-0.1-1.1h0c-0.5,0.8-1.3,1.3-2.5,1.3c-1.5,0-2.8-0.8-2.8-2.2c0-2.5,2.9-2.6,4.7-2.6h0.5v-0.2
		c0-1.1-0.7-1.6-1.9-1.6c-0.8,0-1.6,0.3-2.2,0.8L511.6,276.9z M515.3,279.8c-1.6,0-2.6,0.4-2.6,1.4c0,0.9,0.7,1.3,1.6,1.3
		c1.4,0,2.2-1,2.2-2.3v-0.5H515.3z"/>
	<path class="st11" d="M520,277.7c0-0.7-0.1-1.3-0.1-1.8h1.2c0,0.4,0,0.8,0,1.2h0c0.3-0.7,1.3-1.4,2.5-1.4c2,0,2.8,1.2,2.8,3.1v4.6
		h-1.2v-4.5c0-1.2-0.5-2-1.7-2c-1.6,0-2.3,1.2-2.3,2.9v3.6H520V277.7z M520.6,274c0.1-0.8,0.7-1.7,1.6-1.7c0.5,0,0.9,0.2,1.3,0.4
		c0.3,0.1,0.5,0.3,0.9,0.3c0.4,0,0.7-0.3,0.8-0.7h0.8c-0.1,0.8-0.5,1.7-1.5,1.7c-0.4,0-0.9-0.2-1.3-0.3c-0.3-0.1-0.7-0.3-1.1-0.3
		c-0.4,0-0.6,0.4-0.7,0.7H520.6z"/>
	<path class="st11" d="M532.5,275.8c2.3,0,4,1.6,4,3.9c0,2.3-1.7,3.9-4,3.9c-2.3,0-4-1.6-4-3.9C528.5,277.4,530.2,275.8,532.5,275.8
		z M532.5,282.5c1.6,0,2.7-1.2,2.7-2.8c0-1.6-1-2.8-2.7-2.8c-1.6,0-2.7,1.2-2.7,2.8C529.9,281.3,530.9,282.5,532.5,282.5z"/>
</g>
<rect x="155.8" y="320.4" class="st1" width="459.2" height="70.7"/>
<g class="st2">
	<path class="st3" d="M167.2,321.1h1.3v9.4h5.1v1.2h-6.4V321.1z"/>
	<path class="st3" d="M174.7,325.6c0.8-0.7,1.9-1.1,2.9-1.1c2.2,0,3.1,1,3.1,3v3c0,0.4,0,0.9,0.1,1.2h-1.2c-0.1-0.3-0.1-0.8-0.1-1h0
		c-0.5,0.7-1.3,1.2-2.4,1.2c-1.5,0-2.8-0.7-2.8-2.1c0-2.3,2.8-2.5,4.7-2.5h0.5v-0.2c0-1-0.7-1.5-1.8-1.5c-0.8,0-1.6,0.3-2.2,0.8
		L174.7,325.6z M178.3,328.4c-1.6,0-2.6,0.4-2.6,1.3c0,0.9,0.7,1.2,1.6,1.2c1.4,0,2.1-1,2.2-2.1v-0.5H178.3z"/>
	<path class="st3" d="M183.2,329.9c0.5,0.6,1,0.9,1.9,0.9c0.8,0,1.6-0.3,1.6-1.1c0-0.8-0.8-0.9-1.6-1.1c-1.4-0.3-2.6-0.6-2.6-2
		c0-1.4,1.4-2.1,2.8-2.1c1,0,2,0.4,2.5,1.3l-1,0.6c-0.3-0.5-0.8-0.8-1.6-0.8c-0.7,0-1.5,0.3-1.5,1c0,0.6,0.9,0.8,1.9,1
		c1.3,0.2,2.4,0.7,2.4,2.1c0,1.6-1.5,2.2-3,2.2c-1.2,0-2.1-0.3-2.9-1.3L183.2,329.9z"/>
	<path class="st3" d="M194.1,320.4h1.2v5.3h0c0.7-0.8,1.6-1.2,2.7-1.2c2.3,0,3.9,1.6,3.9,3.7c0,2.1-1.6,3.7-3.7,3.7
		c-1.3,0-2.4-0.6-2.8-1.4h0v1.2h-1.2V320.4z M198,330.9c1.6,0,2.6-1.1,2.6-2.6c0-1.5-1-2.6-2.6-2.6s-2.6,1.1-2.6,2.6
		C195.3,329.7,196.4,330.9,198,330.9z"/>
	<path class="st3" d="M207.3,324.6c2.3,0,4,1.5,4,3.7s-1.7,3.7-4,3.7s-4-1.5-4-3.7S205.1,324.6,207.3,324.6z M207.3,330.9
		c1.6,0,2.6-1.1,2.6-2.6c0-1.5-1-2.6-2.6-2.6c-1.6,0-2.6,1.1-2.6,2.6C204.7,329.7,205.7,330.9,207.3,330.9z"/>
	<path class="st3" d="M213.3,320.4h1.2v11.3h-1.2V320.4z"/>
	<path class="st3" d="M217.2,329.9c0.5,0.6,1,0.9,1.9,0.9c0.8,0,1.6-0.3,1.6-1.1c0-0.8-0.8-0.9-1.6-1.1c-1.4-0.3-2.6-0.6-2.6-2
		c0-1.4,1.4-2.1,2.8-2.1c1,0,2,0.4,2.5,1.3l-1,0.6c-0.3-0.5-0.8-0.8-1.6-0.8c-0.7,0-1.5,0.3-1.5,1c0,0.6,0.9,0.8,1.9,1
		c1.3,0.2,2.4,0.7,2.4,2.1c0,1.6-1.5,2.2-3,2.2c-1.2,0-2.1-0.3-2.9-1.3L217.2,329.9z"/>
	<path class="st3" d="M223.6,325.6c0.8-0.7,1.9-1.1,2.9-1.1c2.2,0,3.1,1,3.1,3v3c0,0.4,0,0.9,0.1,1.2h-1.2c-0.1-0.3-0.1-0.8-0.1-1h0
		c-0.5,0.7-1.3,1.2-2.4,1.2c-1.5,0-2.8-0.7-2.8-2.1c0-2.3,2.8-2.5,4.7-2.5h0.5v-0.2c0-1-0.7-1.5-1.8-1.5c-0.8,0-1.6,0.3-2.2,0.8
		L223.6,325.6z M227.2,328.4c-1.6,0-2.6,0.4-2.6,1.3c0,0.9,0.7,1.2,1.6,1.2c1.4,0,2.1-1,2.2-2.1v-0.5H227.2z"/>
	<path class="st3" d="M232.1,329.9c0.5,0.6,1,0.9,1.9,0.9c0.8,0,1.6-0.3,1.6-1.1c0-0.8-0.8-0.9-1.6-1.1c-1.4-0.3-2.6-0.6-2.6-2
		c0-1.4,1.4-2.1,2.8-2.1c1,0,2,0.4,2.5,1.3l-1,0.6c-0.3-0.5-0.8-0.8-1.6-0.8c-0.7,0-1.5,0.3-1.5,1c0,0.6,0.9,0.8,1.9,1
		c1.3,0.2,2.4,0.7,2.4,2.1c0,1.6-1.5,2.2-3,2.2c-1.2,0-2.1-0.3-2.9-1.3L232.1,329.9z"/>
	<path class="st3" d="M249.2,330.5L249.2,330.5c-0.5,0.8-1.5,1.4-2.9,1.4c-2.1,0-3.7-1.6-3.7-3.7c0-2.1,1.6-3.7,3.9-3.7
		c1.1,0,2,0.4,2.7,1.2h0v-5.3h1.2v11.3h-1.2V330.5z M246.6,325.6c-1.6,0-2.6,1.1-2.6,2.6c0,1.5,1,2.6,2.6,2.6s2.6-1.1,2.6-2.6
		C249.2,326.8,248.2,325.6,246.6,325.6z"/>
	<path class="st3" d="M259.3,330.5c-0.9,1.1-1.9,1.5-3.3,1.5c-2.3,0-3.7-1.6-3.7-3.7c0-2.2,1.6-3.7,3.8-3.7c2.1,0,3.5,1.3,3.5,3.7
		v0.4h-6c0.1,1.2,1.1,2.2,2.4,2.2c1.1,0,1.8-0.4,2.4-1.1L259.3,330.5z M258.3,327.6c0-1.2-0.9-2-2.2-2c-1.4,0-2.3,0.8-2.4,2H258.3z"
		/>
	<path class="st3" d="M265.8,324.7h1.2v1h0c0.7-0.8,1.6-1.2,2.7-1.2c2.3,0,3.9,1.6,3.9,3.7c0,2.1-1.6,3.7-3.7,3.7
		c-1.3,0-2.4-0.6-2.8-1.4h0v4.7h-1.2V324.7z M269.7,330.9c1.6,0,2.6-1.1,2.6-2.6c0-1.5-1-2.6-2.6-2.6s-2.6,1.1-2.6,2.6
		C267.1,329.7,268.1,330.9,269.7,330.9z"/>
	<path class="st3" d="M275.4,325.6c0.8-0.7,1.9-1.1,2.9-1.1c2.2,0,3.1,1,3.1,3v3c0,0.4,0,0.9,0.1,1.2h-1.2c-0.1-0.3-0.1-0.8-0.1-1h0
		c-0.5,0.7-1.3,1.2-2.4,1.2c-1.5,0-2.8-0.7-2.8-2.1c0-2.3,2.8-2.5,4.7-2.5h0.5v-0.2c0-1-0.7-1.5-1.8-1.5c-0.8,0-1.6,0.3-2.2,0.8
		L275.4,325.6z M279,328.4c-1.6,0-2.6,0.4-2.6,1.3c0,0.9,0.7,1.2,1.6,1.2c1.4,0,2.1-1,2.2-2.1v-0.5H279z"/>
	<path class="st3" d="M283.7,324.7h1.2v1h0c0.7-0.8,1.6-1.2,2.7-1.2c2.3,0,3.9,1.6,3.9,3.7c0,2.1-1.6,3.7-3.7,3.7
		c-1.3,0-2.4-0.6-2.8-1.4h0v4.7h-1.2V324.7z M287.5,330.9c1.6,0,2.6-1.1,2.6-2.6c0-1.5-1-2.6-2.6-2.6s-2.6,1.1-2.6,2.6
		C284.9,329.7,285.9,330.9,287.5,330.9z"/>
	<path class="st3" d="M300,330.5c-0.9,1.1-1.9,1.5-3.3,1.5c-2.3,0-3.7-1.6-3.7-3.7c0-2.2,1.6-3.7,3.8-3.7c2.1,0,3.5,1.3,3.5,3.7v0.4
		h-6c0.1,1.2,1.1,2.2,2.4,2.2c1.1,0,1.8-0.4,2.4-1.1L300,330.5z M298.9,327.6c0-1.2-0.9-2-2.2-2c-1.4,0-2.3,0.8-2.4,2H298.9z"/>
	<path class="st3" d="M302.3,320.4h1.2v11.3h-1.2V320.4z"/>
	<path class="st3" d="M310.5,329.9c0.5,0.6,1,0.9,1.9,0.9c0.8,0,1.6-0.3,1.6-1.1c0-0.8-0.8-0.9-1.6-1.1c-1.4-0.3-2.6-0.6-2.6-2
		c0-1.4,1.4-2.1,2.8-2.1c1,0,2,0.4,2.5,1.3l-1,0.6c-0.3-0.5-0.8-0.8-1.6-0.8c-0.7,0-1.5,0.3-1.5,1c0,0.6,0.9,0.8,1.9,1
		c1.3,0.2,2.4,0.7,2.4,2.1c0,1.6-1.5,2.2-3,2.2c-1.2,0-2.2-0.3-2.9-1.3L310.5,329.9z"/>
	<path class="st3" d="M320.6,324.6c2.3,0,4,1.5,4,3.7s-1.7,3.7-4,3.7s-4-1.5-4-3.7S318.3,324.6,320.6,324.6z M320.6,330.9
		c1.6,0,2.6-1.1,2.6-2.6c0-1.5-1-2.6-2.6-2.6s-2.6,1.1-2.6,2.6C318,329.7,319,330.9,320.6,330.9z"/>
	<path class="st3" d="M326.5,326.4c0-0.6-0.1-1.2-0.1-1.7h1.2c0,0.4,0,0.8,0,1.2h0c0.3-0.7,1.2-1.3,2.5-1.3c1.9,0,2.8,1.2,2.8,2.9
		v4.3h-1.2v-4.2c0-1.2-0.5-1.9-1.7-1.9c-1.6,0-2.3,1.1-2.3,2.7v3.4h-1.2V326.4z"/>
	<path class="st3" d="M346.1,330.1c0,0.6,0.1,1.2,0.1,1.7H345c0-0.4,0-0.8,0-1.2h0c-0.3,0.7-1.2,1.3-2.5,1.3c-1.9,0-2.8-1.2-2.8-2.9
		v-4.3h1.2v4.2c0,1.2,0.5,1.9,1.7,1.9c1.6,0,2.3-1.1,2.3-2.7v-3.4h1.2V330.1z"/>
	<path class="st3" d="M348.5,326.4c0-0.6-0.1-1.2-0.1-1.7h1.2c0,0.4,0,0.8,0,1.2h0c0.3-0.7,1.2-1.3,2.5-1.3c1.9,0,2.8,1.2,2.8,2.9
		v4.3h-1.2v-4.2c0-1.2-0.5-1.9-1.7-1.9c-1.6,0-2.3,1.1-2.3,2.7v3.4h-1.2V326.4z"/>
	<path class="st3" d="M357.1,325.6c0.8-0.7,1.9-1.1,2.9-1.1c2.2,0,3.1,1,3.1,3v3c0,0.4,0,0.9,0.1,1.2h-1.2c-0.1-0.3-0.1-0.8-0.1-1h0
		c-0.5,0.7-1.3,1.2-2.4,1.2c-1.5,0-2.8-0.7-2.8-2.1c0-2.3,2.8-2.5,4.7-2.5h0.5v-0.2c0-1-0.7-1.5-1.8-1.5c-0.8,0-1.6,0.3-2.2,0.8
		L357.1,325.6z M360.7,328.4c-1.6,0-2.6,0.4-2.6,1.3c0,0.9,0.7,1.2,1.6,1.2c1.4,0,2.1-1,2.2-2.1v-0.5H360.7z"/>
	<path class="st3" d="M369.7,325.6c0.8-0.7,1.9-1.1,2.9-1.1c2.2,0,3.1,1,3.1,3v3c0,0.4,0,0.9,0.1,1.2h-1.2c-0.1-0.3-0.1-0.8-0.1-1h0
		c-0.5,0.7-1.3,1.2-2.4,1.2c-1.5,0-2.8-0.7-2.8-2.1c0-2.3,2.8-2.5,4.7-2.5h0.5v-0.2c0-1-0.7-1.5-1.8-1.5c-0.8,0-1.6,0.3-2.2,0.8
		L369.7,325.6z M373.3,328.4c-1.6,0-2.6,0.4-2.6,1.3c0,0.9,0.7,1.2,1.6,1.2c1.4,0,2.1-1,2.2-2.1v-0.5H373.3z"/>
	<path class="st3" d="M378.1,320.4h1.2v11.3h-1.2V320.4z"/>
	<path class="st3" d="M385.9,325.7h-2.2v3.5c0,0.9,0,1.6,1.1,1.6c0.4,0,0.8-0.1,1.1-0.2l0,1.1c-0.4,0.2-1,0.3-1.4,0.3
		c-1.8,0-2-0.9-2-2.4v-3.9h-1.6v-1h1.6v-2h1.2v2h2.2V325.7z"/>
	<path class="st3" d="M394,330.5c-0.9,1.1-1.9,1.5-3.3,1.5c-2.3,0-3.7-1.6-3.7-3.7c0-2.2,1.6-3.7,3.8-3.7c2.1,0,3.5,1.3,3.5,3.7v0.4
		h-6c0.1,1.2,1.1,2.2,2.4,2.2c1.1,0,1.8-0.4,2.4-1.1L394,330.5z M392.9,327.6c0-1.2-0.9-2-2.2-2s-2.3,0.8-2.4,2H392.9z"/>
	<path class="st3" d="M396.2,326.4c0-0.6-0.1-1.2-0.1-1.7h1.2c0,0.4,0,0.8,0,1.2h0c0.3-0.7,1.2-1.3,2.5-1.3c0.2,0,0.3,0,0.5,0.1
		l-0.1,1.2c-0.2-0.1-0.4-0.1-0.7-0.1c-1.5,0-2.2,1-2.2,2.6v3.4h-1.2V326.4z"/>
	<path class="st3" d="M401.7,326.4c0-0.6-0.1-1.2-0.1-1.7h1.2c0,0.4,0,0.8,0,1.2h0c0.3-0.7,1.2-1.3,2.5-1.3c1.9,0,2.8,1.2,2.8,2.9
		v4.3H407v-4.2c0-1.2-0.5-1.9-1.7-1.9c-1.6,0-2.3,1.1-2.3,2.7v3.4h-1.2V326.4z"/>
	<path class="st3" d="M410.4,325.6c0.8-0.7,1.9-1.1,2.9-1.1c2.2,0,3.1,1,3.1,3v3c0,0.4,0,0.9,0.1,1.2h-1.2c-0.1-0.3-0.1-0.8-0.1-1h0
		c-0.5,0.7-1.3,1.2-2.4,1.2c-1.5,0-2.8-0.7-2.8-2.1c0-2.3,2.8-2.5,4.7-2.5h0.5v-0.2c0-1-0.7-1.5-1.8-1.5c-0.8,0-1.6,0.3-2.2,0.8
		L410.4,325.6z M414,328.4c-1.6,0-2.6,0.4-2.6,1.3c0,0.9,0.7,1.2,1.6,1.2c1.4,0,2.1-1,2.2-2.1v-0.5H414z"/>
	<path class="st3" d="M422.8,325.7h-2.2v3.5c0,0.9,0,1.6,1.1,1.6c0.4,0,0.8-0.1,1.1-0.2l0,1.1c-0.4,0.2-1,0.3-1.4,0.3
		c-1.8,0-2-0.9-2-2.4v-3.9h-1.6v-1h1.6v-2h1.2v2h2.2V325.7z"/>
	<path class="st3" d="M425,321.1c0.5,0,0.9,0.4,0.9,0.9c0,0.5-0.4,0.9-0.9,0.9c-0.5,0-0.9-0.4-0.9-0.9
		C424.1,321.5,424.5,321.1,425,321.1z M424.4,324.7h1.2v7h-1.2V324.7z"/>
	<path class="st3" d="M431.4,331.8h-1.4l-3-7h1.4l2.3,5.5h0l2.2-5.5h1.3L431.4,331.8z"/>
	<path class="st3" d="M435.6,325.6c0.8-0.7,1.9-1.1,2.9-1.1c2.2,0,3.1,1,3.1,3v3c0,0.4,0,0.9,0.1,1.2h-1.2c-0.1-0.3-0.1-0.8-0.1-1h0
		c-0.5,0.7-1.3,1.2-2.4,1.2c-1.5,0-2.8-0.7-2.8-2.1c0-2.3,2.8-2.5,4.7-2.5h0.5v-0.2c0-1-0.7-1.5-1.8-1.5c-0.8,0-1.6,0.3-2.2,0.8
		L435.6,325.6z M439.2,328.4c-1.6,0-2.6,0.4-2.6,1.3c0,0.9,0.7,1.2,1.6,1.2c1.4,0,2.1-1,2.2-2.1v-0.5H439.2z"/>
	<path class="st3" d="M448.2,325.6c0.8-0.7,1.9-1.1,2.9-1.1c2.2,0,3.1,1,3.1,3v3c0,0.4,0,0.9,0.1,1.2h-1.2c-0.1-0.3-0.1-0.8-0.1-1h0
		c-0.5,0.7-1.3,1.2-2.4,1.2c-1.5,0-2.8-0.7-2.8-2.1c0-2.3,2.8-2.5,4.7-2.5h0.5v-0.2c0-1-0.7-1.5-1.8-1.5c-0.8,0-1.6,0.3-2.2,0.8
		L448.2,325.6z M451.8,328.4c-1.6,0-2.6,0.4-2.6,1.3c0,0.9,0.7,1.2,1.6,1.2c1.4,0,2.1-1,2.2-2.1v-0.5H451.8z"/>
	<path class="st3" d="M456.5,326.4c0-0.6-0.1-1.2-0.1-1.7h1.2c0,0.4,0,0.8,0,1.2h0c0.3-0.7,1.2-1.3,2.5-1.3c1.6,0,2.1,0.9,2.3,1.3
		c0.5-0.8,1.2-1.3,2.3-1.3c2.1,0,2.8,1.1,2.8,2.9v4.3h-1.2v-4.2c0-1-0.4-1.9-1.8-1.9c-1,0-1.9,0.8-1.9,2.1v4h-1.2v-4
		c0-1.5-0.4-2.1-1.4-2.1c-1.6,0-2.3,1.1-2.3,2.7v3.4h-1.2V326.4z"/>
	<path class="st3" d="M470.7,321.1c0.5,0,0.9,0.4,0.9,0.9c0,0.5-0.4,0.9-0.9,0.9c-0.5,0-0.9-0.4-0.9-0.9
		C469.8,321.5,470.2,321.1,470.7,321.1z M470.1,324.7h1.2v7h-1.2V324.7z"/>
	<path class="st3" d="M481.1,331.4c0,2.5-1.4,3.9-4,3.9c-1.4,0-2.6-0.4-3.6-1.3l0.9-1c0.8,0.8,1.6,1.2,2.8,1.2
		c2.2,0,2.8-1.3,2.8-2.8v-0.9h0c-0.6,0.9-1.6,1.3-2.6,1.3c-2.3,0-3.9-1.5-3.9-3.6c0-2.3,1.6-3.7,3.9-3.7c1,0,2.1,0.4,2.6,1.4h0v-1.2
		h1.2V331.4z M477.3,330.8c1.7,0,2.6-1.2,2.6-2.5c0-1.5-1.1-2.6-2.6-2.6c-1.5,0-2.6,1.1-2.6,2.6
		C474.7,329.7,475.8,330.8,477.3,330.8z"/>
	<path class="st3" d="M483.3,325.6c0.8-0.7,1.9-1.1,2.9-1.1c2.2,0,3.1,1,3.1,3v3c0,0.4,0,0.9,0.1,1.2h-1.2c-0.1-0.3-0.1-0.8-0.1-1h0
		c-0.5,0.7-1.3,1.2-2.4,1.2c-1.5,0-2.8-0.7-2.8-2.1c0-2.3,2.8-2.5,4.7-2.5h0.5v-0.2c0-1-0.7-1.5-1.8-1.5c-0.8,0-1.6,0.3-2.2,0.8
		L483.3,325.6z M486.9,328.4c-1.6,0-2.6,0.4-2.6,1.3c0,0.9,0.7,1.2,1.6,1.2c1.4,0,2.1-1,2.2-2.1v-0.5H486.9z"/>
	<path class="st3" d="M491.5,320.4h1.2v5.3h0c0.7-0.8,1.6-1.2,2.7-1.2c2.3,0,3.9,1.6,3.9,3.7c0,2.1-1.6,3.7-3.7,3.7
		c-1.3,0-2.4-0.6-2.8-1.4h0v1.2h-1.2V320.4z M495.4,330.9c1.6,0,2.6-1.1,2.6-2.6c0-1.5-1-2.6-2.6-2.6s-2.6,1.1-2.6,2.6
		C492.8,329.7,493.8,330.9,495.4,330.9z"/>
	<path class="st3" d="M501.4,320.4h1.2v11.3h-1.2V320.4z"/>
	<path class="st3" d="M511.7,330.5c-0.9,1.1-1.9,1.5-3.3,1.5c-2.3,0-3.7-1.6-3.7-3.7c0-2.2,1.6-3.7,3.8-3.7c2.1,0,3.5,1.3,3.5,3.7
		v0.4h-6c0.1,1.2,1.1,2.2,2.4,2.2c1.1,0,1.8-0.4,2.4-1.1L511.7,330.5z M510.6,327.6c0-1.2-0.9-2-2.2-2s-2.3,0.8-2.4,2H510.6z"/>
	<path class="st3" d="M518.1,325.6c0.8-0.7,1.9-1.1,2.9-1.1c2.2,0,3.1,1,3.1,3v3c0,0.4,0,0.9,0.1,1.2h-1.2c-0.1-0.3-0.1-0.8-0.1-1h0
		c-0.5,0.7-1.3,1.2-2.4,1.2c-1.5,0-2.8-0.7-2.8-2.1c0-2.3,2.8-2.5,4.7-2.5h0.5v-0.2c0-1-0.7-1.5-1.8-1.5c-0.8,0-1.6,0.3-2.2,0.8
		L518.1,325.6z M521.7,328.4c-1.6,0-2.6,0.4-2.6,1.3c0,0.9,0.7,1.2,1.6,1.2c1.4,0,2.1-1,2.2-2.1v-0.5H521.7z"/>
	<path class="st3" d="M526.5,320.4h1.2v11.3h-1.2V320.4z"/>
	<path class="st3" d="M534.6,326.4c0-0.6-0.1-1.2-0.1-1.7h1.2c0,0.4,0,0.8,0,1.2h0c0.3-0.7,1.2-1.3,2.5-1.3c1.6,0,2.1,0.9,2.3,1.3
		c0.5-0.8,1.2-1.3,2.3-1.3c2.1,0,2.8,1.1,2.8,2.9v4.3h-1.2v-4.2c0-1-0.4-1.9-1.8-1.9c-1,0-1.9,0.8-1.9,2.1v4h-1.2v-4
		c0-1.5-0.4-2.1-1.4-2.1c-1.6,0-2.3,1.1-2.3,2.7v3.4h-1.2V326.4z"/>
	<path class="st3" d="M551.6,324.6c2.3,0,4,1.5,4,3.7s-1.7,3.7-4,3.7s-4-1.5-4-3.7S549.3,324.6,551.6,324.6z M551.6,330.9
		c1.6,0,2.6-1.1,2.6-2.6c0-1.5-1-2.6-2.6-2.6s-2.6,1.1-2.6,2.6C549,329.7,550,330.9,551.6,330.9z"/>
	<path class="st3" d="M557.5,326.4c0-0.6-0.1-1.2-0.1-1.7h1.2c0,0.4,0,0.8,0,1.2h0c0.3-0.7,1.2-1.3,2.5-1.3c1.6,0,2.1,0.9,2.3,1.3
		c0.5-0.8,1.2-1.3,2.3-1.3c2.1,0,2.8,1.1,2.8,2.9v4.3h-1.2v-4.2c0-1-0.4-1.9-1.8-1.9c-1,0-1.9,0.8-1.9,2.1v4h-1.2v-4
		c0-1.5-0.4-2.1-1.4-2.1c-1.6,0-2.3,1.1-2.3,2.7v3.4h-1.2V326.4z"/>
	<path class="st3" d="M577.5,330.5c-0.9,1.1-1.9,1.5-3.3,1.5c-2.3,0-3.7-1.6-3.7-3.7c0-2.2,1.6-3.7,3.8-3.7c2.1,0,3.5,1.3,3.5,3.7
		v0.4h-6c0.1,1.2,1.1,2.2,2.4,2.2c1.1,0,1.8-0.4,2.4-1.1L577.5,330.5z M576.5,327.6c0-1.2-0.9-2-2.2-2s-2.3,0.8-2.4,2H576.5z"/>
	<path class="st3" d="M579.7,326.4c0-0.6-0.1-1.2-0.1-1.7h1.2c0,0.4,0,0.8,0,1.2h0c0.3-0.7,1.2-1.3,2.5-1.3c1.9,0,2.8,1.2,2.8,2.9
		v4.3h-1.2v-4.2c0-1.2-0.5-1.9-1.7-1.9c-1.6,0-2.3,1.1-2.3,2.7v3.4h-1.2V326.4z"/>
	<path class="st3" d="M592.6,325.7h-2.2v3.5c0,0.9,0,1.6,1.1,1.6c0.4,0,0.8-0.1,1.1-0.2l0,1.1c-0.4,0.2-1,0.3-1.4,0.3
		c-1.8,0-2-0.9-2-2.4v-3.9h-1.6v-1h1.6v-2h1.2v2h2.2V325.7z"/>
	<path class="st3" d="M597.6,324.6c2.3,0,4,1.5,4,3.7s-1.7,3.7-4,3.7s-4-1.5-4-3.7S595.3,324.6,597.6,324.6z M597.6,330.9
		c1.6,0,2.6-1.1,2.6-2.6c0-1.5-1-2.6-2.6-2.6s-2.6,1.1-2.6,2.6C595,329.7,596,330.9,597.6,330.9z"/>
</g>
<g class="st2">
	<path class="st3" d="M181,346.6L181,346.6c-0.5,0.8-1.5,1.4-2.9,1.4c-2.1,0-3.7-1.6-3.7-3.7c0-2.1,1.6-3.7,3.9-3.7
		c1.1,0,2,0.4,2.7,1.2h0v-5.3h1.2v11.3H181V346.6z M178.4,341.7c-1.6,0-2.6,1.1-2.6,2.6c0,1.5,1,2.6,2.6,2.6c1.6,0,2.6-1.1,2.6-2.6
		C181,342.9,180,341.7,178.4,341.7z"/>
	<path class="st3" d="M191.1,346.6c-0.9,1.1-1.9,1.5-3.3,1.5c-2.3,0-3.7-1.6-3.7-3.7c0-2.2,1.6-3.7,3.8-3.7c2.1,0,3.5,1.3,3.5,3.7
		v0.4h-6c0.1,1.2,1.1,2.2,2.4,2.2c1.1,0,1.8-0.4,2.4-1.1L191.1,346.6z M190,343.7c0-1.2-0.9-2-2.2-2c-1.4,0-2.3,0.8-2.4,2H190z"/>
	<path class="st3" d="M197.8,336.5h1.2v11.3h-1.2V336.5z"/>
	<path class="st3" d="M201.6,336.5h1.2v11.3h-1.2V336.5z"/>
	<path class="st3" d="M211.9,346.6c-0.9,1.1-1.9,1.5-3.3,1.5c-2.3,0-3.7-1.6-3.7-3.7c0-2.2,1.6-3.7,3.8-3.7c2.1,0,3.5,1.3,3.5,3.7
		v0.4h-6c0.1,1.2,1.1,2.2,2.4,2.2c1.1,0,1.8-0.4,2.4-1.1L211.9,346.6z M210.8,343.7c0-1.2-0.9-2-2.2-2c-1.4,0-2.3,0.8-2.4,2H210.8z"
		/>
	<path class="st3" d="M221.4,347.5c0,2.5-1.4,3.9-4,3.9c-1.4,0-2.6-0.4-3.6-1.3l0.9-1c0.8,0.8,1.6,1.2,2.8,1.2
		c2.2,0,2.8-1.3,2.8-2.8v-0.9h0c-0.6,0.9-1.6,1.3-2.6,1.3c-2.3,0-3.9-1.5-3.9-3.6c0-2.3,1.6-3.7,3.9-3.7c1,0,2.1,0.4,2.6,1.4h0v-1.2
		h1.2V347.5z M217.5,346.9c1.7,0,2.6-1.2,2.6-2.5c0-1.5-1.1-2.6-2.6-2.6c-1.5,0-2.6,1.1-2.6,2.6
		C214.9,345.8,216.1,346.9,217.5,346.9z"/>
	<path class="st3" d="M223.6,341.7c0.8-0.7,1.9-1.1,2.9-1.1c2.2,0,3.1,1,3.1,3v3c0,0.4,0,0.9,0.1,1.2h-1.2c-0.1-0.3-0.1-0.8-0.1-1h0
		c-0.5,0.7-1.3,1.2-2.4,1.2c-1.5,0-2.8-0.7-2.8-2.1c0-2.3,2.8-2.5,4.7-2.5h0.5v-0.2c0-1-0.7-1.5-1.8-1.5c-0.8,0-1.6,0.3-2.2,0.8
		L223.6,341.7z M227.2,344.5c-1.6,0-2.6,0.4-2.6,1.3c0,0.9,0.7,1.2,1.6,1.2c1.4,0,2.1-1,2.2-2.1v-0.5H227.2z"/>
	<path class="st3" d="M231.9,342.5c0-0.6-0.1-1.2-0.1-1.7h1.2c0,0.4,0,0.8,0,1.2h0c0.3-0.7,1.2-1.3,2.5-1.3c0.2,0,0.3,0,0.5,0.1
		l-0.1,1.2c-0.2-0.1-0.4-0.1-0.7-0.1c-1.5,0-2.2,1-2.2,2.6v3.4h-1.2V342.5z"/>
	<path class="st3" d="M241.8,341.7c0.8-0.7,1.9-1.1,2.9-1.1c2.2,0,3.1,1,3.1,3v3c0,0.4,0,0.9,0.1,1.2h-1.2c-0.1-0.3-0.1-0.8-0.1-1h0
		c-0.5,0.7-1.3,1.2-2.4,1.2c-1.5,0-2.8-0.7-2.8-2.1c0-2.3,2.8-2.5,4.7-2.5h0.5v-0.2c0-1-0.7-1.5-1.8-1.5c-0.8,0-1.6,0.3-2.2,0.8
		L241.8,341.7z M245.3,344.5c-1.6,0-2.6,0.4-2.6,1.3c0,0.9,0.7,1.2,1.6,1.2c1.4,0,2.1-1,2.2-2.1v-0.5H245.3z"/>
	<path class="st3" d="M250.2,336.5h1.2v11.3h-1.2V336.5z"/>
	<path class="st3" d="M261.6,347.9h-1.4l-3-7h1.4l2.3,5.5h0l2.2-5.5h1.3L261.6,347.9z"/>
	<path class="st3" d="M272.5,346.6c-0.9,1.1-1.9,1.5-3.3,1.5c-2.3,0-3.7-1.6-3.7-3.7c0-2.2,1.6-3.7,3.8-3.7c2.1,0,3.5,1.3,3.5,3.7
		v0.4h-6c0.1,1.2,1.1,2.2,2.4,2.2c1.1,0,1.8-0.4,2.4-1.1L272.5,346.6z M271.4,343.7c0-1.2-0.9-2-2.2-2c-1.4,0-2.3,0.8-2.4,2H271.4z"
		/>
	<path class="st3" d="M274.6,342.5c0-0.6-0.1-1.2-0.1-1.7h1.2c0,0.4,0,0.8,0,1.2h0c0.3-0.7,1.2-1.3,2.5-1.3c0.2,0,0.3,0,0.5,0.1
		l-0.1,1.2c-0.2-0.1-0.4-0.1-0.7-0.1c-1.5,0-2.2,1-2.2,2.6v3.4h-1.2V342.5z"/>
	<path class="st3" d="M284.2,341.8h-2.2v3.5c0,0.9,0,1.6,1.1,1.6c0.4,0,0.8-0.1,1.1-0.2l0,1.1c-0.4,0.2-1,0.3-1.4,0.3
		c-1.8,0-2-0.9-2-2.4v-3.9h-1.6v-1h1.6v-2h1.2v2h2.2V341.8z"/>
	<path class="st3" d="M292.4,346.6c-0.9,1.1-1.9,1.5-3.3,1.5c-2.3,0-3.7-1.6-3.7-3.7c0-2.2,1.6-3.7,3.8-3.7c2.1,0,3.5,1.3,3.5,3.7
		v0.4h-6c0.1,1.2,1.1,2.2,2.4,2.2c1.1,0,1.8-0.4,2.4-1.1L292.4,346.6z M291.3,343.7c0-1.2-0.9-2-2.2-2c-1.4,0-2.3,0.8-2.4,2H291.3z"
		/>
	<path class="st3" d="M300.7,346.6L300.7,346.6c-0.5,0.8-1.5,1.4-2.9,1.4c-2.1,0-3.7-1.6-3.7-3.7c0-2.1,1.6-3.7,3.9-3.7
		c1.1,0,2,0.4,2.7,1.2h0v-5.3h1.2v11.3h-1.2V346.6z M298.1,341.7c-1.6,0-2.6,1.1-2.6,2.6c0,1.5,1,2.6,2.6,2.6s2.6-1.1,2.6-2.6
		C300.7,342.9,299.7,341.7,298.1,341.7z"/>
	<path class="st3" d="M310.8,346.6c-0.9,1.1-1.9,1.5-3.3,1.5c-2.3,0-3.7-1.6-3.7-3.7c0-2.2,1.6-3.7,3.8-3.7c2.1,0,3.5,1.3,3.5,3.7
		v0.4h-6c0.1,1.2,1.1,2.2,2.4,2.2c1.1,0,1.8-0.4,2.4-1.1L310.8,346.6z M309.8,343.7c0-1.2-0.9-2-2.2-2c-1.4,0-2.3,0.8-2.4,2H309.8z"
		/>
	<path class="st3" d="M313,342.5c0-0.6-0.1-1.2-0.1-1.7h1.2c0,0.4,0,0.8,0,1.2h0c0.3-0.7,1.2-1.3,2.5-1.3c0.2,0,0.3,0,0.5,0.1
		l-0.1,1.2c-0.2-0.1-0.4-0.1-0.7-0.1c-1.5,0-2.2,1-2.2,2.6v3.4H313V342.5z"/>
	<path class="st3" d="M321.8,340.7c2.3,0,4,1.5,4,3.7s-1.7,3.7-4,3.7s-4-1.5-4-3.7S319.5,340.7,321.8,340.7z M321.8,347
		c1.6,0,2.6-1.1,2.6-2.6c0-1.5-1-2.6-2.6-2.6c-1.6,0-2.6,1.1-2.6,2.6C319.2,345.8,320.2,347,321.8,347z"/>
	<path class="st3" d="M334.8,349.5c-0.5,1.2-1,2-2.5,2c-0.3,0-0.8,0-1.1-0.2l0.2-1c0.3,0.1,0.5,0.1,0.9,0.1c0.8,0,1.1-0.5,1.4-1.2
		l0.5-1.3l-3.1-7.1h1.4l2.3,5.5h0l2.2-5.5h1.3L334.8,349.5z"/>
	<path class="st3" d="M344.2,346c0.5,0.6,1,0.9,1.9,0.9c0.8,0,1.6-0.3,1.6-1.1c0-0.8-0.8-0.9-1.6-1.1c-1.4-0.3-2.6-0.6-2.6-2
		c0-1.4,1.4-2.1,2.8-2.1c1,0,2,0.4,2.5,1.3l-1,0.6c-0.3-0.5-0.8-0.8-1.6-0.8c-0.7,0-1.5,0.3-1.5,1c0,0.6,0.9,0.8,1.9,1
		c1.3,0.2,2.4,0.7,2.4,2.1c0,1.6-1.5,2.2-3,2.2c-1.2,0-2.2-0.3-2.9-1.3L344.2,346z"/>
	<path class="st3" d="M357.2,346.2c0,0.6,0.1,1.2,0.1,1.7h-1.2c0-0.4,0-0.8,0-1.2h0c-0.3,0.7-1.2,1.3-2.5,1.3
		c-1.9,0-2.8-1.2-2.8-2.9v-4.3h1.2v4.2c0,1.2,0.5,1.9,1.7,1.9c1.6,0,2.3-1.1,2.3-2.7v-3.4h1.2V346.2z"/>
	<path class="st3" d="M364,336.5h1.2v5.3h0c0.3-0.6,1.2-1.2,2.4-1.2c1.9,0,2.8,1.2,2.8,2.9v4.3h-1.2v-4.2c0-1.2-0.5-1.9-1.7-1.9
		c-1.6,0-2.3,1.1-2.3,2.7v3.4H364V336.5z"/>
	<path class="st3" d="M379.2,346.2c0,0.6,0.1,1.2,0.1,1.7h-1.2c0-0.4,0-0.8,0-1.2h0c-0.3,0.7-1.2,1.3-2.5,1.3
		c-1.9,0-2.8-1.2-2.8-2.9v-4.3h1.2v4.2c0,1.2,0.5,1.9,1.7,1.9c1.6,0,2.3-1.1,2.3-2.7v-3.4h1.2V346.2z"/>
	<path class="st3" d="M388.2,346.6c-0.9,1.1-1.9,1.5-3.3,1.5c-2.3,0-3.7-1.6-3.7-3.7c0-2.2,1.6-3.7,3.8-3.7c2.1,0,3.5,1.3,3.5,3.7
		v0.4h-6c0.1,1.2,1.1,2.2,2.4,2.2c1.1,0,1.8-0.4,2.4-1.1L388.2,346.6z M387.1,343.7c0-1.2-0.9-2-2.2-2c-1.4,0-2.3,0.8-2.4,2H387.1z"
		/>
	<path class="st3" d="M390.4,336.5h1.2v11.3h-1.2V336.5z"/>
	<path class="st3" d="M394.2,336.5h1.2v11.3h-1.2V336.5z"/>
	<path class="st3" d="M397.8,341.7c0.8-0.7,1.9-1.1,2.9-1.1c2.2,0,3.1,1,3.1,3v3c0,0.4,0,0.9,0.1,1.2h-1.2c-0.1-0.3-0.1-0.8-0.1-1h0
		c-0.5,0.7-1.3,1.2-2.4,1.2c-1.5,0-2.8-0.7-2.8-2.1c0-2.3,2.8-2.5,4.7-2.5h0.5v-0.2c0-1-0.7-1.5-1.8-1.5c-0.8,0-1.6,0.3-2.2,0.8
		L397.8,341.7z M401.4,344.5c-1.6,0-2.6,0.4-2.6,1.3c0,0.9,0.7,1.2,1.6,1.2c1.4,0,2.1-1,2.2-2.1v-0.5H401.4z"/>
	<path class="st3" d="M416.7,346.6L416.7,346.6c-0.5,0.8-1.5,1.4-2.9,1.4c-2.1,0-3.7-1.6-3.7-3.7c0-2.1,1.6-3.7,3.9-3.7
		c1.1,0,2,0.4,2.7,1.2h0v-5.3h1.2v11.3h-1.2V346.6z M414,341.7c-1.6,0-2.6,1.1-2.6,2.6c0,1.5,1,2.6,2.6,2.6s2.6-1.1,2.6-2.6
		C416.7,342.9,415.6,341.7,414,341.7z"/>
	<path class="st3" d="M426.8,346.6c-0.9,1.1-1.9,1.5-3.3,1.5c-2.3,0-3.7-1.6-3.7-3.7c0-2.2,1.6-3.7,3.8-3.7c2.1,0,3.5,1.3,3.5,3.7
		v0.4h-6c0.1,1.2,1.1,2.2,2.4,2.2c1.1,0,1.8-0.4,2.4-1.1L426.8,346.6z M425.7,343.7c0-1.2-0.9-2-2.2-2s-2.3,0.8-2.4,2H425.7z"/>
	<path class="st3" d="M438.6,342.6c-0.5-0.6-1.1-0.9-1.9-0.9c-1.7,0-2.5,1.2-2.5,2.6s1,2.6,2.5,2.6c0.8,0,1.4-0.3,1.9-0.9l0.9,0.8
		c-0.7,0.8-1.7,1.1-2.8,1.1c-2.3,0-3.8-1.5-3.8-3.7c0-2.1,1.5-3.7,3.8-3.7c1.1,0,2.1,0.3,2.8,1.1L438.6,342.6z"/>
	<path class="st3" d="M440.9,341.7c0.8-0.7,1.9-1.1,2.9-1.1c2.2,0,3.1,1,3.1,3v3c0,0.4,0,0.9,0.1,1.2h-1.2c-0.1-0.3-0.1-0.8-0.1-1h0
		c-0.5,0.7-1.3,1.2-2.4,1.2c-1.5,0-2.8-0.7-2.8-2.1c0-2.3,2.8-2.5,4.7-2.5h0.5v-0.2c0-1-0.7-1.5-1.8-1.5c-0.8,0-1.6,0.3-2.2,0.8
		L440.9,341.7z M444.4,344.5c-1.6,0-2.6,0.4-2.6,1.3c0,0.9,0.7,1.2,1.6,1.2c1.4,0,2.1-1,2.2-2.1v-0.5H444.4z"/>
	<path class="st3" d="M449.2,342.5c0-0.6-0.1-1.2-0.1-1.7h1.2c0,0.4,0,0.8,0,1.2h0c0.3-0.7,1.2-1.3,2.5-1.3c0.2,0,0.3,0,0.5,0.1
		l-0.1,1.2c-0.2-0.1-0.4-0.1-0.7-0.1c-1.5,0-2.2,1-2.2,2.6v3.4h-1.2V342.5z"/>
	<path class="st3" d="M454.7,336.5h1.2v5.3h0c0.7-0.8,1.6-1.2,2.7-1.2c2.3,0,3.9,1.6,3.9,3.7c0,2.1-1.6,3.7-3.7,3.7
		c-1.3,0-2.4-0.6-2.8-1.4h0v1.2h-1.2V336.5z M458.5,347c1.6,0,2.6-1.1,2.6-2.6c0-1.5-1-2.6-2.6-2.6s-2.6,1.1-2.6,2.6
		C455.9,345.8,456.9,347,458.5,347z"/>
	<path class="st3" d="M467.9,340.7c2.3,0,4,1.5,4,3.7s-1.7,3.7-4,3.7s-4-1.5-4-3.7S465.6,340.7,467.9,340.7z M467.9,347
		c1.6,0,2.6-1.1,2.6-2.6c0-1.5-1-2.6-2.6-2.6s-2.6,1.1-2.6,2.6C465.3,345.8,466.3,347,467.9,347z"/>
	<path class="st3" d="M473.8,342.5c0-0.6-0.1-1.2-0.1-1.7h1.2c0,0.4,0,0.8,0,1.2h0c0.3-0.7,1.2-1.3,2.5-1.3c1.9,0,2.8,1.2,2.8,2.9
		v4.3H479v-4.2c0-1.2-0.5-1.9-1.7-1.9c-1.6,0-2.3,1.1-2.3,2.7v3.4h-1.2V342.5z"/>
	<path class="st3" d="M486.1,340.7c2.3,0,4,1.5,4,3.7s-1.7,3.7-4,3.7s-4-1.5-4-3.7S483.8,340.7,486.1,340.7z M486.1,347
		c1.6,0,2.6-1.1,2.6-2.6c0-1.5-1-2.6-2.6-2.6s-2.6,1.1-2.6,2.6C483.5,345.8,484.5,347,486.1,347z"/>
	<path class="st3" d="M502.9,346.6c-0.9,1.1-1.9,1.5-3.3,1.5c-2.3,0-3.7-1.6-3.7-3.7c0-2.2,1.6-3.7,3.8-3.7c2.1,0,3.5,1.3,3.5,3.7
		v0.4h-6c0.1,1.2,1.1,2.2,2.4,2.2c1.1,0,1.8-0.4,2.4-1.1L502.9,346.6z M501.9,343.7c0-1.2-0.9-2-2.2-2s-2.3,0.8-2.4,2H501.9z"/>
	<path class="st3" d="M505.3,346c0.5,0.6,1,0.9,1.9,0.9c0.8,0,1.6-0.3,1.6-1.1c0-0.8-0.8-0.9-1.6-1.1c-1.4-0.3-2.6-0.6-2.6-2
		c0-1.4,1.4-2.1,2.8-2.1c1,0,2,0.4,2.5,1.3l-1,0.6c-0.3-0.5-0.8-0.8-1.6-0.8c-0.7,0-1.5,0.3-1.5,1c0,0.6,0.9,0.8,1.9,1
		c1.3,0.2,2.4,0.7,2.4,2.1c0,1.6-1.5,2.2-3,2.2c-1.2,0-2.1-0.3-2.9-1.3L505.3,346z"/>
	<path class="st3" d="M516.4,336.5h1.2v11.3h-1.2V336.5z"/>
	<path class="st3" d="M519.9,341.7c0.8-0.7,1.9-1.1,2.9-1.1c2.2,0,3.1,1,3.1,3v3c0,0.4,0,0.9,0.1,1.2h-1.2c-0.1-0.3-0.1-0.8-0.1-1h0
		c-0.5,0.7-1.3,1.2-2.4,1.2c-1.5,0-2.8-0.7-2.8-2.1c0-2.3,2.8-2.5,4.7-2.5h0.5v-0.2c0-1-0.7-1.5-1.8-1.5c-0.8,0-1.6,0.3-2.2,0.8
		L519.9,341.7z M523.5,344.5c-1.6,0-2.6,0.4-2.6,1.3c0,0.9,0.7,1.2,1.6,1.2c1.4,0,2.1-1,2.2-2.1v-0.5H523.5z"/>
	<path class="st3" d="M532.6,342.5c0-0.6-0.1-1.2-0.1-1.7h1.2c0,0.4,0,0.8,0,1.2h0c0.3-0.7,1.2-1.3,2.5-1.3c1.6,0,2.1,0.9,2.3,1.3
		c0.5-0.8,1.2-1.3,2.3-1.3c2.1,0,2.8,1.1,2.8,2.9v4.3h-1.2v-4.2c0-1-0.4-1.9-1.8-1.9c-1,0-1.9,0.8-1.9,2.1v4h-1.2v-4
		c0-1.5-0.4-2.1-1.4-2.1c-1.6,0-2.3,1.1-2.3,2.7v3.4h-1.2V342.5z"/>
	<path class="st3" d="M546,341.7c0.8-0.7,1.9-1.1,2.9-1.1c2.2,0,3.1,1,3.1,3v3c0,0.4,0,0.9,0.1,1.2H551c-0.1-0.3-0.1-0.8-0.1-1h0
		c-0.5,0.7-1.3,1.2-2.4,1.2c-1.5,0-2.8-0.7-2.8-2.1c0-2.3,2.8-2.5,4.7-2.5h0.5v-0.2c0-1-0.7-1.5-1.8-1.5c-0.8,0-1.6,0.3-2.2,0.8
		L546,341.7z M549.6,344.5c-1.6,0-2.6,0.4-2.6,1.3c0,0.9,0.7,1.2,1.6,1.2c1.4,0,2.1-1,2.2-2.1v-0.5H549.6z M549.6,337h1.7l-2.3,2.2
		h-1.1L549.6,337z"/>
	<path class="st3" d="M554.5,346c0.5,0.6,1,0.9,1.9,0.9c0.8,0,1.6-0.3,1.6-1.1c0-0.8-0.8-0.9-1.6-1.1c-1.4-0.3-2.6-0.6-2.6-2
		c0-1.4,1.4-2.1,2.8-2.1c1,0,2,0.4,2.5,1.3l-1,0.6c-0.3-0.5-0.8-0.8-1.6-0.8c-0.7,0-1.5,0.3-1.5,1c0,0.6,0.9,0.8,1.9,1
		c1.3,0.2,2.4,0.7,2.4,2.1c0,1.6-1.5,2.2-3,2.2c-1.2,0-2.1-0.3-2.9-1.3L554.5,346z"/>
	<path class="st3" d="M565.4,336.5h1.2v5.3h0c0.7-0.8,1.6-1.2,2.7-1.2c2.3,0,3.9,1.6,3.9,3.7c0,2.1-1.6,3.7-3.7,3.7
		c-1.3,0-2.4-0.6-2.8-1.4h0v1.2h-1.2V336.5z M569.2,347c1.6,0,2.6-1.1,2.6-2.6c0-1.5-1-2.6-2.6-2.6s-2.6,1.1-2.6,2.6
		C566.6,345.8,567.6,347,569.2,347z"/>
	<path class="st3" d="M575,341.7c0.8-0.7,1.9-1.1,2.9-1.1c2.2,0,3.1,1,3.1,3v3c0,0.4,0,0.9,0.1,1.2h-1.2c-0.1-0.3-0.1-0.8-0.1-1h0
		c-0.5,0.7-1.3,1.2-2.4,1.2c-1.5,0-2.8-0.7-2.8-2.1c0-2.3,2.8-2.5,4.7-2.5h0.5v-0.2c0-1-0.7-1.5-1.8-1.5c-0.8,0-1.6,0.3-2.2,0.8
		L575,341.7z M578.6,344.5c-1.6,0-2.6,0.4-2.6,1.3c0,0.9,0.7,1.2,1.6,1.2c1.4,0,2.1-1,2.2-2.1v-0.5H578.6z"/>
	<path class="st3" d="M584.6,349.4c0,0.7-0.4,2-2.2,2c-0.3,0-0.6,0-0.9-0.2l0.1-1c0.2,0.1,0.4,0.1,0.6,0.1c0.9,0,1.1-0.7,1.1-1.5
		v-8.1h1.2V349.4z M584,337.2c0.5,0,0.9,0.4,0.9,0.9c0,0.5-0.4,0.9-0.9,0.9c-0.5,0-0.9-0.4-0.9-0.9
		C583.1,337.6,583.5,337.2,584,337.2z"/>
	<path class="st3" d="M587,341.7c0.8-0.7,1.9-1.1,2.9-1.1c2.2,0,3.1,1,3.1,3v3c0,0.4,0,0.9,0.1,1.2h-1.2c-0.1-0.3-0.1-0.8-0.1-1h0
		c-0.5,0.7-1.3,1.2-2.4,1.2c-1.5,0-2.8-0.7-2.8-2.1c0-2.3,2.8-2.5,4.7-2.5h0.5v-0.2c0-1-0.7-1.5-1.8-1.5c-0.8,0-1.6,0.3-2.2,0.8
		L587,341.7z M590.5,344.5c-1.6,0-2.6,0.4-2.6,1.3c0,0.9,0.7,1.2,1.6,1.2c1.4,0,2.1-1,2.2-2.1v-0.5H590.5z"/>
</g>
<g class="st2">
	<path class="st3" d="M340,362.8c-0.9,1.1-1.9,1.5-3.3,1.5c-2.3,0-3.7-1.7-3.7-3.7c0-2.2,1.6-3.7,3.8-3.7c2.1,0,3.5,1.4,3.5,3.7v0.4
		h-6c0.1,1.2,1.1,2.2,2.4,2.2c1.1,0,1.8-0.4,2.4-1.1L340,362.8z M338.9,359.9c0-1.2-0.9-2-2.2-2c-1.4,0-2.3,0.8-2.4,2H338.9z"/>
	<path class="st3" d="M342.2,358.7c0-0.6-0.1-1.2-0.1-1.7h1.2c0,0.4,0,0.8,0,1.2h0c0.3-0.7,1.2-1.3,2.5-1.3c1.9,0,2.8,1.2,2.8,2.9
		v4.3h-1.2v-4.2c0-1.2-0.5-1.9-1.7-1.9c-1.6,0-2.3,1.1-2.3,2.7v3.4h-1.2V358.7z"/>
	<path class="st3" d="M355,358h-2.2v3.5c0,0.9,0,1.6,1.1,1.6c0.4,0,0.8-0.1,1.1-0.2l0,1.1c-0.4,0.2-1,0.3-1.4,0.3
		c-1.8,0-2-0.9-2-2.4V358H350v-1h1.6v-2h1.2v2h2.2V358z"/>
	<path class="st3" d="M356.5,358.7c0-0.6-0.1-1.2-0.1-1.7h1.2c0,0.4,0,0.8,0,1.2h0c0.3-0.7,1.2-1.3,2.5-1.3c0.2,0,0.3,0,0.5,0.1
		l-0.1,1.2c-0.2-0.1-0.4-0.1-0.7-0.1c-1.5,0-2.2,1-2.2,2.6v3.4h-1.2V358.7z"/>
	<path class="st3" d="M368.4,362.8c-0.9,1.1-1.9,1.5-3.3,1.5c-2.3,0-3.7-1.7-3.7-3.7c0-2.2,1.6-3.7,3.8-3.7c2.1,0,3.5,1.4,3.5,3.7
		v0.4h-6c0.1,1.2,1.1,2.2,2.4,2.2c1.1,0,1.8-0.4,2.4-1.1L368.4,362.8z M367.3,359.9c0-1.2-0.9-2-2.2-2c-1.4,0-2.3,0.8-2.4,2H367.3z"
		/>
	<path class="st3" d="M375.1,352.7h1.2v11.3h-1.2V352.7z"/>
	<path class="st3" d="M378.7,357.9c0.8-0.7,1.9-1.1,2.9-1.1c2.2,0,3.1,1,3.1,3v3c0,0.4,0,0.9,0.1,1.2h-1.2c-0.1-0.3-0.1-0.8-0.1-1h0
		c-0.5,0.7-1.3,1.2-2.4,1.2c-1.5,0-2.8-0.7-2.8-2.1c0-2.3,2.8-2.5,4.7-2.5h0.5v-0.2c0-1-0.7-1.5-1.8-1.5c-0.8,0-1.6,0.3-2.2,0.8
		L378.7,357.9z M382.2,360.7c-1.6,0-2.6,0.4-2.6,1.4c0,0.9,0.7,1.2,1.6,1.2c1.4,0,2.2-1,2.2-2.1v-0.5H382.2z"/>
	<path class="st3" d="M387.1,362.2c0.5,0.6,1,0.9,1.9,0.9c0.8,0,1.6-0.3,1.6-1.1c0-0.8-0.8-0.9-1.6-1.1c-1.4-0.3-2.6-0.6-2.6-2
		c0-1.4,1.4-2.1,2.8-2.1c1,0,2,0.4,2.5,1.3l-1,0.6c-0.3-0.5-0.8-0.8-1.6-0.8c-0.7,0-1.5,0.3-1.5,1c0,0.6,0.9,0.8,1.9,1
		c1.3,0.2,2.4,0.7,2.4,2.1c0,1.6-1.5,2.2-3,2.2c-1.2,0-2.2-0.3-2.9-1.3L387.1,362.2z"/>
	<path class="st3" d="M401.6,356.9c2.3,0,4,1.5,4,3.7s-1.7,3.7-4,3.7s-4-1.5-4-3.7S399.3,356.9,401.6,356.9z M401.6,363.2
		c1.6,0,2.6-1.1,2.6-2.6s-1-2.6-2.6-2.6s-2.6,1.1-2.6,2.6S400,363.2,401.6,363.2z"/>
	<path class="st3" d="M411.5,358h-2.2v3.5c0,0.9,0,1.6,1.1,1.6c0.4,0,0.8-0.1,1.1-0.2l0,1.1c-0.4,0.2-1,0.3-1.4,0.3
		c-1.8,0-2-0.9-2-2.4V358h-1.6v-1h1.6v-2h1.2v2h2.2V358z"/>
	<path class="st3" d="M413,358.7c0-0.6-0.1-1.2-0.1-1.7h1.2c0,0.4,0,0.8,0,1.2h0c0.3-0.7,1.2-1.3,2.5-1.3c0.2,0,0.3,0,0.5,0.1
		l-0.1,1.2c-0.2-0.1-0.4-0.1-0.7-0.1c-1.5,0-2.2,1-2.2,2.6v3.4H413V358.7z"/>
	<path class="st3" d="M418.5,357.9c0.8-0.7,1.9-1.1,2.9-1.1c2.2,0,3.1,1,3.1,3v3c0,0.4,0,0.9,0.1,1.2h-1.2c-0.1-0.3-0.1-0.8-0.1-1h0
		c-0.5,0.7-1.3,1.2-2.4,1.2c-1.5,0-2.8-0.7-2.8-2.1c0-2.3,2.8-2.5,4.7-2.5h0.5v-0.2c0-1-0.7-1.5-1.8-1.5c-0.8,0-1.6,0.3-2.2,0.8
		L418.5,357.9z M422.1,360.7c-1.6,0-2.6,0.4-2.6,1.4c0,0.9,0.7,1.2,1.6,1.2c1.4,0,2.1-1,2.2-2.1v-0.5H422.1z"/>
	<path class="st3" d="M427,362.2c0.5,0.6,1,0.9,1.9,0.9c0.8,0,1.6-0.3,1.6-1.1c0-0.8-0.8-0.9-1.6-1.1c-1.4-0.3-2.6-0.6-2.6-2
		c0-1.4,1.4-2.1,2.8-2.1c1,0,2,0.4,2.5,1.3l-1,0.6c-0.3-0.5-0.8-0.8-1.6-0.8c-0.7,0-1.5,0.3-1.5,1c0,0.6,0.9,0.8,1.9,1
		c1.3,0.2,2.4,0.7,2.4,2.1c0,1.6-1.5,2.2-3,2.2c-1.2,0-2.1-0.3-2.9-1.3L427,362.2z"/>
	<path class="st3" d="M435.5,363.3c0,0.5-0.5,0.9-0.9,0.9s-0.9-0.4-0.9-0.9c0-0.5,0.4-0.9,0.9-0.9S435.5,362.8,435.5,363.3z"/>
</g>
<path class="st12" d="M62.8,73.1c0,0-16.2,22.7-18.6,29c-2.4,6.3-4.4,20.5,10.6,23s31.3-1.9,31.3-1.9s13.7-5,5.6-21.8
	s-17.4-28-17.4-28L62.8,73.1z"/>
<g>
	<path class="st13" d="M63.2,85.3c0,0,3.2,6.2,0.1,8.4c-1.2,0.8-2.6,1.9-4.1,2.4c-2.7,1-4.8,2.8-2.4,6.4l0,0l-2.2,1
		c-2.1,1.2-3,3.3-1.9,5.5l0.3,0.4l-0.9,0.5c-2.4,1.4-4.8,5-0.5,7.2l0,0h29.9l0,0l0,0c3.4-1.9,4.7-5.6-1.1-8l0,0l0,0
		c1.4-1.9,1.3-4.9-0.6-6.3l-2.3-1.1l0,0l0,0c2.5-2.1,1.5-5-2-6.4l-1.6-0.8C73.9,94.5,73.4,84.5,63.2,85.3z"/>
	<ellipse class="st13" cx="66.5" cy="116.7" rx="15.5" ry="1.3"/>
</g>
<path class="st12" d="M54.9,62.9c0,0,6.7,7.9,7.3,10.4c0.8,3.3,0.6,0.1,0.6,0.1l11.5,0.2l0,0c0,0,1.3-6.6,4.4-11.4
	c0,0,1.2-1.5-3.6-2.1c-4.8-0.6-12.7-0.6-16.1,0.1C55.7,61.1,54.9,62.9,54.9,62.9z"/>
<path class="st14" d="M60.9,72.8l0.4,2.1c0.1,0.6,0.6,1,1.1,1l12.4,0.3c0.6,0,1.1-0.4,1.2-1c0.2-1.3,0.4-3.6-1.1-4
	c-1.7-0.4-9.7,0-12.9,0.2C61.3,71.4,60.8,72.1,60.9,72.8z"/>
<g id="_xBF_cómo_puedo_cambiar__estas_cifras_x3F__00000152263609578016933160000014136288578083399866_">
</g>
<g id="Como_todo_amante_de_los_perros_x2C__queremos_ayudar_a_contribuir_en_00000011733512487406081120000002725721765515406722_">
</g>
<g id="planeta__x28_1_x29__xA0_Imagen_00000013163211555353389270000004020259514959330223_">
</g>
<g id="ALIMENTACIÓN_SALUDABLE">
</g>
<g id="Una_de_las_características_más_importantes_de_nuestro_alimento_00000100354037678002338480000007178312657788550569_">
</g>
<g id="Grupo_2_00000024000952648228487930000017275331328228087186_">
	<g id="_________Buena_palatabilidad__La_proteína_de_insecto_es_atracti_00000129909447037396045210000001024845338240710322_">
	</g>
	<g id="___Alto_contenido_proteico__Los_alimentos_a_base_de_insecto__so_00000060005588707382666440000007434461005704951179_">
	</g>
	<g id="_____Buena_fuente_de_grasa_Los_insectos_además_presentan__ácido_00000121241549061665136040000001874871901791481517_">
	</g>
	
		<g id="______Sales_minerales__Aporte_de_potasio_x2C__calcio_x2C__hierro__y__ma_00000172442137195194404910000017939992249353481656_">
	</g>
	<g id="___Pellet_hipoalergénico_Hipoalergénicas_debido_a_la_falta__de_00000018234623172683213150000016354546497805835144_">
	</g>
	<g id="_________Fácil_digestión__La_digestibilidad_de_este_tipo_de__al_00000014592046028586798640000014716350303710368679_">
	</g>
</g>
<g id="Elipse_1_00000049204041052049763990000018105301924899697042_" class="st2">
</g>
<g id="Grupo_3_00000120528684210048104610000017274967786067115692_">
</g>
<g id="lineas_abajo_00000085956935671561973180000011788473021631000194_">
</g>
<g id="lineas_abajo_copia_00000068656291613933907220000004900866062167868335_">
</g>
<g id="bolsa_xA0_Imagen_00000150061797833055288570000015644897799785854888_">
</g>
<g id="pelet_xA0_Imagen_00000032620151523953347190000001636828173157071274_">
</g>
<g id="CUIDADO_DEL__x0D_MEDIO_AMBIENTE">
</g>
<g id="La_proteína_de_insectos_comparada_a_los_alimentos_caninos_tradi_00000132768194183204093320000006353738126914280069_">
</g>
<g id="Menor_consumo_de__agua_en_la_producción__de_alimentos_00000183228761448657468520000014979274667922305698_">
</g>
<g id="Menor_emisiones__x0D_de_gases">
</g>
<g id="Menor_gasto_de_recursos_naturales_00000183237296809122879940000007563811076549819577_">
</g>
<g id="Menor_producción_de_desechos_agrícolas_00000109713708323889345400000004601833777820593033_">
</g>
<g id="Producido_localmente">
</g>
</svg>
