<?xml version="1.0" encoding="utf-8"?>
<!-- Generator: Adobe Illustrator 26.2.1, SVG Export Plug-In . SVG Version: 6.00 Build 0)  -->
<svg version="1.1" id="Capa_1" xmlns="http://www.w3.org/2000/svg" xmlns:xlink="http://www.w3.org/1999/xlink" x="0px" y="0px"
	 viewBox="0 0 742 484" style="enable-background:new 0 0 742 484;" xml:space="preserve">
<style type="text/css">
	.st0{fill:#75C699;}
	.st1{fill:none;}
	.st2{fill:#184F4B;}
	.st3{font-family:'LuloCleanW01-OneBold';}
	.st4{font-size:30px;}
	.st5{font-family:'Avenir-Medium';}
	.st6{font-size:18px;}
	.st7{opacity:0.5;fill:#184F4B;enable-background:new    ;}
	.st8{fill:#1B504B;}
	.st9{fill:#73C3B3;}
	.st10{fill:none;stroke:#1B504B;stroke-width:4;stroke-linecap:round;stroke-linejoin:round;}
	.st11{fill:#E3B240;}
	.st12{fill:#8A5244;}
	.st13{fill:#B96C5A;}
	.st14{fill:#123B38;}
	.st15{font-size:16px;}
	.st16{font-size:15px;}
	.st17{fill:#1F8D7F;}
	.st18{fill:#8C5344;}
	.st19{fill:#70C2B4;}
	.st20{enable-background:new    ;}
</style>
<g id="Capa_0__x2B__Layer_3__x2B__Layer_13__x2B__Elipse_1_copia__x2B__Forma_15__x2B__Forma_15_copia__x2B__beneficios_de_la__proteína_de_insecto:__xBF_Por_qué_Circular_Pet_x3F____x2B__Layer_5__x2B__Rectangle_1__x2B__ducha__x2B__Layer_21__x2B__Layer_18__x2B__caca__x2B__juguete__x2B__comida_xA0_Imagen_00000075130668628454935530000001341663195064224159_">
</g>
<path class="st0" d="M711.3,86.2l-0.4,241.2c0,28.5-25.4,51.5-56.6,51.5l-541-0.7c-31.2-0.1-56.4-23.1-56.4-51.5V133.2
	c2.8,0.5,5.8,0.7,8.7,0.7c26.8,0,48.5-19.8,48.5-44.2c0-16.9-10.3-31.5-25.5-39c-3.1-1.9-6.4-3.5-10-4.7
	c9.4-6.6,21.1-10.5,33.9-10.5h543.1C686.4,35.5,711.3,58.2,711.3,86.2z"/>
<rect x="118.8" y="62.5" class="st1" width="567.6" height="54.8"/>
<text transform="matrix(1 0 0 1 123.8892 85.9249)" class="st2 st3 st4">Recolección de heces</text>
<rect x="123" y="105.8" class="st1" width="529.7" height="40.4"/>
<text transform="matrix(1 0 0 1 122.989 119.3584)" class="st2 st5 st6">Utiliza bolsas que se demoren menos tiempo al degradarse:</text>
<path class="st7" d="M519.7,301.8H240.5c-35.8,0-64.8-29-64.8-64.8v-30.6c0-35.8,29-64.8,64.8-64.8h279.2c35.8,0,64.8,29,64.8,64.8
	V237C584.5,272.8,555.5,301.8,519.7,301.8z"/>
<path class="st8" d="M218.5,163.4v77.4c0,3.5,2.9,6.4,6.4,6.4h52.8c3.5,0,6.4-2.9,6.4-6.4v-77.1c0-3.6-2.9-6.5-6.5-6.4l0,0
	c-3.5,0-6.4,2.9-6.4,6.5v8.5c0,4.6-4.6,7.7-8.8,6l-3.3-1.3c-0.7-0.3-1.5-0.5-2.3-0.5l-10.8-0.1c-1,0-1.9,0.2-2.8,0.6l-0.9,0.4
	c-4.3,2-9.2-1.1-9.2-5.8v-8.3c0-3.5-2.9-6.4-6.4-6.4c-0.6,0-1.2,0-1.8,0C221.4,157,218.5,159.9,218.5,163.4z"/>
<g>
	<path class="st9" d="M349.7,162.1v77.4c0,3.5,2.9,6.4,6.4,6.4h52.8c3.5,0,6.4-2.9,6.4-6.4v-77.1c0-3.6-2.9-6.5-6.5-6.4l0,0
		c-3.5,0-6.4,2.9-6.4,6.5v8.5c0,4.6-4.6,7.7-8.8,6l-3.3-1.3c-0.7-0.3-1.5-0.5-2.3-0.5l-10.8-0.1c-1,0-1.9,0.2-2.8,0.6l-0.9,0.4
		c-4.3,2-9.2-1.1-9.2-5.8V162c0-3.5-2.9-6.4-6.4-6.4c-0.6,0-1.2,0-1.8,0C352.6,155.6,349.7,158.5,349.7,162.1z"/>
	<g>
		<g>
			<path class="st10" d="M365.2,210c0.4-7.2,5.2-13.3,11.7-15.7"/>
			<g>
				<polygon class="st8" points="376.1,200.9 385.5,193.5 374.3,189.1 				"/>
			</g>
		</g>
	</g>
	<g>
		<g>
			<path class="st10" d="M392.7,226.2c-2.8,1.8-6.1,2.8-9.6,2.8c-5.8,0-10.9-2.8-14.2-7"/>
			<g>
				<polygon class="st8" points="375.3,220.8 365.4,214 364.5,225.9 				"/>
			</g>
		</g>
	</g>
	<g>
		<g>
			<path class="st10" d="M389.5,194.5c6.6,2.6,11.4,9.1,11.4,16.6c0,1.8-0.3,3.6-0.8,5.2"/>
			<g>
				<polygon class="st8" points="395.4,211.8 395.6,223.8 405.9,217.6 				"/>
			</g>
		</g>
	</g>
</g>
<path class="st11" d="M519.6,301.4L519.6,301.4c-35.8,0-64.8-29-64.8-64.8v-30.7c0-35.8,29-64.8,64.8-64.8l0,0
	c35.8,0,64.8,29,64.8,64.8v30.7C584.5,272.4,555.5,301.4,519.6,301.4z"/>
<g>
	<g>
		<path class="st12" d="M556.9,168.5l-8.6,70.5c-0.4,3.3-3.4,5.7-6.8,5.3l-47.8-5.8c-3.3-0.4-5.7-3.4-5.3-6.8l8.6-70.5
			c0.4-3.1,3-5.4,6.1-5.3l1.6,1.5l2.3-1.1h0.2l1.9,1.5l2.1-1l1.8,1.4l2.3-0.9l1.9,1.4l2.3-0.9l2.1,1.5l2.1-1l1.8,1.6l2.1-1.1h0.1
			l1.7,1.5l1.8-1l1.6,1.4l2.1-1h0.1l1.7,1.4l2.2-0.9h0.1l1.8,1.5l2.1-1.1l2,1.6l2.2-1.1h0.1l1.8,1.7l1.8-1.3l0.8,0.1
			C554.9,162.1,557.3,165.2,556.9,168.5z"/>
		<path class="st13" d="M552.6,170.8l-8.6,70.5c-0.4,3.3-3.4,5.7-6.8,5.3l-47.8-5.8c-3.3-0.4-5.7-3.4-5.3-6.8l8.6-70.5
			c0.4-3.3,3.4-5.7,6.8-5.3l47.8,5.8C550.6,164.4,553,167.4,552.6,170.8z"/>
	</g>
	<path class="st12" d="M544.5,236.5l-0.6,4.8c-0.4,3.3-3.4,5.7-6.8,5.3l-47.8-5.8c-3.3-0.4-5.7-3.4-5.3-6.8l0.6-4.8L544.5,236.5z"/>
</g>
<rect x="212.1" y="254.3" class="st1" width="79.1" height="42.4"/>
<text transform="matrix(1 0 0 1 224.3879 266.4341)" class="st14 st5 st15">Plástica</text>
<text transform="matrix(1 0 0 1 219.1879 283.4341)" class="st14 st5 st15">150 años</text>
<rect x="326.4" y="254.3" class="st1" width="115.1" height="42.4"/>
<text transform="matrix(1 0 0 1 330.6362 266.4341)" class="st14 st5 st15">Biodegradable</text>
<text transform="matrix(1 0 0 1 353.4362 283.4341)" class="st14 st5 st15">2-3 años</text>
<rect x="459.7" y="254.3" class="st1" width="115.1" height="42.4"/>
<text transform="matrix(1 0 0 1 497.1101 266.4341)" class="st14 st5 st15">Papel</text>
<text transform="matrix(1 0 0 1 497.2101 283.4341)" class="st14 st5 st15">1 año</text>
<rect x="155.8" y="320.4" class="st1" width="459.2" height="70.7"/>
<text transform="matrix(1.0535 0 0 1 165.7603 331.7637)" class="st2 st5 st16">Las bolsas de papel son una alternativa amigable al momento </text>
<text transform="matrix(1.0535 0 0 1 173.6616 347.8633)" class="st2 st5 st16">de llegar al vertedero y su huella de carbono es la más baja </text>
<text transform="matrix(1.0535 0 0 1 332.2129 364.0635)" class="st2 st5 st16">entre las otras. </text>
<path class="st17" d="M62.8,73.1c0,0-16.2,22.7-18.6,29c-2.4,6.3-4.4,20.5,10.6,23s31.3-1.9,31.3-1.9s13.7-5,5.6-21.8
	s-17.4-28-17.4-28L62.8,73.1z"/>
<g>
	<path class="st18" d="M63.2,85.3c0,0,3.2,6.2,0.1,8.4c-1.2,0.8-2.6,1.9-4.1,2.4c-2.7,1-4.8,2.8-2.4,6.4l0,0l-2.2,1
		c-2.1,1.2-3,3.3-1.9,5.5l0.3,0.4l-0.9,0.5c-2.4,1.4-4.8,5-0.5,7.2l0,0h29.9l0,0l0,0c3.4-1.9,4.7-5.6-1.1-8l0,0l0,0
		c1.4-1.9,1.3-4.9-0.6-6.3l-2.3-1.1l0,0l0,0c2.5-2.1,1.5-5-2-6.4l-1.6-0.8C73.9,94.5,73.4,84.5,63.2,85.3z"/>
	<ellipse class="st18" cx="66.5" cy="116.7" rx="15.5" ry="1.3"/>
</g>
<path class="st17" d="M54.9,62.9c0,0,6.7,7.9,7.3,10.4c0.8,3.3,0.6,0.1,0.6,0.1l11.5,0.2l0,0c0,0,1.3-6.6,4.4-11.4
	c0,0,1.2-1.5-3.6-2.1c-4.8-0.6-12.7-0.6-16.1,0.1C55.7,61.1,54.9,62.9,54.9,62.9z"/>
<path class="st19" d="M60.9,72.8l0.4,2.1c0.1,0.6,0.6,1,1.1,1l12.4,0.3c0.6,0,1.1-0.4,1.2-1c0.2-1.3,0.4-3.6-1.1-4
	c-1.7-0.4-9.7,0-12.9,0.2C61.3,71.4,60.8,72.1,60.9,72.8z"/>
<g id="_xBF_cómo_puedo_cambiar__estas_cifras_x3F__00000152263609578016933160000014136288578083399866_">
</g>
<g id="Como_todo_amante_de_los_perros_x2C__queremos_ayudar_a_contribuir_en_00000011733512487406081120000002725721765515406722_">
</g>
<g id="planeta__x28_1_x29__xA0_Imagen_00000013163211555353389270000004020259514959330223_">
</g>
<g id="ALIMENTACIÓN_SALUDABLE">
</g>
<g id="Una_de_las_características_más_importantes_de_nuestro_alimento_00000100354037678002338480000007178312657788550569_">
</g>
<g id="Grupo_2_00000024000952648228487930000017275331328228087186_">
	<g id="_________Buena_palatabilidad__La_proteína_de_insecto_es_atracti_00000129909447037396045210000001024845338240710322_">
	</g>
	<g id="___Alto_contenido_proteico__Los_alimentos_a_base_de_insecto__so_00000060005588707382666440000007434461005704951179_">
	</g>
	<g id="_____Buena_fuente_de_grasa_Los_insectos_además_presentan__ácido_00000121241549061665136040000001874871901791481517_">
	</g>
	
		<g id="______Sales_minerales__Aporte_de_potasio_x2C__calcio_x2C__hierro__y__ma_00000172442137195194404910000017939992249353481656_">
	</g>
	<g id="___Pellet_hipoalergénico_Hipoalergénicas_debido_a_la_falta__de_00000018234623172683213150000016354546497805835144_">
	</g>
	<g id="_________Fácil_digestión__La_digestibilidad_de_este_tipo_de__al_00000014592046028586798640000014716350303710368679_">
	</g>
</g>
<g id="Elipse_1_00000049204041052049763990000018105301924899697042_" class="st20">
</g>
<g id="Grupo_3_00000120528684210048104610000017274967786067115692_">
</g>
<g id="lineas_abajo_00000085956935671561973180000011788473021631000194_">
</g>
<g id="lineas_abajo_copia_00000068656291613933907220000004900866062167868335_">
</g>
<g id="bolsa_xA0_Imagen_00000150061797833055288570000015644897799785854888_">
</g>
<g id="pelet_xA0_Imagen_00000032620151523953347190000001636828173157071274_">
</g>
<g id="CUIDADO_DEL__x0D_MEDIO_AMBIENTE">
</g>
<g id="La_proteína_de_insectos_comparada_a_los_alimentos_caninos_tradi_00000132768194183204093320000006353738126914280069_">
</g>
<g id="Menor_consumo_de__agua_en_la_producción__de_alimentos_00000183228761448657468520000014979274667922305698_">
</g>
<g id="Menor_emisiones__x0D_de_gases">
</g>
<g id="Menor_gasto_de_recursos_naturales_00000183237296809122879940000007563811076549819577_">
</g>
<g id="Menor_producción_de_desechos_agrícolas_00000109713708323889345400000004601833777820593033_">
</g>
<g id="Producido_localmente">
</g>
</svg>
