<?xml version="1.0" encoding="utf-8"?>
<!-- Generator: Adobe Illustrator 26.2.1, SVG Export Plug-In . SVG Version: 6.00 Build 0)  -->
<svg version="1.1" id="Capa_1" xmlns="http://www.w3.org/2000/svg" xmlns:xlink="http://www.w3.org/1999/xlink" x="0px" y="0px"
	 viewBox="0 0 447.9 447.9" style="enable-background:new 0 0 447.9 447.9;" xml:space="preserve">
<style type="text/css">
	.st0{fill:#75C699;}
	.st1{fill:#009087;}
	.st2{fill:#165953;}
	.st3{fill:#BB6E5A;}
	.st4{fill:none;stroke:#BB6E5A;stroke-width:7;stroke-linejoin:round;stroke-miterlimit:10;}
	.st5{fill:none;stroke:#BB6E5A;stroke-width:11;stroke-linecap:round;stroke-linejoin:round;stroke-miterlimit:10;}
	.st6{fill:#1F8D7F;}
	.st7{fill:#FF9E98;}
	.st8{fill:#6CC6B8;}
	.st9{fill:#EB8368;}
	.st10{fill:#0F2025;}
	.st11{fill:#6BC7B7;}
	.st12{fill:url(#SVGID_1_);}
	.st13{fill:url(#SVGID_00000158025496032341732520000008129731160687431818_);}
	.st14{fill:url(#SVGID_00000144322420716200060540000013212114589581830845_);}
	.st15{fill:#FCC120;}
	.st16{fill:#DC9F10;}
	.st17{fill:#FFFFFF;}
	.st18{fill:#E2413E;}
	.st19{fill:#6BC7B8;}
	.st20{fill:#DB6B39;}
	.st21{fill:#D9EFE8;}
	.st22{fill:#F9D9D8;}
	.st23{fill:#C4E8E3;}
	.st24{fill:#DFF5E5;}
	.st25{fill:none;stroke:#FFFFFF;stroke-width:3;stroke-miterlimit:10;}
	.st26{fill:#FFFEFF;}
	.st27{fill:url(#SVGID_00000007404092006584418230000002767316810420940170_);}
	.st28{fill:url(#SVGID_00000034058572451137655300000012180103674737368240_);}
	.st29{fill:#F1F2F1;}
	.st30{fill:none;stroke:#B0624E;stroke-linecap:round;stroke-miterlimit:10;}
	.st31{fill:url(#SVGID_00000154398265784811256910000016087490829279952567_);}
	.st32{fill:url(#SVGID_00000042011806840613256330000016453864266618014599_);}
	.st33{fill:url(#SVGID_00000114056580838041559570000013927609445511190417_);}
	.st34{fill:url(#SVGID_00000111182714028834920710000014385105685896732057_);}
	.st35{fill:url(#SVGID_00000027605710751473052120000013382073852375258006_);}
	.st36{fill:url(#SVGID_00000014608566557836052580000006020361558120878236_);}
	.st37{fill:url(#SVGID_00000055670145526127850640000003279611907971505799_);}
	.st38{fill:url(#SVGID_00000072243736606269121230000007987560183644658110_);}
	.st39{fill:#676766;}
	.st40{fill:#70C2B4;}
</style>
<path class="st0" d="M394.8,448.2H53.2c-29.2,0-53.1-23.9-53.1-53.1V53.3C0.1,24.1,24,0.2,53.2,0.2h341.5
	c29.2,0,53.1,23.9,53.1,53.1v341.8C447.9,424.3,424,448.2,394.8,448.2z"/>
<path class="st1" d="M434.1,334.3c5.1-0.7,8.7-1.6,13.8-2.2l-0.3,107.2L1.5,435.4l-1-43.9c0,0,25.1-8.9,57.4-16.1
	c0.8-0.2,1.5-0.3,2.3-0.5c0,0,0,0,0,0c3.1-0.7,6.2-1.3,9.4-2c24.4-4.9,51.4-8.3,74.5-6.3c2.2,0.2,4.3,0.4,6.5,0.5h0
	c3.7,0.3,7.4,0.5,11.2,0.8c8.1,0.5,16.5,0.9,25,1.2c4,0.1,7.9,0.2,11.9,0.3c8.8,0.2,17.7,0.3,26.3,0.2c24.8-0.1,47.7-1.2,63.6-3.3
	c7.4-1,13.3-2.2,17.1-3.7c3.5-1.3,11.3-3.7,22.1-6.6c1.7-0.5,3.6-0.9,5.4-1.4c8.8-2.3,19.2-4.8,30.7-7.3h0
	c11.6-2.6,24.3-5.2,37.5-7.6c3.1-0.6,6.3-1.1,9.5-1.7c2.7-0.5,5.4-0.9,8.1-1.4c3.5-0.6,7.1-1.1,10.7-1.7
	C431.2,334.7,432.7,334.5,434.1,334.3z"/>
<path class="st2" d="M448,389C448.5,389,447.4,389.1,448,389l0.1,47.9L1.5,435.4v-35.9c0,0,19.7-3.8,48.1-7.4
	c49.6-6.3,125.8-11.8,169.4,5.4c92.6,36.5,154.1,3.8,227.9-8.3C447.2,389.2,447.6,389.1,448,389z"/>
<linearGradient id="SVGID_1_" gradientUnits="userSpaceOnUse" x1="238.1472" y1="43.0349" x2="448.3339" y2="235.7693">
	<stop  offset="0.4279" style="stop-color:#FCC120"/>
	<stop  offset="0.6982" style="stop-color:#EFB31A"/>
	<stop  offset="1" style="stop-color:#DC9F10"/>
</linearGradient>
<path class="st12" d="M400,102.6c0,0,45,57.7-7,111.1c0,0-16.6,18.6-40.4,23.1l-4-30c0,0,42-0.6,53-34.2
	C412.4,139.1,400,102.6,400,102.6z"/>
<linearGradient id="SVGID_00000144338531526602251950000017589603047683708340_" gradientUnits="userSpaceOnUse" x1="117.8688" y1="389.0082" x2="307.568" y2="323.7516">
	<stop  offset="0.1506" style="stop-color:#FCC120"/>
	<stop  offset="1" style="stop-color:#DC9F10"/>
</linearGradient>
<path style="fill:url(#SVGID_00000144338531526602251950000017589603047683708340_);" d="M360.1,260.9c-0.5,2.6-5,15.6-5.5,18.2
	c-8.2,37.2-21.2,75.7-25.7,88.5c-0.9,2.6-3.5,4.2-6.2,4l-32.1-0.5c0,0-7.4-10.4,5.8-14.5c11.2-3.5,17.4-57.1,18.4-73
	c0.1-2.2-0.1-10.8,0-11.4l18.4-10.6l14.5-2.5L360.1,260.9z"/>
<linearGradient id="SVGID_00000172415786638143840980000007638913174719997622_" gradientUnits="userSpaceOnUse" x1="107.8856" y1="359.9873" x2="297.5848" y2="294.7307">
	<stop  offset="0.1506" style="stop-color:#FCC120"/>
	<stop  offset="1" style="stop-color:#DC9F10"/>
</linearGradient>
<path style="fill:url(#SVGID_00000172415786638143840980000007638913174719997622_);" d="M198.9,369c-0.7,2.9-3.1,5.1-6.1,5.3
	c-8.7,0.7-25.9,0.5-28.8,0.5c-4.3,0-1.9-14,1.9-13.5c18.5,2.4,20.3-28,31.9-57c0.6-1.6,23.2-27,23.2-27l19.3,13.5L198.9,369z"/>
<path class="st16" d="M61.1,251l-18.8,35.2c-2.4,4.4-0.1,9.9,4.7,11.4c11.6,3.6,30.4,9,33.3,6.7C84.5,301,61.1,251,61.1,251z"/>
<path class="st15" d="M382.5,280.4l-9.9-3.8l-15.4,5.6c0-0.2,0-0.3,0-0.3s-49,19.5-51,19.9c-8,1.3-47.9,3.4-47.9,3.4l1.3-8.4
	l-16.7,12.4l-25.6,8.9l0.8,1.7c-4,0.9-25.4,8.2-30.3,9.1c-0.5,0.1-1.4,0.2-2.7,0.3c-4.3,0.4-12.6,0.9-22.5,1.3
	c-18,0.6-41,0.5-52.6-2.4c-16.2-4-22.6-4.8-33.1-14.8c-1.8-1.7-14.3-12.3-16.2-17.3c-1.7-4.5-3-11-3.9-22.8
	c-0.4-4.8,1.8-21.2,3.9-25.1c5.7-11.1,24.2-26.1,33.8-28c11.1-2.2,24.9-4.6,33.8-7.7c3.2-1.1,17.9-4,20.6-5.1l0.2,0.3l0,0l-0.1-0.1
	c0-0.1-0.1-0.2-0.1-0.2s2.3-1.4,6.3-3.7c16.9-9.8,64.6-35.8,99.7-40.8c43.5-6.1,63.9,0,63.9,0s52.9,11.5,64.5,52.7
	C386.7,227.5,384,261.6,382.5,280.4z"/>
<path class="st17" d="M144.9,264.5c18,36.4-39.4,30.2-38.6,36.1c0,0-1.7,1.7,3.4,8.4c2,2.7,6.6,9.3,3.4,9.2
	c-43.7-0.8-57.8-49-55-63.3c2.1-10.8,7.2-23.2,33.2-36.6c1.9,8.6,16.4,5.3,39.5,20.2C133.9,240.6,142.7,260.1,144.9,264.5z"/>
<circle class="st10" cx="99.3" cy="268.2" r="6.4"/>
<path class="st10" d="M100.8,303.4c2.2-1,3.8-3.1,4-5.6c0.2-3.1-0.2-6.7-3.5-5.4c-5.5,2.3-11.7,7.7-10.4,11.8
	C91.7,306.9,97.1,305,100.8,303.4z"/>
<path class="st16" d="M89.8,218.8l8.5-5.5c5-3.5,11.2-4.7,17.2-3.2l14.2,3.5c4.4,0.5,5.5,8,5.1,13c-1,12.1-3.2,31.5-6.5,33.3
	c-3.9,2.1-33.9-21.5-38.7-34.4C88.7,223.1,87.7,220.4,89.8,218.8z"/>
<path class="st15" d="M223,373.4c-0.7,2.9-3.1,5.1-6.1,5.3c-8.7,0.7-25.9,0.5-28.8,0.5c-4.3,0-1.9-14,1.9-13.5
	c18.5,2.4,20.3-28,31.9-57c0.6-1.6,23.2-27,23.2-27l19.3,13.5L223,373.4z"/>
<path class="st15" d="M384.6,255.1c-0.5,2.6-1.4,22.6-2,25.2c-8.2,37.2-22.2,78.3-26.7,91.1c-0.9,2.6-3.5,4.2-6.2,4l-32.1-0.5
	c0,0-7.4-10.4,5.8-14.5c11.2-3.5,17.4-57.1,18.4-73c0.1-2.2-0.1-10.8,0-11.4l18.4-10.6l14.5-2.5L384.6,255.1z"/>
<circle class="st16" cx="69.6" cy="295.1" r="9.4"/>
<circle class="st10" cx="69.7" cy="295.4" r="6.5"/>
<path class="st3" d="M74,342.5c0,0-2.7-8.5,6.7-10c0,0,2-9,10.2-7.1c0,0,11.4-13.6,23.9-0.7c-0.2,1.1,11.3-6.2,15.8,5.9
	c0,0,12-2.7,9.4,11.3C137.4,355.8,74,342.5,74,342.5z"/>
<path class="st18" d="M195.4,316.8l-10.4,12.3c-4.3,0.4-12.6,0.9-22.5,1.3c0.1-0.2-7.5,0.3-7.4,0.1c19.5-30.1-4.6-118-6.3-123.2
	c0,0,0-0.1,0-0.1c0-0.1-0.1-0.2-0.1-0.2s2.3-1.4,6.3-3.7c25.3,13.1,41.8,70,45.7,94.1C201.9,304.4,199.9,311.5,195.4,316.8z"/>
<path class="st6" d="M63.4,366.9c-0.3,0.9-1.3,1.6-2.4,1.6h-0.7c-1.4,0-2.5,1-2.5,2.2v4.2c0,1.9,1.8,3.4,3.9,3.4h89.9
	c2.2,0,3.9-1.5,3.9-3.4v-3.9c0-1.2-1.1-2.2-2.5-2.2l0,0c-1.1,0-2.1-0.6-2.4-1.5l-8.4-23.6c-0.5-1.4-2-2.4-3.7-2.4l-63.6-0.1
	c-1.8,0-3.3,1-3.8,2.4L63.4,366.9z"/>
<ellipse class="st3" cx="106.8" cy="341.5" rx="33.2" ry="5.5"/>
<ellipse class="st6" cx="106.8" cy="376.4" rx="48.5" ry="5.5"/>
<path class="st10" d="M448.1,414.2l0.1,34.1H0v-56.8l0.4,0c0,0,18.6-1,49.1,0.6c39.1,2,98,8,162.4,25.4
	C305.1,442.6,375.7,424.6,448.1,414.2z"/>
<path class="st2" d="M428.9,388.5c0,0-23.1-10.5-24.6-17.9c-0.8-3.8-0.4-15.2-1.5-23.1c-1-7.5-3.4-18.4-4.5-20.9
	c-2.2-5.2,1.5-20.2,1.5-23.1c0-3-3.7-11.9-3.7-11.9s19.4,23.1,15.7,40.3c-2.5,11.3,0.7,33.6,6.7,41.1
	C424.4,380.3,428.9,388.5,428.9,388.5z"/>
<path class="st2" d="M437.9,387.7c0,0-20.2-26.9-20.2-35.8s2.2-12.3,1.5-14.9c-2.2-8.2-1.5-14.2,1.5-20.2
	c1.4-2.8,5.2-12.7,17.2-21.7c11.9-9,3,0.7,0,5.2c-3,4.5-14.2,20.2-9,32.1c5.2,11.9-3.7,19.4-0.7,26.1
	C431.1,365.3,438.6,381.8,437.9,387.7z"/>
<path class="st2" d="M448,311.6v36.9c-4,5.3-6.6,11-6.6,15.6c0,9.1,0,24.9,0,24.9s-8.9-34.5-7.3-54.8c0.4-5.1,1.5-9.2,3.5-11.8
	C441.7,317.5,444.4,315.2,448,311.6z"/>
<path class="st2" d="M448,367.8v17.5c-0.7,4.6-1.2,6.8-1.6,7.7c-0.3,1-0.5,0.8-0.5,0.8l-0.6-0.6l-0.9-0.9
	C444.4,392.3,443.6,379.9,448,367.8z"/>
</svg>
