<?xml version="1.0" encoding="utf-8"?>
<!-- Generator: Adobe Illustrator 26.2.1, SVG Export Plug-In . SVG Version: 6.00 Build 0)  -->
<svg version="1.1" id="Capa_1" xmlns="http://www.w3.org/2000/svg" xmlns:xlink="http://www.w3.org/1999/xlink" x="0px" y="0px"
	 viewBox="0 0 447.9 447.9" style="enable-background:new 0 0 447.9 447.9;" xml:space="preserve">
<style type="text/css">
	.st0{fill:#75C699;}
	.st1{fill:#009087;}
	.st2{fill:#165953;}
	.st3{fill:#BB6E5A;}
	.st4{fill:none;stroke:#BB6E5A;stroke-width:7;stroke-linejoin:round;stroke-miterlimit:10;}
	.st5{fill:none;stroke:#BB6E5A;stroke-width:11;stroke-linecap:round;stroke-linejoin:round;stroke-miterlimit:10;}
	.st6{fill:#1F8D7F;}
	.st7{fill:#FF9E98;}
	.st8{fill:#6CC6B8;}
	.st9{fill:#EB8368;}
	.st10{fill:#0F2025;}
	.st11{fill:#6BC7B7;}
	.st12{fill:url(#SVGID_1_);}
	.st13{fill:url(#SVGID_00000031904226933246064250000013510021431589447611_);}
	.st14{fill:url(#SVGID_00000056416876840748962860000000850310128818655673_);}
	.st15{fill:#FCC120;}
	.st16{fill:#DC9F10;}
	.st17{fill:#FFFFFF;}
	.st18{fill:#E2413E;}
	.st19{fill:#6BC7B8;}
	.st20{fill:#DB6B39;}
	.st21{fill:#D9EFE8;}
	.st22{fill:#F9D9D8;}
	.st23{fill:#C4E8E3;}
	.st24{fill:#DFF5E5;}
	.st25{fill:none;stroke:#FFFFFF;stroke-width:3;stroke-miterlimit:10;}
	.st26{fill:#FFFEFF;}
	.st27{fill:url(#SVGID_00000104691800228084924520000001806710979054906039_);}
	.st28{fill:url(#SVGID_00000017485674011867377810000010133359234270354316_);}
	.st29{fill:#F1F2F1;}
	.st30{fill:none;stroke:#B0624E;stroke-linecap:round;stroke-miterlimit:10;}
	.st31{fill:url(#SVGID_00000029740801136127433540000001768589008871091358_);}
	.st32{fill:url(#SVGID_00000119816120177479492520000000985215173714833322_);}
	.st33{fill:url(#SVGID_00000076605993279844283750000010378965627399366547_);}
	.st34{fill:url(#SVGID_00000156574208042303372500000014669570919013650318_);}
	.st35{fill:url(#SVGID_00000060741513494829856210000013084300895106618802_);}
	.st36{fill:url(#SVGID_00000016035315622102110030000013954975878287340674_);}
	.st37{fill:url(#SVGID_00000012464999750595337450000000146692377022759870_);}
	.st38{fill:url(#SVGID_00000066476793750788548170000014625261123100771719_);}
	.st39{fill:#676766;}
	.st40{fill:#70C2B4;}
</style>
<path class="st0" d="M394.7,448.2H52.6c-29.2,0-53.1-23.9-53.1-53.1V53.3c0-29.2,23.9-53.1,53.1-53.1h342.1
	c29.2,0,53.1,23.9,53.1,53.1v341.8C447.8,424.3,423.9,448.2,394.7,448.2z"/>
<path class="st1" d="M447.9,385.4l-0.4,63l-447.9-4.2V332.5c0.4,0,0.7,0,1.1,0.1c3.4,0.2,6.8,0.6,10.2,0.9c3.6,0.4,7.2,0.8,10.8,1.4
	c2.5,0.4,4.9,0.7,7.4,1.2c2.8,0.5,5.7,1,8.5,1.6c2.1,0.4,4.1,0.8,6.2,1.3c3,0.7,6.1,1.4,9.2,2.2c5.4,1.4,10.9,2.9,16.4,4.6
	c14.4,4.5,28.6,7.8,42.5,10.2c10.1,1.8,20,3,29.7,3.9c10.7,1,21.1,1.4,31.3,1.5c8.9,0.1,17.6-0.1,25.9-0.5
	c28.9-1.4,54.2-5.3,74.2-8.8c10.1-1.7,18.7-3.3,25.8-4.4c2-0.3,4.1-0.5,6.3-0.5c0.6,0,1.1,0,1.7,0c10.6,0,23.3,2.3,36.8,6
	C384.1,363.8,431,385.4,447.9,385.4z"/>
<path class="st2" d="M447.4,409.5l-3,29.9l-444.9-1.3v-44.7c4.1,1.2,8.5,2.6,13.1,4.1c36.9,12.3,87.6,33.5,126.6,23.9
	c7.9-1.9,16.9-4.1,26.8-6.3c56-12.8,138-28.4,187.7-22.6c22,2.6,42.2,5.3,58.2,7.9C431.9,403.7,445.3,406.9,447.4,409.5z"/>
<path class="st16" d="M369.3,170.6l26.9,28.3c3.4,3.6,2.7,9.3-1.4,12c-10,6.4-26.3,16.4-29.6,15
	C360.3,223.8,369.3,170.6,369.3,170.6z"/>
<linearGradient id="SVGID_1_" gradientUnits="userSpaceOnUse" x1="-168.9927" y1="355.84" x2="-125.4715" y2="306.7923" gradientTransform="matrix(-1 0 0 1 164.8649 0)">
	<stop  offset="0.1506" style="stop-color:#FCC120"/>
	<stop  offset="1" style="stop-color:#DC9F10"/>
</linearGradient>
<path class="st12" d="M310,303.4l38,56.1c0,0,17.9,2.4,15.5,9.6c-2.4,7.2-6,7.2-6,7.2h-25.1l-56.1-59.7L310,303.4z"/>
<path class="st15" d="M246.1,187.9l47.2,93.9l34.9,12.7c2.8-2.6,5.7-5.6,8.9-8.9c3.3-3.5,6.4-7.1,9.3-10.7c0.3-0.4,0.6-0.8,0.9-1.2
	c7.7-10,13.6-20.1,18.1-29.9c0.1-0.3,0.2-0.5,0.3-0.8c2.6-5.9,4.7-11.7,6.3-17.3c0.5-1.8,1-3.6,1.4-5.4c0.8-3.3,1.4-6.6,1.9-9.7
	c0.3-1.8,0.5-3.5,0.7-5.2c1.3-13.5-0.3-24.6-3.8-31.5c-4.8-9.7-21.7-19.9-38.8-24.6c-4.3-1.2-8.6-2-12.7-2.4
	c-11.5-1.2-20.1,2.4-26.5,8.9c-7.3,7.5-15.2,14.3-22.2,19.7C269.5,177.2,248.3,186.5,246.1,187.9z"/>
<linearGradient id="SVGID_00000072271856675528766600000015991571904995709569_" gradientUnits="userSpaceOnUse" x1="-87.8086" y1="427.8765" x2="-44.2874" y2="378.8289" gradientTransform="matrix(-1 0 0 1 164.8649 0)">
	<stop  offset="0.1506" style="stop-color:#FCC120"/>
	<stop  offset="1" style="stop-color:#DC9F10"/>
</linearGradient>
<path style="fill:url(#SVGID_00000072271856675528766600000015991571904995709569_);" d="M145.3,309.5l35.4,66.7h35.8
	c0,0,4.8-10.7-15.5-9.6l-17.9-46.6L145.3,309.5z"/>
<linearGradient id="SVGID_00000082362786528459624610000015290080073785709702_" gradientUnits="userSpaceOnUse" x1="-1143.5277" y1="905.0984" x2="-1144.96" y2="1118.5044" gradientTransform="matrix(0.9986 -5.224708e-02 5.224708e-02 0.9986 1169.7659 -882.6864)">
	<stop  offset="0.4279" style="stop-color:#FCC120"/>
	<stop  offset="0.6982" style="stop-color:#EFB31A"/>
	<stop  offset="1" style="stop-color:#DC9F10"/>
</linearGradient>
<path style="fill:url(#SVGID_00000082362786528459624610000015290080073785709702_);" d="M95.2,108.4c0,0-62.4,38.2-32.6,106.5
	c0,0,9,23.2,29.7,35.9l14.3-26.6c0,0-39.1-15.4-37.5-50.6C70.7,138.2,95.2,108.4,95.2,108.4z"/>
<path class="st15" d="M87.6,290.2l32.3,87.2c0,0,32.2,1.2,35.8-1.2c1.8-1.2,0.4-5.1-3.6-7.2c-4-2.1-10.8-2.4-10.8-2.4l1.2-34.6
	c-0.1-5.1,3.2-13.2,8-13.2c0.5,0,0.6,0,1,0l82.3,10.2c7.5,0.4,14.9-0.7,21.7-2.9l19.9-6.8c17.2-5.9,33.8-13.2,49.7-22l-0.2-0.2
	c2.5-1.8,5.3-4.3,8.4-7.8c2.6-2.9,5.4-6.5,8.5-10.8l-36.7-5.4c0,0-44.4-87.6-44.7-87.2c-4.4,4.3-12.3,1.5-14.1,2c0,0-0.1,0-0.1,0
	l-56.1-15.9c-16.4-4.7-39-4.6-55.1,1.2c0,0-40.6,9.6-46.1,43.7l-6.5,43.5C82,267,85.1,284,87.6,290.2z"/>
<path class="st17" d="M314.9,223c-1.1,8,34.5-0.1,35.4,5.7c0.5,3.8,3.4,0,4.6,16c0.2,3.3-4.2,7.7-1.1,6.8
	c21.3-6.3,27.2-62.7,19.7-76.6c-5.6-10.3-16.1-15.3-14.6-14.2c0.4,8.6-11.2,20.7-29,40.7C327.2,204.2,315.6,218.3,314.9,223z"/>
<circle class="st16" cx="332.2" cy="196.4" r="10.8"/>
<circle class="st10" cx="332.4" cy="196.2" r="6.3"/>
<path class="st10" d="M365,211.8c-1.6,3.1-0.3,6.9,2.8,8.5c1.9,0.9,4,0.9,5.7,0c0.8-3.3,1.4-6.6,1.9-9.7c-0.5-0.6-1.2-1.1-1.9-1.5
	C370.3,207.4,366.5,208.7,365,211.8z"/>
<path class="st10" d="M344.5,230.5c-2.4-0.4-4.4-2-5.2-4.2c-1-2.9-1.6-6.4,1.9-6c5.8,0.7,13,4.2,12.9,8.4
	C354,231.5,348.4,231.1,344.5,230.5z"/>
<path class="st15" d="M279.9,310.5l43,58.5c0,0,16.7-1.2,15.5,6s-6,7.2-6,7.2l-32.2-1.2l-54.9-58.5L279.9,310.5z"/>
<path class="st16" d="M331.1,148.5l-9.4-3c-5.6-2-11.8-1.5-17,1.4l-12.5,7c-4,1.6-3.1,8.9-1.4,13.6c4.1,11.1,11.3,28.9,14.8,29.7
	c4.2,1,26.4-29.1,27.5-42.5C333.3,152.2,333.6,149.4,331.1,148.5z"/>
<path class="st18" d="M240.9,186.9c2.7,6.8,51.7,109.5,70,112.9c6.8,1.3,13.5-1,19.3-4.4c4.8-4.7,10.3-11.3,16.7-20.4
	c3.1-4.4,5.9-8.8,8.4-13.2c-7.9,3.1-24.1,7.9-33.7,0.4c-21.7-16.9-66.1-78.4-66.1-78.4C250,185.8,242.7,186.6,240.9,186.9z"/>
<g>
	<path class="st3" d="M319.4,314.2c0,0-6-4.1-1.2-11.4c0,0-3.1-5.8,1-8c0,0-1.2-4.4,2.2-4.9c0,0-1.2-6,1.7-7.3s-1.5-4.7,0.2-8.1
		c1.8-3.4,3.9-7,5.4-6.6s8.4-1.4,9.2,0.7c0.7,2-1.1,5.1-1.1,5.1s2.4,3.3-0.3,4.9s2.7,2.4,0.2,5.9c-2.5,3.4,1.3,4.9-1.7,6.8
		c-3,1.9,1.9,1,0.4,5.3c-1.5,4.3-3,3.1-3,3.1s-0.6,1.1,0.2,2.5c0.8,1.3-0.3,4.1-1.5,4c-1.2,0,2,1.9-1,4c-3,2.1-6.1,4.4-7.5,4.6
		C321,315,319.4,314.2,319.4,314.2z"/>
	<g>
		<g>
			<path class="st3" d="M334.1,269.5c-0.2-2.5-0.1-5,0-7.5c0.1-1.7,0.2-3.5,0.4-5.2c0-0.5,0.1-0.9,0.2-1.4c0-0.2,0-0.4,0.1-0.6
				c0.1-0.9-0.1,0.3,0-0.2c0.1-1,0.3-2,0.5-3c0.3-1.8,0.7-3.6,1.2-5.3c0.3-0.9,0.5-1.7,0.9-2.6c0.1-0.3,0.2-0.7,0.4-1
				c-0.3,0.6,0.1-0.1,0.1-0.2c0.1-0.2,0.2-0.4,0.3-0.7c0.3-0.6,0.7-1.3,1.1-1.8c0.1-0.2,0.2-0.3,0.3-0.5c0.3-0.4-0.5,0.5,0,0
				c0.2-0.3,0.5-0.5,0.7-0.8c0.2-0.2,0.5-0.5,0.8-0.7c-0.7,0.6,0.2-0.1,0.4-0.2c0.1-0.1,0.2-0.1,0.4-0.2c-0.6,0.3-0.2,0.1,0,0
				c0.2-0.1,1.4-0.2,0.6-0.2c0.7-0.1,1.5-0.1,2.2,0c0.1,0,0.9,0.1,0.3,0c0.2,0,0.4,0.1,0.5,0.1c0.5,0.1,1,0.2,1.5,0.3
				c0.9,0.2,1.8,0.5,2.7,0.8c0.5,0.2,1,0.3,1.4,0.5c0.2,0.1,0.4,0.2,0.6,0.2c0.9,0.4-0.5-0.2,0.4,0.2c3.1,1.4,6.3,3,9,5.1
				c0.1,0.1,0.3,0.2,0.4,0.3c0,0-0.5-0.5-0.2-0.2c0.4,0.4,0.8,0.7,1.2,1.1c0.8,0.8,1.5,1.7,2.1,2.7c1.5,2.4,3,4.7,4.8,6.8
				c3.8,4.5,6.3,10.1,9.1,15.3c3.1,5.6,6.1,11.2,9.2,16.9c0.4,0.7,0.8,1.4,1.1,2.2c0.5,1.1,0.6,1.4,1,2.3c0.8,2,1.4,4.1,1.9,6.2
				c1,4.5,1.4,9.3,0.3,13.8c-0.6,2.6-1.7,4.9-3.1,7.3c-0.6,1-1.3,2.1-1.9,3.1c-0.3,0.5-0.6,1-1,1.4c-0.1,0.2-0.2,0.3-0.4,0.5
				c-0.4,0.6,0.1-0.2-0.3,0.3c-0.5,0.6-1.1,1.2-1.6,1.8c-0.1,0.1-0.8,0.7-0.4,0.4c0.4-0.3-0.4,0.2-0.5,0.3c-0.1,0-0.2,0.1-0.3,0.1
				c-0.4,0.3,0.7-0.3,0.2-0.1c0,0-0.4,0.1-0.5,0.1c0-0.1,0.9-0.1,0.4-0.1c-0.2,0-0.4-0.1,0.5,0.1c-0.5-0.1-0.3-0.1,0.1,0.1
				c-0.6-0.3,0.3,0.5,0.2,0.2c0,0-0.4-0.4-0.4-0.4c0.2-0.1,0.5,0.8,0.1,0.1c0,0-0.3-0.6-0.3-0.6c0.1,0,0.3,0.8,0.1,0.3
				c0-0.1-0.1-0.2-0.1-0.3c-0.1-0.2-0.1-0.4-0.2-0.6c-0.1-0.5-0.3-1-0.4-1.6c0-0.2-0.1-0.4-0.1-0.6c-0.1-0.8,0.1,0.6,0-0.2
				c-0.1-0.6-0.1-1.1-0.2-1.7c-0.1-1-0.1-2.1-0.1-3.1c0-1.2,0-2.4,0.1-3.6c0.3-6.2,0.8-12.5,1.3-18.7c0.3-4,0.9-7.9,1.1-11.9
				c0.3-5.2,0-10.4-1.4-15.4c-0.8-2.9-1.9-5.6-3.1-8.3c-0.7-1.5-2.8-1.8-4.1-1.1c-1.5,0.9-1.8,2.6-1.1,4.1c2.4,5.1,3.7,10.4,3.8,16
				c0.1,4.9-0.6,9.8-1.1,14.7c-0.6,6.6-1.1,13.2-1.4,19.8c-0.2,3.6-0.1,7.3,0.4,10.9c0.4,2.2,1,4.7,2.6,6.3c2.2,2.1,5.2,1.8,7.5,0.1
				c3.7-2.8,6.2-7.1,8.4-11.1c2.8-5,3.9-10.8,3.6-16.5c-0.3-5-1.4-9.9-3.3-14.5c-2.1-5.1-5-9.9-7.7-14.7c-3.2-5.8-6.2-11.7-9.6-17.4
				c-1.6-2.7-3.5-5.1-5.5-7.6c-1.7-2.2-2.9-4.7-4.6-6.9c-2.3-3-5.6-5-8.9-6.7c-3.7-2-7.7-3.8-11.9-4.6c-4-0.8-7.9-0.5-11,2.4
				c-2.6,2.5-4.1,6.1-5.2,9.5c-2.2,7.2-2.9,15-2.9,22.5c0,1,0,2.1,0.1,3.1c0.1,1.6,1.3,3,3,3C332.6,272.5,334.2,271.1,334.1,269.5
				L334.1,269.5z"/>
		</g>
	</g>
	<g>
		<path class="st39" d="M370,250.8c-0.8,0.2-1.7,0.2-2.6,0.1c-0.5,0-1.1-0.1-1.6-0.4c-0.5-0.3-1-0.8-1.2-1.4c-0.2-0.6-0.1-1.2,0-1.8
			c0.9,0.8,1.7,1.8,2.1,3c0.1,0.2,0,0.5-0.1,0.3c0.7-0.1,1.4,0.1,2.1,0s1.3-0.6,1.3-1.4c-0.1-0.5-0.4-1-0.7-1.4
			c-0.6-0.8-1.1-1.6-1.7-2.4c-0.4-0.6-1-1.2-1.4-0.9c-0.3,0.2-0.3,0.8-0.1,1.2c0.1,0.5,0.3,0.9,0.3,1.4c-0.1,0.8-1,1.2-0.9,2.1
			c0,0.2,0.1,0.4,0.2,0.7c0.4,0.9,1.1,1.8,1.8,2.4c0.2,0.1,0.3,0.3,0.5,0.3c0.2,0,0.4-0.1,0.5-0.2c1.1-0.7,2-1.6,2.7-2.7
			c0.1-0.2,0.2-0.3,0.2-0.5c0-0.3-0.2-0.7-0.4-1c-1-1.5-2.2-2.7-3.6-3.8c-0.3-0.2-0.7-0.4-0.9-0.2c-0.1,0.2-0.1,0.5,0,0.8
			c0.7,2.7,1.6,5.5,2.6,8.2c0.1,0.4,0.3,0.8,0.6,1c0.3,0.2,0.7,0.1,1-0.2c0.2-0.3,0.3-0.7,0.3-1.1c0.1-0.6,0.2-1.3,0-2
			c-0.1,1.3-0.2,2.6-0.3,3.9c0,0.1,0,0.2-0.1,0.3c-0.1,0.2-0.3,0.1-0.5,0c-0.2-0.1-0.3-0.3-0.4-0.5c-0.3-0.5-0.7-1.1-1.2-1.2
			c-0.5-0.1-1,0.3-1.6,0.1c-0.2-0.1-0.4-0.3-0.6-0.5c-0.9-0.9-1.6-2-2.1-3.2c-0.1-0.3-0.2-0.6-0.3-0.9c-0.1-0.5,0.1-1,0.2-1.4
			c0.2-0.5,0.3-1,0.5-1.4"/>
		<g>
			<path class="st3" d="M369.6,249.4c-0.5,0.1-1,0.1-1.5,0.1c-0.5,0-0.9,0-1.4-0.2c-0.3-0.1-0.5-0.3-0.7-0.6c-0.1-0.2,0-0.7,0-1
				c-0.8,0.2-1.7,0.4-2.5,0.7c0.4,0.3,0.8,0.8,1,1.1c0.2,0.2,0.3,0.4,0.4,0.7c0.1,0.1,0.1,0.3,0.2,0.4c0.2,0.3-0.1,0.1,0.1-0.3
				c0.2-0.3,0.5-0.6,0.7-0.9c0,0,0,0-0.1,0c0.5,0,1,0,1.5,0c0,0,0,0-0.1,0c-0.1,0.9-0.2,1.8-0.4,2.7c0.3,0,0.9,0.1,1.3,0.1
				c0.6,0,1.1-0.1,1.7-0.4c1.1-0.6,1.6-1.7,1.4-2.9c-0.2-1-0.9-1.9-1.5-2.7c-0.6-0.9-1.2-1.9-2.1-2.6c-1.1-0.8-2.6-0.7-3.2,0.6
				c-0.2,0.5-0.2,1.1-0.1,1.7c0,0.2,0.1,0.4,0.2,0.7c0,0.1,0.1,0.2,0.1,0.3c0,0,0.1,0.4,0.1,0.2c0.1,0.4-0.1,0,0,0c0,0,0.1-0.2,0,0
				c-0.1,0.1-0.2,0.3-0.3,0.4c-0.2,0.3-0.4,0.7-0.5,1.1c-0.2,1.1,0.3,2.3,1,3.2c0.6,0.8,1.3,1.8,2.3,2.1c1.3,0.5,2.3-0.4,3.2-1.2
				c0.8-0.7,1.5-1.5,2.1-2.3c0.7-1.1,0.3-2.3-0.4-3.3c-0.6-0.9-1.3-1.7-2.1-2.4c-0.7-0.7-1.6-1.7-2.6-2c-0.7-0.2-1.4-0.1-1.9,0.4
				c-0.6,0.5-0.6,1.3-0.5,2c0.2,1,0.5,2,0.8,3c0.4,1.2,0.7,2.3,1.1,3.5c0.2,0.6,0.4,1.2,0.6,1.8c0.2,0.6,0.4,1.2,0.9,1.7
				c1.1,1.2,3,0.9,3.7-0.6c0.6-1.2,0.7-2.7,0.4-4c-0.2-0.7-0.9-1.2-1.6-1.1c-0.8,0.1-1.2,0.7-1.3,1.5c-0.1,0.7-0.1,1.4-0.2,2.1
				c0,0.3,0,0.6-0.1,0.9c0,0.2,0,0.3,0,0.5c0,0.1,0,0.1,0,0.2c0,0.2,0,0.3,0,0.1c0.1-0.2,0.3-0.4,0.4-0.7c0,0-0.1,0.1-0.1,0.1
				c0.2-0.1,0.4-0.3,0.7-0.4c0,0-0.1,0-0.1,0c0.3,0,0.5,0,0.8,0c0,0,0.3,0.2,0.3,0.2c0,0-0.2-0.3-0.2-0.3c-0.2-0.3-0.3-0.5-0.5-0.7
				c-0.4-0.5-0.9-0.9-1.4-1c-0.5-0.1-1.2-0.2-1.7,0.1c-0.1,0.1,0.1,0,0.2,0c0.2,0,0.1,0.1,0.1,0c-0.1-0.2-0.4-0.5-0.6-0.6
				c-0.5-0.6-1-1.5-1.3-2.2c-0.2-0.5-0.2-0.6-0.1-1.1c0.2-0.6,0.4-1.1,0.5-1.7c0.2-0.8-0.3-1.6-1-1.8c-0.8-0.2-1.6,0.3-1.8,1
				c-0.3,0.9-0.7,1.9-0.7,2.9c0,1,0.4,1.8,0.8,2.7c0.4,0.8,0.9,1.5,1.5,2.3c0.6,0.8,1.4,1.6,2.5,1.6c0.2,0,0.5,0,0.7-0.1
				c0.1,0,0.2,0,0.3-0.1c-0.1,0-0.1,0-0.2,0c0,0-0.3-0.3,0,0c0.1,0.2,0.1,0.1,0.2,0.2c0.3,0.4,0.5,0.8,0.8,1.1
				c0.5,0.5,1.2,0.7,1.9,0.5c1.3-0.4,1.3-1.7,1.3-2.8c0.1-1,0.1-1.9,0.2-2.9c-1,0.1-2,0.3-2.9,0.4c0.1,0.4,0.1,0.8,0,1.2
				c0,0.1-0.2,0.7-0.1,0.7c0-0.1,0.1-0.2,0.3-0.3c0.5-0.2,0.9-0.1,1,0.2c-0.1-0.1-0.1-0.2-0.2-0.3c0,0.1,0,0.1,0-0.1
				c-0.1-0.3-0.2-0.5-0.3-0.8c-0.2-0.5-0.4-1.1-0.6-1.6c-0.4-1.1-0.7-2.1-1-3.2c-0.2-0.5-0.3-1.1-0.5-1.6c-0.1-0.3-0.1-0.5-0.2-0.8
				c0-0.1-0.1-0.2-0.1-0.3c0,0.3,0,0.5-0.2,0.7c-0.2,0.1-0.4,0.3-0.7,0.4c-0.8,0.2-0.8-0.2-0.5,0c-0.1,0-0.1-0.1,0.1,0.1
				c0.2,0.1,0.3,0.3,0.5,0.4c0.3,0.3,0.7,0.6,1,1c0.3,0.3,0.6,0.7,0.9,1.1c0.3,0.3,0.5,0.7,0.7,1c0.5,0.5,0,0.2,0.1,0.1
				c0,0,0-0.4,0.1-0.4c0,0-0.3,0.4-0.3,0.4c-0.3,0.3-0.6,0.7-0.9,1c-0.3,0.3-0.5,0.5-0.8,0.7c-0.1,0.1-0.2,0.1-0.3,0.2
				c-0.2,0.3,0.9-0.1,0.8,0c-0.1,0.1-0.2-0.2-0.1-0.1c-0.1-0.1-0.2-0.2-0.3-0.3c-0.3-0.3-0.5-0.5-0.7-0.8c-0.1-0.2-0.2-0.4-0.3-0.5
				c-0.1-0.1-0.1-0.2-0.2-0.3c0,0.1,0.1-0.2,0-0.1c0,0,0,0.2,0,0.3c0,0.1,0,0,0,0c0.1-0.1,0.2-0.3,0.3-0.4c0.2-0.3,0.4-0.7,0.5-1.1
				c0.1-0.6,0.1-1.1-0.1-1.7c-0.1-0.2-0.1-0.4-0.2-0.6c0-0.1,0-0.2-0.1-0.2c0,0.1,0,0.1,0,0c0-0.1,0-0.1,0,0c0,0,0,0,0,0.1
				c-1.4,0.1-1.9,0.4-1.4,0.6c0,0.1,0.1,0.1,0,0c0.1,0.1,0.2,0.2,0.2,0.2c0,0,0.2,0.2,0.1,0.1c0.3,0.4,0.6,0.9,1,1.4
				c0.3,0.4,0.6,0.9,0.9,1.3c0.1,0.1,0.1,0.2,0.2,0.3c0.1,0.1,0.1,0.2,0.1,0.2c0.2,0.1-0.1,0.1,0,0c0,0,0.1-0.2,0.1-0.2
				c0.1-0.2-0.1,0.2,0,0c0.1-0.2,0.2,0.1,0,0c0,0,0.3,0,0,0c-0.2,0-0.3,0-0.5,0c-0.7,0-1.2-0.1-1.9,0c-0.6,0.1-1,0.7-1.1,1.2
				c-0.1,0.6,0.2,1.1,0.7,1.5c0,0,0,0,0.1,0c0.4,0.3,1.1,0.3,1.5,0c2.1-1.4-0.5-4.6-1.8-5.7c-0.8-0.7-2.3-0.5-2.5,0.7
				c-0.2,0.9-0.3,1.9,0.1,2.8c0.3,0.9,1,1.6,1.7,2.1c1.6,0.9,3.7,0.8,5.4,0.5c0.8-0.1,1.2-1.1,1-1.8
				C371.2,249.6,370.4,249.2,369.6,249.4L369.6,249.4z"/>
		</g>
	</g>
	<g>
		<g>
			<path class="st3" d="M323.8,307.7c-2,1.7-4.2,3.5-6.7,4.4c-2.6,0.9-5.5,0.3-8.1,0.6c-4.8,0.6-9.6,2.7-12.3,6.8
				c-0.5,0.8,0.8,1.6,1.3,0.8c3-4.5,8.8-6.3,14-6.2c2.4,0,4.6,0,6.8-1c2.3-1,4.2-2.7,6.1-4.3C325.6,308.1,324.6,307.1,323.8,307.7
				L323.8,307.7z"/>
		</g>
	</g>
	<g>
		<g>
			<path class="st3" d="M326.5,310.5c-1.9,4.7-5.8,9.6-11.5,8.9c-2.2-0.3-4.1-1.8-6.4-0.8c-2.2,1-4,3.2-5.2,5.3
				c-0.5,0.8,0.8,1.6,1.3,0.8c1.3-2.2,3.8-5.5,6.7-4.7c1.1,0.3,2.1,0.8,3.2,0.9c1.1,0.2,2.2,0.1,3.3-0.1c5-0.9,8.2-5.4,10-9.9
				C328.3,310.1,326.8,309.7,326.5,310.5L326.5,310.5z"/>
		</g>
	</g>
	<g>
		<g>
			<path class="st3" d="M322.2,309.2c-0.5,0.8-1.1,1.7-2,2.2c-1,0.5-2.1,0.6-3.1,0.7c-1.2,0.1-2.3,0.3-3.5,0.4
				c-1,0.1-2.2,0.2-3.2,0.4c-2,0.6-2.8,2.4-3.3,4.3c-0.5,2-0.3,4,0.7,5.8c0.5,0.9,1.7,0.1,1.3-0.8c-0.9-1.7-0.9-3.7-0.3-5.5
				c0.3-0.8,0.7-1.8,1.5-2.2c0.9-0.4,2-0.4,2.9-0.5c2-0.2,4.1-0.3,6.1-0.8c1.9-0.4,3.1-1.7,4.1-3.3
				C324.1,309.2,322.8,308.4,322.2,309.2L322.2,309.2z"/>
		</g>
	</g>
	<g>
		<g>
			<path class="st3" d="M325.3,312.7c-0.8,1-1.6,2.1-2.5,3.1c-0.4,0.4-0.7,0.8-1.2,1c-0.6,0.3-1.3,0.1-1.9-0.1
				c-2.3-0.8-4.5-1.9-6.4-3.5c-0.5-0.4-1.6,0-1.3,0.7c0.8,1.9,3,2.1,4.8,1.8c2.3-0.5,4.5-1.6,6.5-2.8c0.8-0.5,0.1-1.7-0.8-1.3
				c-1.8,0.9-3.9,1.4-6,1.2c-0.4,0-0.8,0.4-0.8,0.8c0,2.2,2.5,2.3,4.1,2c2-0.5,4-1.4,5.6-2.6c0.8-0.5,0.1-1.8-0.8-1.3
				c-1.5,1-3.2,2.2-5,2.3c-0.8,0-1.6-0.1-2.2,0.6c-0.4,0.6-0.5,1.4-0.1,2.1c0.9,1.6,2.9,0.8,4,0c1.4-1.1,2.6-2.7,3.7-4.2
				c0.5-0.7-0.6-1.6-1.2-0.9c-0.9,1.1-2,2.4-3.5,2.6c-0.6,0.1-1.2-0.4-1.8-0.2c-0.6,0.2-0.9,0.9-0.9,1.5c-0.1,1.1,0.8,2.2,1.9,2.3
				c1.4,0.1,2.7-1,3.3-2.2c0.2-0.5,0-1.2-0.6-1.1c-1,0.1-2,0.2-3,0.2c-1,0.1-1,1.6,0,1.5c1-0.1,2-0.2,3-0.2
				c-0.2-0.4-0.4-0.8-0.6-1.1c-0.3,0.6-1.2,1.8-2,1.4c-0.4-0.2-0.2-0.4-0.4-0.7c0.1-0.2,0-0.2-0.1-0.1c0.1,0,0.2,0.1,0.3,0.1
				c0.2,0.1,0.4,0.1,0.6,0.1c2.1,0.1,3.7-1.6,4.9-3c-0.4-0.3-0.8-0.6-1.2-0.9c-0.8,1.1-1.6,2.1-2.6,3.1c-0.4,0.4-0.9,0.9-1.5,1.1
				c-0.3,0.1-1.2,0.4-1.1-0.2c0.1-0.4,1.1-0.2,1.5-0.3c0.6-0.1,1.2-0.2,1.8-0.5c1.3-0.5,2.4-1.2,3.5-2c-0.3-0.4-0.5-0.9-0.8-1.3
				c-1.2,0.9-2.6,1.6-4,2c-0.6,0.2-3.5,1.2-3.5-0.1c-0.2,0.2-0.5,0.5-0.8,0.8c2.3,0.2,4.7-0.3,6.7-1.4c-0.3-0.4-0.5-0.9-0.8-1.3
				c-1.6,0.9-3.2,1.8-5,2.3c-0.8,0.3-1.7,0.5-2.5,0.4c-0.6,0-1.3-0.3-1.6-0.8c-0.4,0.2-0.8,0.5-1.3,0.7c2.2,1.8,4.7,3.3,7.5,4
				c1.4,0.4,2.6,0.1,3.7-0.9c1.1-1.1,2-2.4,3-3.7C327,313.1,325.9,312,325.3,312.7L325.3,312.7z"/>
		</g>
	</g>
	<g>
		<g>
			<path class="st3" d="M320.2,314.4c-1.7,0.7-3.5,1.2-5.4,1.5c-1.8,0.3-3.7,0.2-5.5,0.3c-3,0.2-6.1,0.9-8.3,3.1
				c-0.7,0.7,0.4,1.8,1.1,1.1c2.3-2.3,5.6-2.6,8.7-2.7c3.4-0.1,6.6-0.5,9.8-1.8C321.5,315.5,321.1,314.1,320.2,314.4L320.2,314.4z"
				/>
		</g>
	</g>
	<g>
		<g>
			<path class="st3" d="M312.9,314.2c-0.9,0.7-2,1.3-3,1.7c-0.4,0.1-0.6,0.4-0.5,0.8c0.1,0.3,0.4,0.7,0.7,0.7
				c1.5-0.1,2.9-0.4,4.3-0.8c0.4-0.1,0.6-0.4,0.5-0.8c-0.1-0.4-0.4-0.6-0.7-0.7c-1.2-0.1-2.5-0.1-3.7,0.1c0.2,0.5,0.4,0.9,0.6,1.4
				c0.6-0.4,1.2-0.7,1.8-1.1c0.3-0.2,0.4-0.5,0.3-0.8c-0.1-0.3-0.4-0.5-0.7-0.6c-0.8-0.1-1.6-0.1-2.3-0.1c-0.9,0.1-1.8,0.6-1.6,1.7
				c0.1,0.3,0.4,0.6,0.7,0.6c0.3,0,0.6-0.1,0.8-0.3c-0.3-0.4-0.6-0.8-0.9-1.2c-0.2,0.2-0.4,0.3-0.6,0.5c-0.3,0.2-0.3,0.6-0.1,0.9
				c0.2,0.3,0.5,0.4,0.8,0.3c0.5-0.1,1-0.1,1.5-0.1c0.4,0.1,0.8-0.1,0.9-0.5c0.1-0.4-0.1-0.8-0.5-0.9c-0.8-0.1-1.5-0.1-2.3,0.1
				c0.2,0.4,0.5,0.8,0.7,1.3c0.2-0.2,0.4-0.3,0.6-0.5c0.3-0.2,0.3-0.7,0.1-1c-0.2-0.3-0.7-0.4-1-0.2c0,0-0.2,0.1-0.1,0.1
				c0.2,0.2,0.5,0.4,0.7,0.6c0,0.1,0,0.2,0,0.3c0,0.1-0.1,0,0,0c-0.1,0,0.1,0,0,0c0,0,0.1,0,0.1,0c0.1,0-0.1,0,0.1,0
				c0.1,0,0.1,0,0.2,0c0.1,0,0.3,0,0.4,0c0.6,0,1.1,0,1.7,0.1c-0.1-0.5-0.3-0.9-0.4-1.4c-0.6,0.4-1.2,0.7-1.8,1.1
				c-0.3,0.2-0.5,0.6-0.3,0.9c0.2,0.4,0.5,0.5,0.9,0.4c1.1-0.2,2.2-0.2,3.3-0.1c-0.1-0.5-0.1-1-0.2-1.5c-1.3,0.4-2.6,0.7-3.9,0.7
				c0.1,0.5,0.1,1,0.2,1.5c1.4-0.5,2.6-1.2,3.7-2.1c0.3-0.3,0.3-0.8,0-1.1C313.6,313.9,313.2,313.9,312.9,314.2L312.9,314.2z"/>
		</g>
	</g>
	<g>
		<g>
			<path class="st40" d="M326.1,276.9c1.7-0.4,3.4-1,4.9-2.1c0.8-0.6,1.4-1.3,2.2-1.8c0.8-0.5,1.7-0.8,2.6-0.8c0.5,0,0.5-0.7,0-0.8
				c-0.8,0-1.7,0.2-2.4,0.6c-0.9,0.4-1.6,1.1-2.3,1.7c-1.5,1.3-3.3,1.9-5.2,2.4C325.4,276.3,325.6,277,326.1,276.9L326.1,276.9z"/>
		</g>
	</g>
	<g>
		<g>
			<path class="st40" d="M325.1,282c0.8,0.4,1.7,0.4,2.6,0.3c1-0.1,2-0.1,3,0c2,0.1,3.9,0.3,5.7-0.6c-0.2-0.1-0.4-0.2-0.6-0.3
				c0.2,2.5-1.5,4.9-4,5.3c-1.2,0.2-2.5,0-3.7-0.1c-1.4-0.2-2.9-0.4-4.3-0.5c-0.5-0.1-0.5,0.7,0,0.8c1.6,0.2,3.2,0.4,4.8,0.6
				c1.4,0.2,2.9,0.3,4.2-0.2c2.3-0.8,3.9-3.3,3.7-5.8c0-0.3-0.3-0.5-0.6-0.3c-1.7,0.9-3.5,0.7-5.3,0.5c-0.9-0.1-1.7-0.1-2.6,0
				c-0.9,0.1-1.8,0.2-2.6-0.1C325,281.2,324.6,281.8,325.1,282L325.1,282z"/>
		</g>
	</g>
	<g>
		<g>
			<path class="st40" d="M367.3,253.8c-0.5-1.6-1-3.3-1.2-5c-0.1-0.8-0.1-1.6,0.1-2.4c0.1-0.4,0.2-0.7,0.3-1.1
				c0.1-0.2,0.3-0.7,0.6-0.7c0.8-0.1,0.2,1.5,0.1,1.8c-0.2,0.7-0.4,1.5-0.6,2.3c-0.3,1.6-0.4,3.2-0.4,4.8c0,0.5,0.8,0.5,0.8,0
				c0-1.6,0.1-3.2,0.4-4.8c0.1-0.7,0.3-1.5,0.5-2.2c0.2-0.5,0.4-1.1,0.3-1.7c-0.1-0.5-0.5-0.9-1-1c-0.5,0-1,0.4-1.2,0.8
				c-0.7,1.2-0.8,2.7-0.7,4c0.1,1.8,0.7,3.6,1.2,5.3C366.7,254.5,367.4,254.3,367.3,253.8L367.3,253.8z"/>
		</g>
	</g>
	<g>
		<g>
			<path class="st40" d="M368.3,256c1.6-1.9,3.4-3.5,5.4-4.9c0.4-0.3,0-0.9-0.4-0.6c-2.1,1.4-4,3.1-5.6,5
				C367.4,255.8,367.9,256.3,368.3,256L368.3,256z"/>
		</g>
	</g>
	<g>
		<g>
			<path class="st40" d="M325,313c-3.3,1.3-5.1,4.3-7.8,6.5c-1.3,1.1-3.3,2.2-5.1,1.8c-1.5-0.3-2.5-1.7-3.9-2.3
				c-0.4-0.2-0.6,0.5-0.2,0.7c1.5,0.6,2.3,2.1,4,2.3c1.5,0.3,3.2-0.4,4.5-1.2c3.2-2,5.1-5.7,8.7-7.2
				C325.7,313.6,325.5,312.8,325,313L325,313z"/>
		</g>
	</g>
	<g>
		<g>
			<path class="st40" d="M320.8,295.4c2.4,3.4,6.4,4.6,10.4,4.6c0.5,0,0.5-0.7,0-0.8c-3.7,0-7.5-1-9.8-4.2
				C321.2,294.6,320.5,295,320.8,295.4L320.8,295.4z"/>
		</g>
	</g>
	<g>
		<g>
			<path class="st40" d="M318.3,303.3c0.9,1.8,2.4,3.2,4.2,4c2.1,1,4.5,1.2,6.8,1.3c0.5,0,0.5-0.7,0-0.8c-2.2-0.1-4.4-0.3-6.5-1.2
				c-1.7-0.8-3.1-2.1-4-3.7C318.7,302.5,318.1,302.9,318.3,303.3L318.3,303.3z"/>
		</g>
	</g>
	<g>
		<g>
			<path class="st40" d="M328.9,309.5c-3.3,1.3-6.9,0.8-9.7-1.5c-0.4-0.3-0.9,0.2-0.5,0.5c2.9,2.5,6.8,3.2,10.4,1.7
				C329.5,310.1,329.3,309.4,328.9,309.5L328.9,309.5z"/>
		</g>
	</g>
</g>
<path class="st10" d="M447.9,385.4l0.1,62.7l-448.5,0.2v-49c4.4-0.7,8.8-1.3,13.1-1.8c22-2.8,41.8-3.9,56.7-2
	c25.9,3.2,60.6,11.6,96.6,19.6c41.5,9.2,84.7,17.9,117.9,17.3c38.4-0.6,92.5-18.5,128-32C433.6,392.2,447.9,385.4,447.9,385.4z"/>
<path class="st2" d="M27.7,369c0,0,23.1-10.5,24.6-17.9c0.8-3.8,0.4-15.2,1.5-23.1c1-7.5,3.4-18.4,4.5-20.9
	c2.2-5.2-1.5-20.2-1.5-23.1c0-3,3.7-11.9,3.7-11.9S41.1,295,44.8,312.2c2.5,11.3-0.7,33.6-6.7,41.1S27.7,369,27.7,369z"/>
<path class="st2" d="M18.7,368.2c0,0,20.2-26.9,20.2-35.8s-2.2-12.3-1.5-14.9c2.2-8.2,1.5-14.2-1.5-20.2
	c-1.4-2.8-5.2-12.7-17.2-21.7c-11.9-9-3,0.7,0,5.2c3,4.5,14.2,20.2,9,32.1c-5.2,11.9,3.7,19.4,0.7,26.1
	C25.4,345.8,17.9,362.2,18.7,368.2z"/>
<path class="st2" d="M21.6,334.9c-2,17.3-6.5,34.7-6.5,34.7s0-15.9,0-24.9c0-3.1-1.9-7.2-4.4-11.1c-4.2-6.7-10.1-13.1-11.3-14.4
	v-36.5c3.5,3.7,11.7,10.9,19.4,20.4C23.3,308.4,23.2,321.6,21.6,334.9z"/>
<path class="st2" d="M10.6,368.8l-1.5,1.5c0,0-0.8,0.8-2.3-9.8c-0.8-5.5-4.2-7.9-7.3-9v-20.1c0.4,0.4,0.7,0.8,1.1,1.2
	C12,346.5,10.6,368.8,10.6,368.8z"/>
</svg>
