<?xml version="1.0" encoding="utf-8"?>
<!-- Generator: Adobe Illustrator 26.2.1, SVG Export Plug-In . SVG Version: 6.00 Build 0)  -->
<svg version="1.1" id="Capa_1" xmlns="http://www.w3.org/2000/svg" xmlns:xlink="http://www.w3.org/1999/xlink" x="0px" y="0px"
	 viewBox="0 0 447.9 447.9" style="enable-background:new 0 0 447.9 447.9;" xml:space="preserve">
<style type="text/css">
	.st0{fill:#75C699;}
	.st1{fill:#009087;}
	.st2{fill:#165953;}
	.st3{fill:#BB6E5A;}
	.st4{fill:none;stroke:#BB6E5A;stroke-width:7;stroke-linejoin:round;stroke-miterlimit:10;}
	.st5{fill:none;stroke:#BB6E5A;stroke-width:11;stroke-linecap:round;stroke-linejoin:round;stroke-miterlimit:10;}
	.st6{fill:#1F8D7F;}
	.st7{fill:#FF9E98;}
	.st8{fill:#6CC6B8;}
	.st9{fill:#EB8368;}
	.st10{fill:#0F2025;}
	.st11{fill:#6BC7B7;}
	.st12{fill:url(#SVGID_1_);}
	.st13{fill:url(#SVGID_00000047046171260807767790000007504234486749762476_);}
	.st14{fill:url(#SVGID_00000091013527494812948490000007307860782674605501_);}
	.st15{fill:#FCC120;}
	.st16{fill:#DC9F10;}
	.st17{fill:#FFFFFF;}
	.st18{fill:#E2413E;}
	.st19{fill:#6BC7B8;}
	.st20{fill:#DB6B39;}
	.st21{fill:#D9EFE8;}
	.st22{fill:#F9D9D8;}
	.st23{fill:#C4E8E3;}
	.st24{fill:#DFF5E5;}
	.st25{fill:none;stroke:#FFFFFF;stroke-width:3;stroke-miterlimit:10;}
	.st26{fill:#FFFEFF;}
	.st27{fill:url(#SVGID_00000056420888289435274070000017615440885564154242_);}
	.st28{fill:url(#SVGID_00000170245853445568815130000002006749152664268462_);}
	.st29{fill:#F1F2F1;}
	.st30{fill:none;stroke:#B0624E;stroke-linecap:round;stroke-miterlimit:10;}
	.st31{fill:url(#SVGID_00000180348477127797205180000013945719633991758748_);}
	.st32{fill:url(#SVGID_00000152945887341938821410000015042070203532777097_);}
	.st33{fill:url(#SVGID_00000046317012895460637700000008773570241023870398_);}
	.st34{fill:url(#SVGID_00000048501065785842876470000007064865639500299159_);}
	.st35{fill:url(#SVGID_00000024683720463171016430000017001369711635421884_);}
	.st36{fill:url(#SVGID_00000093855155712090480490000009118386296098825905_);}
	.st37{fill:url(#SVGID_00000116207055420541057350000008740071526242130343_);}
	.st38{fill:url(#SVGID_00000172421636685981733000000014096334107124954250_);}
	.st39{fill:#676766;}
	.st40{fill:#70C2B4;}
</style>
<path class="st0" d="M394.4,448.2H52.6c-29.2,0-53.1-23.9-53.1-53.1V53.3c0-29.2,23.9-53.1,53.1-53.1h341.8
	c29.2,0,53.1,23.9,53.1,53.1v341.8C447.5,424.3,423.6,448.2,394.4,448.2z"/>
<path class="st1" d="M441.8,331.6c2.1,0,4.1,0,6.2,0.1V444l-448.5-4.2V330.4c5.8-0.5,11.6-0.9,17.3-1.2c0.8-0.1,1.6-0.1,2.4-0.1
	c31.2-1.5,59.3,0.7,77.2,9.6c26,12.9,50.7,21.2,76.2,25.1h0c9.2,1.4,18.6,2.3,28.1,2.6c7.2,0.2,14.4,0.2,21.9-0.2
	c1.8-0.1,3.6-0.2,5.5-0.3c0.5,0,1-0.1,1.5-0.1c2.2-0.2,4.4-0.4,6.6-0.6h0c14.3-1.4,29.1-3.9,44.7-7.5c15.7-3.6,32.2-7.6,49.5-11.5
	C364.7,338.4,401.9,331.6,441.8,331.6z"/>
<path class="st2" d="M446,389.5c0.7,0,1.4,0.1,2.1,0.1v48.4l-448.6-1.3v-50.3c29.3-2.9,60.9-1.6,97.4,9c90.5,26.4,137,7.9,222.6-1.9
	h0c4.7-0.5,9.5-1.1,14.4-1.5v0C365,389.2,401.2,387.6,446,389.5z"/>
<path class="st3" d="M226.8,370.7H108.6c-6.6,0-12-5.4-12-12V193.9c0-6.6,5.4-12,12-12h118.1c6.6,0,12,5.4,12,12v164.7
	C238.8,365.3,233.4,370.7,226.8,370.7z"/>
<polyline class="st4" points="136.5,190.5 136.5,106.2 209.2,106.2 209.2,190 "/>
<polyline class="st5" points="136.5,140.4 136.5,106.2 209.2,106.2 209.2,140.2 "/>
<circle class="st2" cx="119.8" cy="369.2" r="11.3"/>
<circle class="st6" cx="221.7" cy="341" r="11.6"/>
<g>
	<g>
		
			<linearGradient id="SVGID_1_" gradientUnits="userSpaceOnUse" x1="-58.3444" y1="1100.2435" x2="-59.9414" y2="1338.1844" gradientTransform="matrix(0.9443 -0.329 0.329 0.9443 -156.9229 -853.298)">
			<stop  offset="0.4279" style="stop-color:#FCC120"/>
			<stop  offset="0.6982" style="stop-color:#EFB31A"/>
			<stop  offset="1" style="stop-color:#DC9F10"/>
		</linearGradient>
		<path class="st12" d="M180,228c0,0-57.3,53.3-2.8,118.7c0,0,23.9,25,50.7,32.3l3.6-20.6c0,0-49.8-11.6-59.3-50.8
			C162.7,268.5,180,228,180,228z"/>
		
			<linearGradient id="SVGID_00000142890976751769281230000008954955574926149789_" gradientUnits="userSpaceOnUse" x1="145.3469" y1="260.9625" x2="239.6341" y2="366.428">
			<stop  offset="0.1506" style="stop-color:#FCC120"/>
			<stop  offset="1" style="stop-color:#DC9F10"/>
		</linearGradient>
		<path style="fill:url(#SVGID_00000142890976751769281230000008954955574926149789_);" d="M232.2,385.7l-52.8,0.5
			c-1.8,0-3.1-1.6-2.8-3.3c0.5-2.9,1.9-7.1,5.5-8.8c0,0-20.9-18-10.2-28.7c7.3-7.3,18.7-21.8,25.2-30.3c3.2-4.2,5.2-9.3,5.6-14.7
			l4.3-59L232.2,385.7z"/>
		<path class="st16" d="M291,370.6c0,0,15.6,9.7,15.6,14.1s-24.3,2.4-24.3,2.4L291,370.6z"/>
		<path class="st15" d="M330.3,393.9l-14.6-0.4c-2.5-0.1-4.5-2-4.7-4.5l-2.6-34l-14.6,32.6l-45.7-1l0,0c5.7,6.1-2.1,8.4-2.1,8.4
			l-14.6-0.1c-2.4,0-4.4-1.8-4.7-4.1c-3.4-23.9-20.7-144.7-19.8-149.5c0.7-3.8,9.7-26.1,14.9-39.1c1-2.5,1.8-5.1,2.4-7.7
			c0.7-3.4,1-6.8,1-10.2c-0.3-15.8,1.6-50.4,19.6-80c0,0,2.1-1,5.8-2.2c11.5-4,37.7-10.6,56.2,3.1c0.2,0.2,0.5,0.4,0.7,0.6
			c19.9,15.5,18.8,67.9,17.7,86.5c0,0.8-0.1,1.6-0.1,2.4c0,3.7,0.5,7.3,1.5,10.8c0.4,1.5,0.9,3.2,1.3,5c2.5,9.3,5.5,21.8,5.8,28
			c0.4,9.3-2.6,117.3-3.3,146.7c0,0.8,2,2,3.3,2.7c1.5,0.9,1.6,3.6,1.4,4.4C334.5,393.9,330.3,393.9,330.3,393.9z"/>
		<path class="st16" d="M244.9,104.3L212,118.4c-4.2,1.8-5.7,6.9-3.1,10.6c6.1,9.1,16.2,23.4,19.5,23.4
			C233.3,152.4,244.9,104.3,244.9,104.3z"/>
		<path class="st16" d="M306.5,104.5l32.9,14.1c4.2,1.8,5.7,6.9,3.1,10.6c-6.1,9.1-16.2,23.4-19.5,23.4
			C318.2,152.6,306.5,104.5,306.5,104.5z"/>
		<path class="st29" d="M323,152.6c-0.1,2.2,0.7,13.5-2.2,21.4c-3.6,9.9-11.2,16.5-11.2,16.5s-11.7-14.8-26.5-19.7
			c-18.8-6.2-38.6,24.5-33,12.2c6.3-14.1,1.9-72.7,0.4-81c11.5-4,37.7-10.6,56.2,3.1C308.8,110.6,323.3,148.1,323,152.6z"/>
		<circle class="st16" cx="254" cy="150" r="10.2"/>
		<circle class="st10" cx="297" cy="149.9" r="5.8"/>
		<circle class="st10" cx="254" cy="149.8" r="5.8"/>
		<path class="st10" d="M276.8,173.9c2.1,0.7,4.4,0.2,6-1.3c2-2,4-4.6,0.9-5.7c-5.1-1.8-12.5-2-14.2,1.6
			C268.6,170.7,273.3,172.8,276.8,173.9z"/>
	</g>
	<path class="st18" d="M326.6,205.4c-13.8,9.9-34.7,36.9-52.9,35.6c-21.1-1.5-51.9-38.8-51.9-38.8c1-2.5,1.8-5.1,2.4-7.7
		c52.2,19,86.6,7.4,101,0.1C325.2,198.3,325.7,201.9,326.6,205.4C327,206.9,326.2,203.6,326.6,205.4z"/>
</g>
<path class="st10" d="M305.7,429.4c31-3.7,89.1-18.1,142.3-27.2v46.2H-0.5v-36.9c10.9-1.3,21.8-2.4,32.8-3
	C122.8,403.5,255,435.4,305.7,429.4z"/>
<path class="st2" d="M13.6,350.5c-4.1,8.2-8.3,13-11.8,15.8c-0.7,0.6-1.5,1.1-2.3,1.6v-24.2c0.6-0.2,1.3-0.5,2-0.7
	c0,0,11.2-2.4,15.3-13.8c0.6-1.5,1-3.2,1.3-5.1c0,0,0.9,1.6,1.1,5C19.5,333.3,18.6,340.4,13.6,350.5z"/>
<path class="st2" d="M447.9,320.9v20.2c-2-2.5-4.1-5.7-6.2-9.8c-0.1-0.2-0.2-0.4-0.3-0.6c-9.1-18.1-4.5-26.5-4.5-26.5
	C438.1,313.6,443.6,318.5,447.9,320.9z"/>
</svg>
